G04 #@! TF.FileFunction,Legend,Bot*
%FSLAX46Y46*%
G04 Gerber Fmt 4.6, Leading zero omitted, Abs format (unit mm)*
G04 Created by KiCad (PCBNEW 4.0.7) date 02/09/18 21:40:19*
%MOMM*%
%LPD*%
G01*
G04 APERTURE LIST*
%ADD10C,0.100000*%
%ADD11C,0.200000*%
%ADD12C,0.150000*%
%ADD13C,0.120000*%
G04 APERTURE END LIST*
D10*
D11*
X185819524Y-74596381D02*
X185819524Y-73596381D01*
X185438571Y-73596381D01*
X185343333Y-73644000D01*
X185295714Y-73691619D01*
X185248095Y-73786857D01*
X185248095Y-73929714D01*
X185295714Y-74024952D01*
X185343333Y-74072571D01*
X185438571Y-74120190D01*
X185819524Y-74120190D01*
X184819524Y-74596381D02*
X184819524Y-73929714D01*
X184819524Y-73596381D02*
X184867143Y-73644000D01*
X184819524Y-73691619D01*
X184771905Y-73644000D01*
X184819524Y-73596381D01*
X184819524Y-73691619D01*
X184343334Y-73929714D02*
X184343334Y-74596381D01*
X184343334Y-74024952D02*
X184295715Y-73977333D01*
X184200477Y-73929714D01*
X184057619Y-73929714D01*
X183962381Y-73977333D01*
X183914762Y-74072571D01*
X183914762Y-74596381D01*
X182152857Y-74596381D02*
X182724286Y-74596381D01*
X182438572Y-74596381D02*
X182438572Y-73596381D01*
X182533810Y-73739238D01*
X182629048Y-73834476D01*
X182724286Y-73882095D01*
X157819524Y-77596381D02*
X157819524Y-76596381D01*
X157438571Y-76596381D01*
X157343333Y-76644000D01*
X157295714Y-76691619D01*
X157248095Y-76786857D01*
X157248095Y-76929714D01*
X157295714Y-77024952D01*
X157343333Y-77072571D01*
X157438571Y-77120190D01*
X157819524Y-77120190D01*
X156819524Y-77596381D02*
X156819524Y-76929714D01*
X156819524Y-76596381D02*
X156867143Y-76644000D01*
X156819524Y-76691619D01*
X156771905Y-76644000D01*
X156819524Y-76596381D01*
X156819524Y-76691619D01*
X156343334Y-76929714D02*
X156343334Y-77596381D01*
X156343334Y-77024952D02*
X156295715Y-76977333D01*
X156200477Y-76929714D01*
X156057619Y-76929714D01*
X155962381Y-76977333D01*
X155914762Y-77072571D01*
X155914762Y-77596381D01*
X154152857Y-77596381D02*
X154724286Y-77596381D01*
X154438572Y-77596381D02*
X154438572Y-76596381D01*
X154533810Y-76739238D01*
X154629048Y-76834476D01*
X154724286Y-76882095D01*
X150069524Y-74596381D02*
X150069524Y-73596381D01*
X149688571Y-73596381D01*
X149593333Y-73644000D01*
X149545714Y-73691619D01*
X149498095Y-73786857D01*
X149498095Y-73929714D01*
X149545714Y-74024952D01*
X149593333Y-74072571D01*
X149688571Y-74120190D01*
X150069524Y-74120190D01*
X149069524Y-74596381D02*
X149069524Y-73929714D01*
X149069524Y-73596381D02*
X149117143Y-73644000D01*
X149069524Y-73691619D01*
X149021905Y-73644000D01*
X149069524Y-73596381D01*
X149069524Y-73691619D01*
X148593334Y-73929714D02*
X148593334Y-74596381D01*
X148593334Y-74024952D02*
X148545715Y-73977333D01*
X148450477Y-73929714D01*
X148307619Y-73929714D01*
X148212381Y-73977333D01*
X148164762Y-74072571D01*
X148164762Y-74596381D01*
X146402857Y-74596381D02*
X146974286Y-74596381D01*
X146688572Y-74596381D02*
X146688572Y-73596381D01*
X146783810Y-73739238D01*
X146879048Y-73834476D01*
X146974286Y-73882095D01*
D12*
X155260000Y-76144000D02*
X155260000Y-73144000D01*
X155260000Y-73144000D02*
X167260000Y-73144000D01*
X167260000Y-73144000D02*
X167260000Y-76144000D01*
X167260000Y-76144000D02*
X155260000Y-76144000D01*
X155260000Y-85144000D02*
X155260000Y-79144000D01*
X155260000Y-79144000D02*
X167260000Y-79144000D01*
X167260000Y-79144000D02*
X167260000Y-85144000D01*
X169275610Y-90644000D02*
G75*
G03X169275610Y-90644000I-8015610J0D01*
G01*
X151417500Y-123596900D02*
X171102500Y-123596900D01*
X171102500Y-140691100D02*
X171102500Y-123596900D01*
X151417500Y-140691100D02*
X171102500Y-140691100D01*
X151417500Y-140691100D02*
X151417500Y-123596900D01*
D13*
X164270000Y-114393538D02*
G75*
G02X158720000Y-115938830I-2990000J-462D01*
G01*
X164270000Y-114394462D02*
G75*
G03X158720000Y-112849170I-2990000J462D01*
G01*
X163780000Y-114394000D02*
G75*
G03X163780000Y-114394000I-2500000J0D01*
G01*
X158720000Y-115939000D02*
X158720000Y-112849000D01*
D12*
X185260000Y-75144000D02*
X185260000Y-78144000D01*
X185260000Y-78144000D02*
X173260000Y-78144000D01*
X173260000Y-78144000D02*
X173260000Y-75144000D01*
X173260000Y-75144000D02*
X185260000Y-75144000D01*
X185260000Y-66144000D02*
X185260000Y-72144000D01*
X185260000Y-72144000D02*
X173260000Y-72144000D01*
X173260000Y-72144000D02*
X173260000Y-66144000D01*
X187275610Y-60644000D02*
G75*
G03X187275610Y-60644000I-8015610J0D01*
G01*
X149260000Y-75144000D02*
X149260000Y-78144000D01*
X149260000Y-78144000D02*
X137260000Y-78144000D01*
X137260000Y-78144000D02*
X137260000Y-75144000D01*
X137260000Y-75144000D02*
X149260000Y-75144000D01*
X149260000Y-66144000D02*
X149260000Y-72144000D01*
X149260000Y-72144000D02*
X137260000Y-72144000D01*
X137260000Y-72144000D02*
X137260000Y-66144000D01*
X151275610Y-60644000D02*
G75*
G03X151275610Y-60644000I-8015610J0D01*
G01*
X161960285Y-77738857D02*
X162360285Y-77167429D01*
X162646000Y-77738857D02*
X162646000Y-76538857D01*
X162188857Y-76538857D01*
X162074571Y-76596000D01*
X162017428Y-76653143D01*
X161960285Y-76767429D01*
X161960285Y-76938857D01*
X162017428Y-77053143D01*
X162074571Y-77110286D01*
X162188857Y-77167429D01*
X162646000Y-77167429D01*
X161617428Y-76538857D02*
X161217428Y-77738857D01*
X160817428Y-76538857D01*
X159788857Y-77738857D02*
X160474572Y-77738857D01*
X160131714Y-77738857D02*
X160131714Y-76538857D01*
X160246000Y-76710286D01*
X160360286Y-76824571D01*
X160474572Y-76881714D01*
X162610000Y-122629714D02*
X162438571Y-122686857D01*
X162152857Y-122686857D01*
X162038571Y-122629714D01*
X161981428Y-122572571D01*
X161924285Y-122458286D01*
X161924285Y-122344000D01*
X161981428Y-122229714D01*
X162038571Y-122172571D01*
X162152857Y-122115429D01*
X162381428Y-122058286D01*
X162495714Y-122001143D01*
X162552857Y-121944000D01*
X162610000Y-121829714D01*
X162610000Y-121715429D01*
X162552857Y-121601143D01*
X162495714Y-121544000D01*
X162381428Y-121486857D01*
X162095714Y-121486857D01*
X161924285Y-121544000D01*
X161524285Y-121486857D02*
X161238571Y-122686857D01*
X161010000Y-121829714D01*
X160781428Y-122686857D01*
X160495714Y-121486857D01*
X159409999Y-122686857D02*
X160095714Y-122686857D01*
X159752856Y-122686857D02*
X159752856Y-121486857D01*
X159867142Y-121658286D01*
X159981428Y-121772571D01*
X160095714Y-121829714D01*
X161970095Y-110658381D02*
X161970095Y-109658381D01*
X161732000Y-109658381D01*
X161589142Y-109706000D01*
X161493904Y-109801238D01*
X161446285Y-109896476D01*
X161398666Y-110086952D01*
X161398666Y-110229810D01*
X161446285Y-110420286D01*
X161493904Y-110515524D01*
X161589142Y-110610762D01*
X161732000Y-110658381D01*
X161970095Y-110658381D01*
X161017714Y-109753619D02*
X160970095Y-109706000D01*
X160874857Y-109658381D01*
X160636761Y-109658381D01*
X160541523Y-109706000D01*
X160493904Y-109753619D01*
X160446285Y-109848857D01*
X160446285Y-109944095D01*
X160493904Y-110086952D01*
X161065333Y-110658381D01*
X160446285Y-110658381D01*
X179988285Y-74634857D02*
X180388285Y-74063429D01*
X180674000Y-74634857D02*
X180674000Y-73434857D01*
X180216857Y-73434857D01*
X180102571Y-73492000D01*
X180045428Y-73549143D01*
X179988285Y-73663429D01*
X179988285Y-73834857D01*
X180045428Y-73949143D01*
X180102571Y-74006286D01*
X180216857Y-74063429D01*
X180674000Y-74063429D01*
X179645428Y-73434857D02*
X179245428Y-74634857D01*
X178845428Y-73434857D01*
X178502572Y-73549143D02*
X178445429Y-73492000D01*
X178331143Y-73434857D01*
X178045429Y-73434857D01*
X177931143Y-73492000D01*
X177874000Y-73549143D01*
X177816857Y-73663429D01*
X177816857Y-73777714D01*
X177874000Y-73949143D01*
X178559714Y-74634857D01*
X177816857Y-74634857D01*
X143988285Y-74634857D02*
X144388285Y-74063429D01*
X144674000Y-74634857D02*
X144674000Y-73434857D01*
X144216857Y-73434857D01*
X144102571Y-73492000D01*
X144045428Y-73549143D01*
X143988285Y-73663429D01*
X143988285Y-73834857D01*
X144045428Y-73949143D01*
X144102571Y-74006286D01*
X144216857Y-74063429D01*
X144674000Y-74063429D01*
X143645428Y-73434857D02*
X143245428Y-74634857D01*
X142845428Y-73434857D01*
X142559714Y-73434857D02*
X141816857Y-73434857D01*
X142216857Y-73892000D01*
X142045429Y-73892000D01*
X141931143Y-73949143D01*
X141874000Y-74006286D01*
X141816857Y-74120571D01*
X141816857Y-74406286D01*
X141874000Y-74520571D01*
X141931143Y-74577714D01*
X142045429Y-74634857D01*
X142388286Y-74634857D01*
X142502572Y-74577714D01*
X142559714Y-74520571D01*
M02*
