M48
;DRILL file {KiCad 4.0.7} date 02/09/18 21:40:41
;FORMAT={3:3/ absolute / metric / suppress leading zeros}
FMAT,2
METRIC,TZ
T1C0.400
T2C0.800
T3C0.900
T4C1.000
T5C1.100
T6C1.270
T7C2.100
%
G90
G05
M71
T1
X132660Y-89844
X163260Y-71444
X164460Y-76044
T2
X134760Y-89144
X134760Y-94144
X139260Y-80394
X139260Y-82934
X139260Y-85474
X139260Y-88014
X140700Y-93244
X141510Y-137644
X144260Y-128394
X144260Y-133394
X146510Y-137644
X146880Y-80394
X146880Y-82934
X146880Y-85474
X146880Y-88014
X149260Y-128644
X149260Y-138804
X150760Y-80394
X150760Y-90554
X150860Y-93244
X151260Y-77644
X154260Y-80484
X154260Y-90644
X157760Y-85144
X157760Y-92764
X161260Y-85274
X161260Y-92894
X161420Y-77644
X163760Y-69644
X164260Y-99484
X164260Y-109644
X166260Y-69644
X170260Y-75394
X170260Y-80394
X170760Y-83984
X170760Y-94144
X174350Y-80894
X174350Y-84394
X174510Y-87894
X174510Y-92894
X180260Y-87894
X180260Y-92894
X184510Y-80894
X184510Y-84394
X188010Y-78644
X188010Y-81184
X188010Y-83724
X188260Y-70144
X188260Y-72644
T3
X158760Y-80144
X158760Y-82684
X160010Y-114394
X162550Y-114394
X164010Y-80354
X164010Y-82894
T4
X133320Y-118424
X133320Y-120964
X133320Y-123504
X133320Y-126044
X133320Y-128584
X133320Y-131124
X133320Y-133664
X133320Y-136204
X133320Y-138744
X134590Y-80324
X134590Y-82864
X134590Y-85404
X135860Y-53654
X135860Y-56194
X135860Y-58734
X135860Y-61274
X135860Y-63814
X135860Y-118424
X135860Y-120964
X135860Y-123504
X135860Y-126044
X135860Y-128584
X135860Y-131124
X135860Y-133664
X135860Y-136204
X135860Y-138744
X138400Y-53654
X138400Y-56194
X138400Y-58734
X138400Y-61274
X138400Y-63814
X138400Y-118424
X138400Y-120964
X138400Y-123504
X138400Y-126044
X138400Y-128584
X138400Y-131124
X138400Y-133664
X138400Y-136204
X138400Y-138744
X140940Y-53654
X140940Y-56194
X140940Y-58734
X140940Y-61274
X140940Y-63814
X143480Y-53654
X143480Y-56194
X143480Y-58734
X143480Y-61274
X143480Y-63814
X146020Y-53654
X146020Y-56194
X146020Y-58734
X146020Y-61274
X146020Y-63814
X146760Y-118894
X146760Y-122644
X148560Y-53654
X148560Y-56194
X148560Y-58734
X148560Y-61274
X148560Y-63814
X149300Y-118894
X149300Y-122644
X151100Y-53654
X151100Y-56194
X151100Y-58734
X151100Y-61274
X151100Y-63814
X151840Y-118894
X153640Y-53654
X153640Y-56194
X153640Y-58734
X153640Y-61274
X153640Y-63814
X156180Y-53654
X156180Y-56194
X156180Y-58734
X156180Y-61274
X156180Y-63814
X160010Y-53644
X162550Y-53644
X165090Y-53644
X165260Y-86564
X165260Y-89104
X165260Y-91644
X168880Y-53654
X168880Y-56194
X168880Y-58734
X168880Y-61274
X168880Y-63814
X170720Y-118894
X171420Y-53654
X171420Y-56194
X171420Y-58734
X171420Y-61274
X171420Y-63814
X173260Y-118894
X173960Y-53654
X173960Y-56194
X173960Y-58734
X173960Y-61274
X173960Y-63814
X176500Y-53654
X176500Y-56194
X176500Y-58734
X176500Y-61274
X176500Y-63814
X177770Y-118424
X177770Y-120964
X177770Y-123504
X177770Y-126044
X177770Y-128584
X177770Y-131124
X177770Y-133664
X177770Y-136204
X177770Y-138744
X179040Y-53654
X179040Y-56194
X179040Y-58734
X179040Y-61274
X179040Y-63814
X180310Y-118424
X180310Y-120964
X180310Y-123504
X180310Y-126044
X180310Y-128584
X180310Y-131124
X180310Y-133664
X180310Y-136204
X180310Y-138744
X181580Y-53654
X181580Y-56194
X181580Y-58734
X181580Y-61274
X181580Y-63814
X182850Y-118424
X182850Y-120964
X182850Y-123504
X182850Y-126044
X182850Y-128584
X182850Y-131124
X182850Y-133664
X182850Y-136204
X182850Y-138744
X184120Y-53654
X184120Y-56194
X184120Y-58734
X184120Y-61274
X184120Y-63814
X185390Y-118424
X185390Y-120964
X185390Y-123504
X185390Y-126044
X185390Y-128584
X185390Y-131124
X185390Y-133664
X185390Y-136204
X185390Y-138744
X186660Y-53654
X186660Y-56194
X186660Y-58734
X186660Y-61274
X186660Y-63814
X187930Y-118424
X187930Y-120964
X187930Y-123504
X187930Y-126044
X187930Y-128584
X187930Y-131124
X187930Y-133664
X187930Y-136204
X187930Y-138744
X189200Y-53654
X189200Y-56194
X189200Y-58734
X189200Y-61274
X189200Y-63814
T5
X160010Y-60734
X160010Y-70894
T6
X138180Y-76644
X143260Y-76644
X148260Y-76644
X156260Y-74644
X161260Y-74644
X166340Y-74644
X174180Y-76644
X179260Y-76644
X184260Y-76644
T7
X155926Y-127572
X155926Y-132144
X155926Y-136716
X161260Y-127572
X161260Y-132144
X161260Y-136716
X166594Y-127572
X166594Y-132144
X166594Y-136716
T0
M30
