G04 #@! TF.FileFunction,Legend,Top*
%FSLAX46Y46*%
G04 Gerber Fmt 4.6, Leading zero omitted, Abs format (unit mm)*
G04 Created by KiCad (PCBNEW 4.0.7) date 02/09/18 21:40:19*
%MOMM*%
%LPD*%
G01*
G04 APERTURE LIST*
%ADD10C,0.100000*%
%ADD11C,0.300000*%
%ADD12C,0.150000*%
%ADD13C,0.400000*%
%ADD14C,0.120000*%
%ADD15C,0.500000*%
G04 APERTURE END LIST*
D10*
D11*
X165224286Y-116072571D02*
X165510000Y-116072571D01*
X165652858Y-116144000D01*
X165795715Y-116286857D01*
X165867143Y-116572571D01*
X165867143Y-117072571D01*
X165795715Y-117358286D01*
X165652858Y-117501143D01*
X165510000Y-117572571D01*
X165224286Y-117572571D01*
X165081429Y-117501143D01*
X164938572Y-117358286D01*
X164867143Y-117072571D01*
X164867143Y-116572571D01*
X164938572Y-116286857D01*
X165081429Y-116144000D01*
X165224286Y-116072571D01*
X167152858Y-116572571D02*
X167152858Y-117572571D01*
X166510001Y-116572571D02*
X166510001Y-117358286D01*
X166581429Y-117501143D01*
X166724287Y-117572571D01*
X166938572Y-117572571D01*
X167081429Y-117501143D01*
X167152858Y-117429714D01*
X167652858Y-116572571D02*
X168224287Y-116572571D01*
X167867144Y-116072571D02*
X167867144Y-117358286D01*
X167938572Y-117501143D01*
X168081430Y-117572571D01*
X168224287Y-117572571D01*
X168724287Y-117429714D02*
X168795715Y-117501143D01*
X168724287Y-117572571D01*
X168652858Y-117501143D01*
X168724287Y-117429714D01*
X168724287Y-117572571D01*
X168724287Y-116644000D02*
X168795715Y-116715429D01*
X168724287Y-116786857D01*
X168652858Y-116715429D01*
X168724287Y-116644000D01*
X168724287Y-116786857D01*
X170367144Y-116072571D02*
X171224287Y-116072571D01*
X170795716Y-117572571D02*
X170795716Y-116072571D01*
X172795715Y-117501143D02*
X173010001Y-117572571D01*
X173367144Y-117572571D01*
X173510001Y-117501143D01*
X173581430Y-117429714D01*
X173652858Y-117286857D01*
X173652858Y-117144000D01*
X173581430Y-117001143D01*
X173510001Y-116929714D01*
X173367144Y-116858286D01*
X173081430Y-116786857D01*
X172938572Y-116715429D01*
X172867144Y-116644000D01*
X172795715Y-116501143D01*
X172795715Y-116358286D01*
X172867144Y-116215429D01*
X172938572Y-116144000D01*
X173081430Y-116072571D01*
X173438572Y-116072571D01*
X173652858Y-116144000D01*
X142724286Y-117572571D02*
X142724286Y-116072571D01*
X143438572Y-116572571D02*
X143438572Y-117572571D01*
X143438572Y-116715429D02*
X143510000Y-116644000D01*
X143652858Y-116572571D01*
X143867143Y-116572571D01*
X144010000Y-116644000D01*
X144081429Y-116786857D01*
X144081429Y-117572571D01*
X144795715Y-117429714D02*
X144867143Y-117501143D01*
X144795715Y-117572571D01*
X144724286Y-117501143D01*
X144795715Y-117429714D01*
X144795715Y-117572571D01*
X144795715Y-116644000D02*
X144867143Y-116715429D01*
X144795715Y-116786857D01*
X144724286Y-116715429D01*
X144795715Y-116644000D01*
X144795715Y-116786857D01*
X146438572Y-116072571D02*
X147295715Y-116072571D01*
X146867144Y-117572571D02*
X146867144Y-116072571D01*
X149795715Y-117572571D02*
X149295715Y-116858286D01*
X148938572Y-117572571D02*
X148938572Y-116072571D01*
X149510000Y-116072571D01*
X149652858Y-116144000D01*
X149724286Y-116215429D01*
X149795715Y-116358286D01*
X149795715Y-116572571D01*
X149724286Y-116715429D01*
X149652858Y-116786857D01*
X149510000Y-116858286D01*
X148938572Y-116858286D01*
X151510000Y-117501143D02*
X151724286Y-117572571D01*
X152081429Y-117572571D01*
X152224286Y-117501143D01*
X152295715Y-117429714D01*
X152367143Y-117286857D01*
X152367143Y-117144000D01*
X152295715Y-117001143D01*
X152224286Y-116929714D01*
X152081429Y-116858286D01*
X151795715Y-116786857D01*
X151652857Y-116715429D01*
X151581429Y-116644000D01*
X151510000Y-116501143D01*
X151510000Y-116358286D01*
X151581429Y-116215429D01*
X151652857Y-116144000D01*
X151795715Y-116072571D01*
X152152857Y-116072571D01*
X152367143Y-116144000D01*
X145938572Y-124751143D02*
X147081429Y-124751143D01*
X146510000Y-125322571D02*
X146510000Y-124179714D01*
X148938572Y-124751143D02*
X150081429Y-124751143D01*
D12*
X178692143Y-71983286D02*
X178335000Y-71983286D01*
X178335000Y-71233286D01*
X179263572Y-71983286D02*
X179263572Y-71590429D01*
X179227858Y-71519000D01*
X179156429Y-71483286D01*
X179013572Y-71483286D01*
X178942143Y-71519000D01*
X179263572Y-71947571D02*
X179192143Y-71983286D01*
X179013572Y-71983286D01*
X178942143Y-71947571D01*
X178906429Y-71876143D01*
X178906429Y-71804714D01*
X178942143Y-71733286D01*
X179013572Y-71697571D01*
X179192143Y-71697571D01*
X179263572Y-71661857D01*
X179549286Y-71483286D02*
X179727857Y-71983286D01*
X179906429Y-71483286D02*
X179727857Y-71983286D01*
X179656429Y-72161857D01*
X179620714Y-72197571D01*
X179549286Y-72233286D01*
X181192144Y-71911857D02*
X181156430Y-71947571D01*
X181049287Y-71983286D01*
X180977858Y-71983286D01*
X180870715Y-71947571D01*
X180799287Y-71876143D01*
X180763572Y-71804714D01*
X180727858Y-71661857D01*
X180727858Y-71554714D01*
X180763572Y-71411857D01*
X180799287Y-71340429D01*
X180870715Y-71269000D01*
X180977858Y-71233286D01*
X181049287Y-71233286D01*
X181156430Y-71269000D01*
X181192144Y-71304714D01*
X181620715Y-71554714D02*
X181549287Y-71519000D01*
X181513572Y-71483286D01*
X181477858Y-71411857D01*
X181477858Y-71376143D01*
X181513572Y-71304714D01*
X181549287Y-71269000D01*
X181620715Y-71233286D01*
X181763572Y-71233286D01*
X181835001Y-71269000D01*
X181870715Y-71304714D01*
X181906430Y-71376143D01*
X181906430Y-71411857D01*
X181870715Y-71483286D01*
X181835001Y-71519000D01*
X181763572Y-71554714D01*
X181620715Y-71554714D01*
X181549287Y-71590429D01*
X181513572Y-71626143D01*
X181477858Y-71697571D01*
X181477858Y-71840429D01*
X181513572Y-71911857D01*
X181549287Y-71947571D01*
X181620715Y-71983286D01*
X181763572Y-71983286D01*
X181835001Y-71947571D01*
X181870715Y-71911857D01*
X181906430Y-71840429D01*
X181906430Y-71697571D01*
X181870715Y-71626143D01*
X181835001Y-71590429D01*
X181763572Y-71554714D01*
X183049287Y-71590429D02*
X182799287Y-71590429D01*
X182799287Y-71983286D02*
X182799287Y-71233286D01*
X183156430Y-71233286D01*
X183549287Y-71983286D02*
X183477859Y-71947571D01*
X183442144Y-71876143D01*
X183442144Y-71233286D01*
X184156430Y-71983286D02*
X184156430Y-71590429D01*
X184120716Y-71519000D01*
X184049287Y-71483286D01*
X183906430Y-71483286D01*
X183835001Y-71519000D01*
X184156430Y-71947571D02*
X184085001Y-71983286D01*
X183906430Y-71983286D01*
X183835001Y-71947571D01*
X183799287Y-71876143D01*
X183799287Y-71804714D01*
X183835001Y-71733286D01*
X183906430Y-71697571D01*
X184085001Y-71697571D01*
X184156430Y-71661857D01*
X184406430Y-71483286D02*
X184692144Y-71483286D01*
X184513572Y-71233286D02*
X184513572Y-71876143D01*
X184549287Y-71947571D01*
X184620715Y-71983286D01*
X184692144Y-71983286D01*
D11*
X171081430Y-67979714D02*
X171010001Y-68051143D01*
X170795715Y-68122571D01*
X170652858Y-68122571D01*
X170438573Y-68051143D01*
X170295715Y-67908286D01*
X170224287Y-67765429D01*
X170152858Y-67479714D01*
X170152858Y-67265429D01*
X170224287Y-66979714D01*
X170295715Y-66836857D01*
X170438573Y-66694000D01*
X170652858Y-66622571D01*
X170795715Y-66622571D01*
X171010001Y-66694000D01*
X171081430Y-66765429D01*
X172367144Y-68122571D02*
X172367144Y-67336857D01*
X172295715Y-67194000D01*
X172152858Y-67122571D01*
X171867144Y-67122571D01*
X171724287Y-67194000D01*
X172367144Y-68051143D02*
X172224287Y-68122571D01*
X171867144Y-68122571D01*
X171724287Y-68051143D01*
X171652858Y-67908286D01*
X171652858Y-67765429D01*
X171724287Y-67622571D01*
X171867144Y-67551143D01*
X172224287Y-67551143D01*
X172367144Y-67479714D01*
X173295716Y-68122571D02*
X173152858Y-68051143D01*
X173081430Y-67908286D01*
X173081430Y-66622571D01*
X175010001Y-68122571D02*
X175010001Y-66622571D01*
X175581429Y-66622571D01*
X175724287Y-66694000D01*
X175795715Y-66765429D01*
X175867144Y-66908286D01*
X175867144Y-67122571D01*
X175795715Y-67265429D01*
X175724287Y-67336857D01*
X175581429Y-67408286D01*
X175010001Y-67408286D01*
X176724287Y-68122571D02*
X176581429Y-68051143D01*
X176510001Y-67979714D01*
X176438572Y-67836857D01*
X176438572Y-67408286D01*
X176510001Y-67265429D01*
X176581429Y-67194000D01*
X176724287Y-67122571D01*
X176938572Y-67122571D01*
X177081429Y-67194000D01*
X177152858Y-67265429D01*
X177224287Y-67408286D01*
X177224287Y-67836857D01*
X177152858Y-67979714D01*
X177081429Y-68051143D01*
X176938572Y-68122571D01*
X176724287Y-68122571D01*
X178081430Y-68122571D02*
X177938572Y-68051143D01*
X177867144Y-67908286D01*
X177867144Y-66622571D01*
X178510001Y-67122571D02*
X178867144Y-68122571D01*
X179224286Y-67122571D02*
X178867144Y-68122571D01*
X178724286Y-68479714D01*
X178652858Y-68551143D01*
X178510001Y-68622571D01*
X180867143Y-67694000D02*
X181581429Y-67694000D01*
X180724286Y-68122571D02*
X181224286Y-66622571D01*
X181724286Y-68122571D01*
X182224286Y-67336857D02*
X182724286Y-67336857D01*
X182938572Y-68122571D02*
X182224286Y-68122571D01*
X182224286Y-66622571D01*
X182938572Y-66622571D01*
X183510000Y-68051143D02*
X183724286Y-68122571D01*
X184081429Y-68122571D01*
X184224286Y-68051143D01*
X184295715Y-67979714D01*
X184367143Y-67836857D01*
X184367143Y-67694000D01*
X184295715Y-67551143D01*
X184224286Y-67479714D01*
X184081429Y-67408286D01*
X183795715Y-67336857D01*
X183652857Y-67265429D01*
X183581429Y-67194000D01*
X183510000Y-67051143D01*
X183510000Y-66908286D01*
X183581429Y-66765429D01*
X183652857Y-66694000D01*
X183795715Y-66622571D01*
X184152857Y-66622571D01*
X184367143Y-66694000D01*
D12*
X165599286Y-66011857D02*
X165599286Y-66369000D01*
X164849286Y-66369000D01*
X165599286Y-65440428D02*
X165206429Y-65440428D01*
X165135000Y-65476142D01*
X165099286Y-65547571D01*
X165099286Y-65690428D01*
X165135000Y-65761857D01*
X165563571Y-65440428D02*
X165599286Y-65511857D01*
X165599286Y-65690428D01*
X165563571Y-65761857D01*
X165492143Y-65797571D01*
X165420714Y-65797571D01*
X165349286Y-65761857D01*
X165313571Y-65690428D01*
X165313571Y-65511857D01*
X165277857Y-65440428D01*
X165099286Y-65154714D02*
X165599286Y-64976143D01*
X165099286Y-64797571D02*
X165599286Y-64976143D01*
X165777857Y-65047571D01*
X165813571Y-65083286D01*
X165849286Y-65154714D01*
X165527857Y-63511856D02*
X165563571Y-63547570D01*
X165599286Y-63654713D01*
X165599286Y-63726142D01*
X165563571Y-63833285D01*
X165492143Y-63904713D01*
X165420714Y-63940428D01*
X165277857Y-63976142D01*
X165170714Y-63976142D01*
X165027857Y-63940428D01*
X164956429Y-63904713D01*
X164885000Y-63833285D01*
X164849286Y-63726142D01*
X164849286Y-63654713D01*
X164885000Y-63547570D01*
X164920714Y-63511856D01*
X165599286Y-62797570D02*
X165599286Y-63226142D01*
X165599286Y-63011856D02*
X164849286Y-63011856D01*
X164956429Y-63083285D01*
X165027857Y-63154713D01*
X165063571Y-63226142D01*
X165206429Y-61654713D02*
X165206429Y-61904713D01*
X165599286Y-61904713D02*
X164849286Y-61904713D01*
X164849286Y-61547570D01*
X165599286Y-61154713D02*
X165563571Y-61226141D01*
X165492143Y-61261856D01*
X164849286Y-61261856D01*
X165599286Y-60547570D02*
X165206429Y-60547570D01*
X165135000Y-60583284D01*
X165099286Y-60654713D01*
X165099286Y-60797570D01*
X165135000Y-60868999D01*
X165563571Y-60547570D02*
X165599286Y-60618999D01*
X165599286Y-60797570D01*
X165563571Y-60868999D01*
X165492143Y-60904713D01*
X165420714Y-60904713D01*
X165349286Y-60868999D01*
X165313571Y-60797570D01*
X165313571Y-60618999D01*
X165277857Y-60547570D01*
X165099286Y-60297570D02*
X165099286Y-60011856D01*
X164849286Y-60190428D02*
X165492143Y-60190428D01*
X165563571Y-60154713D01*
X165599286Y-60083285D01*
X165599286Y-60011856D01*
D13*
X155640952Y-120051143D02*
X154974285Y-120051143D01*
X154974285Y-121098762D02*
X154974285Y-119098762D01*
X155926666Y-119098762D01*
X156688571Y-121098762D02*
X156688571Y-119765429D01*
X156688571Y-119098762D02*
X156593333Y-119194000D01*
X156688571Y-119289238D01*
X156783810Y-119194000D01*
X156688571Y-119098762D01*
X156688571Y-119289238D01*
X157640952Y-121098762D02*
X157640952Y-119765429D01*
X157640952Y-120146381D02*
X157736191Y-119955905D01*
X157831429Y-119860667D01*
X158021905Y-119765429D01*
X158212381Y-119765429D01*
X159640952Y-121003524D02*
X159450476Y-121098762D01*
X159069524Y-121098762D01*
X158879047Y-121003524D01*
X158783809Y-120813048D01*
X158783809Y-120051143D01*
X158879047Y-119860667D01*
X159069524Y-119765429D01*
X159450476Y-119765429D01*
X159640952Y-119860667D01*
X159736190Y-120051143D01*
X159736190Y-120241619D01*
X158783809Y-120432095D01*
X160593333Y-121098762D02*
X160593333Y-119765429D01*
X160593333Y-119955905D02*
X160688572Y-119860667D01*
X160879048Y-119765429D01*
X161164762Y-119765429D01*
X161355238Y-119860667D01*
X161450476Y-120051143D01*
X161450476Y-121098762D01*
X161450476Y-120051143D02*
X161545714Y-119860667D01*
X161736191Y-119765429D01*
X162021905Y-119765429D01*
X162212381Y-119860667D01*
X162307619Y-120051143D01*
X162307619Y-121098762D01*
X164117143Y-121098762D02*
X164117143Y-120051143D01*
X164021905Y-119860667D01*
X163831429Y-119765429D01*
X163450477Y-119765429D01*
X163260000Y-119860667D01*
X164117143Y-121003524D02*
X163926667Y-121098762D01*
X163450477Y-121098762D01*
X163260000Y-121003524D01*
X163164762Y-120813048D01*
X163164762Y-120622571D01*
X163260000Y-120432095D01*
X163450477Y-120336857D01*
X163926667Y-120336857D01*
X164117143Y-120241619D01*
X165926667Y-121003524D02*
X165736191Y-121098762D01*
X165355239Y-121098762D01*
X165164763Y-121003524D01*
X165069524Y-120908286D01*
X164974286Y-120717810D01*
X164974286Y-120146381D01*
X165069524Y-119955905D01*
X165164763Y-119860667D01*
X165355239Y-119765429D01*
X165736191Y-119765429D01*
X165926667Y-119860667D01*
X167545715Y-121003524D02*
X167355239Y-121098762D01*
X166974287Y-121098762D01*
X166783810Y-121003524D01*
X166688572Y-120813048D01*
X166688572Y-120051143D01*
X166783810Y-119860667D01*
X166974287Y-119765429D01*
X167355239Y-119765429D01*
X167545715Y-119860667D01*
X167640953Y-120051143D01*
X167640953Y-120241619D01*
X166688572Y-120432095D01*
X158021905Y-124498762D02*
X157355238Y-123546381D01*
X156879047Y-124498762D02*
X156879047Y-122498762D01*
X157640952Y-122498762D01*
X157831428Y-122594000D01*
X157926667Y-122689238D01*
X158021905Y-122879714D01*
X158021905Y-123165429D01*
X157926667Y-123355905D01*
X157831428Y-123451143D01*
X157640952Y-123546381D01*
X156879047Y-123546381D01*
X159640952Y-124403524D02*
X159450476Y-124498762D01*
X159069524Y-124498762D01*
X158879047Y-124403524D01*
X158783809Y-124213048D01*
X158783809Y-123451143D01*
X158879047Y-123260667D01*
X159069524Y-123165429D01*
X159450476Y-123165429D01*
X159640952Y-123260667D01*
X159736190Y-123451143D01*
X159736190Y-123641619D01*
X158783809Y-123832095D01*
X160402857Y-123165429D02*
X160879048Y-124498762D01*
X161355238Y-123165429D01*
X162117143Y-124308286D02*
X162212382Y-124403524D01*
X162117143Y-124498762D01*
X162021905Y-124403524D01*
X162117143Y-124308286D01*
X162117143Y-124498762D01*
X165260001Y-123451143D02*
X165545715Y-123546381D01*
X165640954Y-123641619D01*
X165736192Y-123832095D01*
X165736192Y-124117810D01*
X165640954Y-124308286D01*
X165545715Y-124403524D01*
X165355239Y-124498762D01*
X164593334Y-124498762D01*
X164593334Y-122498762D01*
X165260001Y-122498762D01*
X165450477Y-122594000D01*
X165545715Y-122689238D01*
X165640954Y-122879714D01*
X165640954Y-123070190D01*
X165545715Y-123260667D01*
X165450477Y-123355905D01*
X165260001Y-123451143D01*
X164593334Y-123451143D01*
D11*
X158117143Y-56751143D02*
X159260000Y-56751143D01*
X161117143Y-56751143D02*
X162260000Y-56751143D01*
X161688571Y-57322571D02*
X161688571Y-56179714D01*
X164045714Y-57251143D02*
X164260000Y-57322571D01*
X164617143Y-57322571D01*
X164760000Y-57251143D01*
X164831429Y-57179714D01*
X164902857Y-57036857D01*
X164902857Y-56894000D01*
X164831429Y-56751143D01*
X164760000Y-56679714D01*
X164617143Y-56608286D01*
X164331429Y-56536857D01*
X164188571Y-56465429D01*
X164117143Y-56394000D01*
X164045714Y-56251143D01*
X164045714Y-56108286D01*
X164117143Y-55965429D01*
X164188571Y-55894000D01*
X164331429Y-55822571D01*
X164688571Y-55822571D01*
X164902857Y-55894000D01*
X165402857Y-56322571D02*
X165688571Y-57322571D01*
X165974285Y-56608286D01*
X166260000Y-57322571D01*
X166545714Y-56322571D01*
D14*
X167550000Y-62484000D02*
X167550000Y-65144000D01*
X187930000Y-62484000D02*
X167550000Y-62484000D01*
X187930000Y-65144000D02*
X167550000Y-65144000D01*
X187930000Y-62484000D02*
X187930000Y-65144000D01*
X189200000Y-62484000D02*
X190530000Y-62484000D01*
X190530000Y-62484000D02*
X190530000Y-63814000D01*
X167550000Y-59944000D02*
X167550000Y-62604000D01*
X187930000Y-59944000D02*
X167550000Y-59944000D01*
X187930000Y-62604000D02*
X167550000Y-62604000D01*
X187930000Y-59944000D02*
X187930000Y-62604000D01*
X189200000Y-59944000D02*
X190530000Y-59944000D01*
X190530000Y-59944000D02*
X190530000Y-61274000D01*
X167550000Y-57404000D02*
X167550000Y-60064000D01*
X187930000Y-57404000D02*
X167550000Y-57404000D01*
X187930000Y-60064000D02*
X167550000Y-60064000D01*
X187930000Y-57404000D02*
X187930000Y-60064000D01*
X189200000Y-57404000D02*
X190530000Y-57404000D01*
X190530000Y-57404000D02*
X190530000Y-58734000D01*
X167550000Y-54864000D02*
X167550000Y-57524000D01*
X187930000Y-54864000D02*
X167550000Y-54864000D01*
X187930000Y-57524000D02*
X167550000Y-57524000D01*
X187930000Y-54864000D02*
X187930000Y-57524000D01*
X189200000Y-54864000D02*
X190530000Y-54864000D01*
X190530000Y-54864000D02*
X190530000Y-56194000D01*
X167550000Y-52324000D02*
X167550000Y-54984000D01*
X187930000Y-52324000D02*
X167550000Y-52324000D01*
X187930000Y-54984000D02*
X167550000Y-54984000D01*
X187930000Y-52324000D02*
X187930000Y-54984000D01*
X189200000Y-52324000D02*
X190530000Y-52324000D01*
X190530000Y-52324000D02*
X190530000Y-53654000D01*
X134530000Y-62484000D02*
X134530000Y-65144000D01*
X154910000Y-62484000D02*
X134530000Y-62484000D01*
X154910000Y-65144000D02*
X134530000Y-65144000D01*
X154910000Y-62484000D02*
X154910000Y-65144000D01*
X156180000Y-62484000D02*
X157510000Y-62484000D01*
X157510000Y-62484000D02*
X157510000Y-63814000D01*
X134530000Y-59944000D02*
X134530000Y-62604000D01*
X154910000Y-59944000D02*
X134530000Y-59944000D01*
X154910000Y-62604000D02*
X134530000Y-62604000D01*
X154910000Y-59944000D02*
X154910000Y-62604000D01*
X156180000Y-59944000D02*
X157510000Y-59944000D01*
X157510000Y-59944000D02*
X157510000Y-61274000D01*
X134530000Y-57404000D02*
X134530000Y-60064000D01*
X154910000Y-57404000D02*
X134530000Y-57404000D01*
X154910000Y-60064000D02*
X134530000Y-60064000D01*
X154910000Y-57404000D02*
X154910000Y-60064000D01*
X156180000Y-57404000D02*
X157510000Y-57404000D01*
X157510000Y-57404000D02*
X157510000Y-58734000D01*
X134530000Y-54864000D02*
X134530000Y-57524000D01*
X154910000Y-54864000D02*
X134530000Y-54864000D01*
X154910000Y-57524000D02*
X134530000Y-57524000D01*
X154910000Y-54864000D02*
X154910000Y-57524000D01*
X156180000Y-54864000D02*
X157510000Y-54864000D01*
X157510000Y-54864000D02*
X157510000Y-56194000D01*
X134530000Y-140074000D02*
X137190000Y-140074000D01*
X134530000Y-119694000D02*
X134530000Y-140074000D01*
X137190000Y-119694000D02*
X137190000Y-140074000D01*
X134530000Y-119694000D02*
X137190000Y-119694000D01*
X134530000Y-118424000D02*
X134530000Y-117094000D01*
X134530000Y-117094000D02*
X135860000Y-117094000D01*
X184060000Y-140074000D02*
X186720000Y-140074000D01*
X184060000Y-119694000D02*
X184060000Y-140074000D01*
X186720000Y-119694000D02*
X186720000Y-140074000D01*
X184060000Y-119694000D02*
X186720000Y-119694000D01*
X184060000Y-118424000D02*
X184060000Y-117094000D01*
X184060000Y-117094000D02*
X185390000Y-117094000D01*
X178980000Y-140074000D02*
X181640000Y-140074000D01*
X178980000Y-119694000D02*
X178980000Y-140074000D01*
X181640000Y-119694000D02*
X181640000Y-140074000D01*
X178980000Y-119694000D02*
X181640000Y-119694000D01*
X178980000Y-118424000D02*
X178980000Y-117094000D01*
X178980000Y-117094000D02*
X180310000Y-117094000D01*
X144070000Y-79064000D02*
G75*
G02X142070000Y-79064000I-1000000J0D01*
G01*
X142070000Y-79064000D02*
X140820000Y-79064000D01*
X140820000Y-79064000D02*
X140820000Y-89344000D01*
X140820000Y-89344000D02*
X145320000Y-89344000D01*
X145320000Y-89344000D02*
X145320000Y-79064000D01*
X145320000Y-79064000D02*
X144070000Y-79064000D01*
X137820000Y-79004000D02*
X137820000Y-89404000D01*
X137820000Y-89404000D02*
X148320000Y-89404000D01*
X148320000Y-89404000D02*
X148320000Y-79004000D01*
X148320000Y-79004000D02*
X137820000Y-79004000D01*
X186160000Y-79384000D02*
X186160000Y-82984000D01*
X186887205Y-78859816D02*
G75*
G03X186160000Y-79384000I1122795J-2324184D01*
G01*
X189108807Y-78827600D02*
G75*
G02X190610000Y-81184000I-1098807J-2356400D01*
G01*
X189108807Y-83540400D02*
G75*
G03X190610000Y-81184000I-1098807J2356400D01*
G01*
X186887205Y-83508184D02*
G75*
G02X186160000Y-82984000I1122795J2324184D01*
G01*
X150630000Y-123974000D02*
X150630000Y-121314000D01*
X148030000Y-123974000D02*
X150630000Y-123974000D01*
X148030000Y-121314000D02*
X150630000Y-121314000D01*
X148030000Y-123974000D02*
X148030000Y-121314000D01*
X146760000Y-123974000D02*
X145430000Y-123974000D01*
X145430000Y-123974000D02*
X145430000Y-122644000D01*
X140950000Y-136334000D02*
X147070000Y-136334000D01*
X140950000Y-138954000D02*
X147070000Y-138954000D01*
X140950000Y-136334000D02*
X140950000Y-136648000D01*
X140950000Y-138640000D02*
X140950000Y-138954000D01*
X147070000Y-136334000D02*
X147070000Y-136648000D01*
X147070000Y-138640000D02*
X147070000Y-138954000D01*
X146520000Y-127084000D02*
X146520000Y-134704000D01*
X142000000Y-127084000D02*
X142000000Y-134704000D01*
X146520000Y-127084000D02*
X142000000Y-127084000D01*
X146520000Y-134704000D02*
X142000000Y-134704000D01*
X132500000Y-95454000D02*
X132500000Y-87834000D01*
X137020000Y-95454000D02*
X137020000Y-87834000D01*
X132500000Y-95454000D02*
X137020000Y-95454000D01*
X132500000Y-87834000D02*
X137020000Y-87834000D01*
X172520000Y-74084000D02*
X172520000Y-81704000D01*
X168000000Y-74084000D02*
X168000000Y-81704000D01*
X172520000Y-74084000D02*
X168000000Y-74084000D01*
X172520000Y-81704000D02*
X168000000Y-81704000D01*
X173200000Y-92954000D02*
X173200000Y-87834000D01*
X175820000Y-92954000D02*
X175820000Y-87834000D01*
X173200000Y-92954000D02*
X173514000Y-92954000D01*
X175506000Y-92954000D02*
X175820000Y-92954000D01*
X173200000Y-87834000D02*
X173514000Y-87834000D01*
X175506000Y-87834000D02*
X175820000Y-87834000D01*
X182520000Y-86584000D02*
X182520000Y-94204000D01*
X178000000Y-86584000D02*
X178000000Y-94204000D01*
X182520000Y-86584000D02*
X178000000Y-86584000D01*
X182520000Y-94204000D02*
X178000000Y-94204000D01*
X158600000Y-68474000D02*
X161420000Y-68474000D01*
X161420000Y-68474000D02*
X161420000Y-63154000D01*
X161420000Y-63154000D02*
X158600000Y-63154000D01*
X158600000Y-63154000D02*
X158600000Y-68474000D01*
X160010000Y-69614000D02*
X160010000Y-68474000D01*
X160010000Y-62014000D02*
X160010000Y-63154000D01*
X158600000Y-67634000D02*
X161420000Y-67634000D01*
X162931392Y-79951665D02*
G75*
G03X162774484Y-83184000I1078608J-1672335D01*
G01*
X165088608Y-79951665D02*
G75*
G02X165245516Y-83184000I-1078608J-1672335D01*
G01*
X162930163Y-80582870D02*
G75*
G03X162930000Y-82664961I1079837J-1041130D01*
G01*
X165089837Y-80582870D02*
G75*
G02X165090000Y-82664961I-1079837J-1041130D01*
G01*
X162774000Y-83184000D02*
X162930000Y-83184000D01*
X165090000Y-83184000D02*
X165246000Y-83184000D01*
X159838608Y-83086335D02*
G75*
G03X159995516Y-79854000I-1078608J1672335D01*
G01*
X157681392Y-83086335D02*
G75*
G02X157524484Y-79854000I1078608J1672335D01*
G01*
X159839837Y-82455130D02*
G75*
G03X159840000Y-80373039I-1079837J1041130D01*
G01*
X157680163Y-82455130D02*
G75*
G02X157680000Y-80373039I1079837J1041130D01*
G01*
X159996000Y-79854000D02*
X159840000Y-79854000D01*
X157680000Y-79854000D02*
X157524000Y-79854000D01*
X166420000Y-54974000D02*
X166420000Y-52314000D01*
X161280000Y-54974000D02*
X166420000Y-54974000D01*
X161280000Y-52314000D02*
X166420000Y-52314000D01*
X161280000Y-54974000D02*
X161280000Y-52314000D01*
X160010000Y-54974000D02*
X158680000Y-54974000D01*
X158680000Y-54974000D02*
X158680000Y-53644000D01*
X133260000Y-84194000D02*
X135920000Y-84194000D01*
X133260000Y-84134000D02*
X133260000Y-84194000D01*
X135920000Y-84134000D02*
X135920000Y-84194000D01*
X133260000Y-84134000D02*
X135920000Y-84134000D01*
X133260000Y-82864000D02*
X133260000Y-81534000D01*
X133260000Y-81534000D02*
X134590000Y-81534000D01*
X133260000Y-86734000D02*
X135920000Y-86734000D01*
X133260000Y-86674000D02*
X133260000Y-86734000D01*
X135920000Y-86674000D02*
X135920000Y-86734000D01*
X133260000Y-86674000D02*
X135920000Y-86674000D01*
X133260000Y-85404000D02*
X133260000Y-84074000D01*
X133260000Y-84074000D02*
X134590000Y-84074000D01*
X133260000Y-81654000D02*
X135920000Y-81654000D01*
X133260000Y-81594000D02*
X133260000Y-81654000D01*
X135920000Y-81594000D02*
X135920000Y-81654000D01*
X133260000Y-81594000D02*
X135920000Y-81594000D01*
X133260000Y-80324000D02*
X133260000Y-78994000D01*
X133260000Y-78994000D02*
X134590000Y-78994000D01*
X162950000Y-107774000D02*
X165570000Y-107774000D01*
X165570000Y-107774000D02*
X165570000Y-101354000D01*
X165570000Y-101354000D02*
X162950000Y-101354000D01*
X162950000Y-101354000D02*
X162950000Y-107774000D01*
X164260000Y-108664000D02*
X164260000Y-107774000D01*
X164260000Y-100464000D02*
X164260000Y-101354000D01*
X150570000Y-130514000D02*
X147950000Y-130514000D01*
X147950000Y-130514000D02*
X147950000Y-136934000D01*
X147950000Y-136934000D02*
X150570000Y-136934000D01*
X150570000Y-136934000D02*
X150570000Y-130514000D01*
X149260000Y-129624000D02*
X149260000Y-130514000D01*
X149260000Y-137824000D02*
X149260000Y-136934000D01*
X152950000Y-88774000D02*
X155570000Y-88774000D01*
X155570000Y-88774000D02*
X155570000Y-82354000D01*
X155570000Y-82354000D02*
X152950000Y-82354000D01*
X152950000Y-82354000D02*
X152950000Y-88774000D01*
X154260000Y-89664000D02*
X154260000Y-88774000D01*
X154260000Y-81464000D02*
X154260000Y-82354000D01*
X152070000Y-82264000D02*
X149450000Y-82264000D01*
X149450000Y-82264000D02*
X149450000Y-88684000D01*
X149450000Y-88684000D02*
X152070000Y-88684000D01*
X152070000Y-88684000D02*
X152070000Y-82264000D01*
X150760000Y-81374000D02*
X150760000Y-82264000D01*
X150760000Y-89574000D02*
X150760000Y-88684000D01*
X148990000Y-94554000D02*
X148990000Y-91934000D01*
X148990000Y-91934000D02*
X142570000Y-91934000D01*
X142570000Y-91934000D02*
X142570000Y-94554000D01*
X142570000Y-94554000D02*
X148990000Y-94554000D01*
X149880000Y-93244000D02*
X148990000Y-93244000D01*
X141680000Y-93244000D02*
X142570000Y-93244000D01*
X153130000Y-76334000D02*
X153130000Y-78954000D01*
X153130000Y-78954000D02*
X159550000Y-78954000D01*
X159550000Y-78954000D02*
X159550000Y-76334000D01*
X159550000Y-76334000D02*
X153130000Y-76334000D01*
X152240000Y-77644000D02*
X153130000Y-77644000D01*
X160440000Y-77644000D02*
X159550000Y-77644000D01*
X169450000Y-92274000D02*
X172070000Y-92274000D01*
X172070000Y-92274000D02*
X172070000Y-85854000D01*
X172070000Y-85854000D02*
X169450000Y-85854000D01*
X169450000Y-85854000D02*
X169450000Y-92274000D01*
X170760000Y-93164000D02*
X170760000Y-92274000D01*
X170760000Y-84964000D02*
X170760000Y-85854000D01*
X182640000Y-85704000D02*
X182640000Y-83084000D01*
X182640000Y-83084000D02*
X176220000Y-83084000D01*
X176220000Y-83084000D02*
X176220000Y-85704000D01*
X176220000Y-85704000D02*
X182640000Y-85704000D01*
X183530000Y-84394000D02*
X182640000Y-84394000D01*
X175330000Y-84394000D02*
X176220000Y-84394000D01*
X182640000Y-82204000D02*
X182640000Y-79584000D01*
X182640000Y-79584000D02*
X176220000Y-79584000D01*
X176220000Y-79584000D02*
X176220000Y-82204000D01*
X176220000Y-82204000D02*
X182640000Y-82204000D01*
X183530000Y-80894000D02*
X182640000Y-80894000D01*
X175330000Y-80894000D02*
X176220000Y-80894000D01*
X166590000Y-85234000D02*
X163930000Y-85234000D01*
X166590000Y-90374000D02*
X166590000Y-85234000D01*
X163930000Y-90374000D02*
X163930000Y-85234000D01*
X166590000Y-90374000D02*
X163930000Y-90374000D01*
X166590000Y-91644000D02*
X166590000Y-92974000D01*
X166590000Y-92974000D02*
X165260000Y-92974000D01*
X160200000Y-91144000D02*
X162320000Y-91144000D01*
X162320000Y-91144000D02*
X162320000Y-87024000D01*
X162320000Y-87024000D02*
X160200000Y-87024000D01*
X160200000Y-87024000D02*
X160200000Y-91144000D01*
X161260000Y-91914000D02*
X161260000Y-91144000D01*
X161260000Y-86254000D02*
X161260000Y-87024000D01*
X160200000Y-90484000D02*
X162320000Y-90484000D01*
X158820000Y-86894000D02*
X156700000Y-86894000D01*
X156700000Y-86894000D02*
X156700000Y-91014000D01*
X156700000Y-91014000D02*
X158820000Y-91014000D01*
X158820000Y-91014000D02*
X158820000Y-86894000D01*
X157760000Y-86124000D02*
X157760000Y-86894000D01*
X157760000Y-91784000D02*
X157760000Y-91014000D01*
X158820000Y-87554000D02*
X156700000Y-87554000D01*
X167315722Y-68464277D02*
G75*
G03X162704420Y-68464000I-2305722J-1179723D01*
G01*
X167315722Y-70823723D02*
G75*
G02X162704420Y-70824000I-2305722J1179723D01*
G01*
X167315722Y-70823723D02*
G75*
G03X167315580Y-68464000I-2305722J1179723D01*
G01*
X165010000Y-67094000D02*
X165010000Y-72194000D01*
X165050000Y-67094000D02*
X165050000Y-72194000D01*
X165090000Y-67095000D02*
X165090000Y-72193000D01*
X165130000Y-67096000D02*
X165130000Y-72192000D01*
X165170000Y-67098000D02*
X165170000Y-72190000D01*
X165210000Y-67101000D02*
X165210000Y-72187000D01*
X165250000Y-67105000D02*
X165250000Y-72183000D01*
X165290000Y-67109000D02*
X165290000Y-68664000D01*
X165290000Y-70624000D02*
X165290000Y-72179000D01*
X165330000Y-67113000D02*
X165330000Y-68664000D01*
X165330000Y-70624000D02*
X165330000Y-72175000D01*
X165370000Y-67119000D02*
X165370000Y-68664000D01*
X165370000Y-70624000D02*
X165370000Y-72169000D01*
X165410000Y-67125000D02*
X165410000Y-68664000D01*
X165410000Y-70624000D02*
X165410000Y-72163000D01*
X165450000Y-67131000D02*
X165450000Y-68664000D01*
X165450000Y-70624000D02*
X165450000Y-72157000D01*
X165490000Y-67138000D02*
X165490000Y-68664000D01*
X165490000Y-70624000D02*
X165490000Y-72150000D01*
X165530000Y-67146000D02*
X165530000Y-68664000D01*
X165530000Y-70624000D02*
X165530000Y-72142000D01*
X165570000Y-67155000D02*
X165570000Y-68664000D01*
X165570000Y-70624000D02*
X165570000Y-72133000D01*
X165610000Y-67164000D02*
X165610000Y-68664000D01*
X165610000Y-70624000D02*
X165610000Y-72124000D01*
X165650000Y-67174000D02*
X165650000Y-68664000D01*
X165650000Y-70624000D02*
X165650000Y-72114000D01*
X165690000Y-67184000D02*
X165690000Y-68664000D01*
X165690000Y-70624000D02*
X165690000Y-72104000D01*
X165731000Y-67196000D02*
X165731000Y-68664000D01*
X165731000Y-70624000D02*
X165731000Y-72092000D01*
X165771000Y-67208000D02*
X165771000Y-68664000D01*
X165771000Y-70624000D02*
X165771000Y-72080000D01*
X165811000Y-67220000D02*
X165811000Y-68664000D01*
X165811000Y-70624000D02*
X165811000Y-72068000D01*
X165851000Y-67234000D02*
X165851000Y-68664000D01*
X165851000Y-70624000D02*
X165851000Y-72054000D01*
X165891000Y-67248000D02*
X165891000Y-68664000D01*
X165891000Y-70624000D02*
X165891000Y-72040000D01*
X165931000Y-67262000D02*
X165931000Y-68664000D01*
X165931000Y-70624000D02*
X165931000Y-72026000D01*
X165971000Y-67278000D02*
X165971000Y-68664000D01*
X165971000Y-70624000D02*
X165971000Y-72010000D01*
X166011000Y-67294000D02*
X166011000Y-68664000D01*
X166011000Y-70624000D02*
X166011000Y-71994000D01*
X166051000Y-67311000D02*
X166051000Y-68664000D01*
X166051000Y-70624000D02*
X166051000Y-71977000D01*
X166091000Y-67329000D02*
X166091000Y-68664000D01*
X166091000Y-70624000D02*
X166091000Y-71959000D01*
X166131000Y-67348000D02*
X166131000Y-68664000D01*
X166131000Y-70624000D02*
X166131000Y-71940000D01*
X166171000Y-67368000D02*
X166171000Y-68664000D01*
X166171000Y-70624000D02*
X166171000Y-71920000D01*
X166211000Y-67388000D02*
X166211000Y-68664000D01*
X166211000Y-70624000D02*
X166211000Y-71900000D01*
X166251000Y-67410000D02*
X166251000Y-68664000D01*
X166251000Y-70624000D02*
X166251000Y-71878000D01*
X166291000Y-67432000D02*
X166291000Y-68664000D01*
X166291000Y-70624000D02*
X166291000Y-71856000D01*
X166331000Y-67455000D02*
X166331000Y-68664000D01*
X166331000Y-70624000D02*
X166331000Y-71833000D01*
X166371000Y-67479000D02*
X166371000Y-68664000D01*
X166371000Y-70624000D02*
X166371000Y-71809000D01*
X166411000Y-67504000D02*
X166411000Y-68664000D01*
X166411000Y-70624000D02*
X166411000Y-71784000D01*
X166451000Y-67531000D02*
X166451000Y-68664000D01*
X166451000Y-70624000D02*
X166451000Y-71757000D01*
X166491000Y-67558000D02*
X166491000Y-68664000D01*
X166491000Y-70624000D02*
X166491000Y-71730000D01*
X166531000Y-67586000D02*
X166531000Y-68664000D01*
X166531000Y-70624000D02*
X166531000Y-71702000D01*
X166571000Y-67616000D02*
X166571000Y-68664000D01*
X166571000Y-70624000D02*
X166571000Y-71672000D01*
X166611000Y-67647000D02*
X166611000Y-68664000D01*
X166611000Y-70624000D02*
X166611000Y-71641000D01*
X166651000Y-67679000D02*
X166651000Y-68664000D01*
X166651000Y-70624000D02*
X166651000Y-71609000D01*
X166691000Y-67712000D02*
X166691000Y-68664000D01*
X166691000Y-70624000D02*
X166691000Y-71576000D01*
X166731000Y-67747000D02*
X166731000Y-68664000D01*
X166731000Y-70624000D02*
X166731000Y-71541000D01*
X166771000Y-67783000D02*
X166771000Y-68664000D01*
X166771000Y-70624000D02*
X166771000Y-71505000D01*
X166811000Y-67821000D02*
X166811000Y-68664000D01*
X166811000Y-70624000D02*
X166811000Y-71467000D01*
X166851000Y-67861000D02*
X166851000Y-68664000D01*
X166851000Y-70624000D02*
X166851000Y-71427000D01*
X166891000Y-67902000D02*
X166891000Y-68664000D01*
X166891000Y-70624000D02*
X166891000Y-71386000D01*
X166931000Y-67945000D02*
X166931000Y-68664000D01*
X166931000Y-70624000D02*
X166931000Y-71343000D01*
X166971000Y-67990000D02*
X166971000Y-68664000D01*
X166971000Y-70624000D02*
X166971000Y-71298000D01*
X167011000Y-68038000D02*
X167011000Y-68664000D01*
X167011000Y-70624000D02*
X167011000Y-71250000D01*
X167051000Y-68088000D02*
X167051000Y-68664000D01*
X167051000Y-70624000D02*
X167051000Y-71200000D01*
X167091000Y-68140000D02*
X167091000Y-68664000D01*
X167091000Y-70624000D02*
X167091000Y-71148000D01*
X167131000Y-68196000D02*
X167131000Y-68664000D01*
X167131000Y-70624000D02*
X167131000Y-71092000D01*
X167171000Y-68254000D02*
X167171000Y-68664000D01*
X167171000Y-70624000D02*
X167171000Y-71034000D01*
X167211000Y-68317000D02*
X167211000Y-68664000D01*
X167211000Y-70624000D02*
X167211000Y-70971000D01*
X167251000Y-68383000D02*
X167251000Y-70905000D01*
X167291000Y-68455000D02*
X167291000Y-70833000D01*
X167331000Y-68532000D02*
X167331000Y-70756000D01*
X167371000Y-68616000D02*
X167371000Y-70672000D01*
X167411000Y-68710000D02*
X167411000Y-70578000D01*
X167451000Y-68815000D02*
X167451000Y-70473000D01*
X167491000Y-68937000D02*
X167491000Y-70351000D01*
X167531000Y-69085000D02*
X167531000Y-70203000D01*
X167571000Y-69290000D02*
X167571000Y-69998000D01*
X161560000Y-69644000D02*
X162760000Y-69644000D01*
X162160000Y-68994000D02*
X162160000Y-70294000D01*
X187080277Y-69088278D02*
G75*
G03X187080000Y-73699580I1179723J-2305722D01*
G01*
X189439723Y-69088278D02*
G75*
G02X189440000Y-73699580I-1179723J-2305722D01*
G01*
X189439723Y-69088278D02*
G75*
G03X187080000Y-69088420I-1179723J-2305722D01*
G01*
X185710000Y-71394000D02*
X190810000Y-71394000D01*
X185710000Y-71354000D02*
X190810000Y-71354000D01*
X185711000Y-71314000D02*
X190809000Y-71314000D01*
X185712000Y-71274000D02*
X190808000Y-71274000D01*
X185714000Y-71234000D02*
X190806000Y-71234000D01*
X185717000Y-71194000D02*
X190803000Y-71194000D01*
X185721000Y-71154000D02*
X190799000Y-71154000D01*
X185725000Y-71114000D02*
X187280000Y-71114000D01*
X189240000Y-71114000D02*
X190795000Y-71114000D01*
X185729000Y-71074000D02*
X187280000Y-71074000D01*
X189240000Y-71074000D02*
X190791000Y-71074000D01*
X185735000Y-71034000D02*
X187280000Y-71034000D01*
X189240000Y-71034000D02*
X190785000Y-71034000D01*
X185741000Y-70994000D02*
X187280000Y-70994000D01*
X189240000Y-70994000D02*
X190779000Y-70994000D01*
X185747000Y-70954000D02*
X187280000Y-70954000D01*
X189240000Y-70954000D02*
X190773000Y-70954000D01*
X185754000Y-70914000D02*
X187280000Y-70914000D01*
X189240000Y-70914000D02*
X190766000Y-70914000D01*
X185762000Y-70874000D02*
X187280000Y-70874000D01*
X189240000Y-70874000D02*
X190758000Y-70874000D01*
X185771000Y-70834000D02*
X187280000Y-70834000D01*
X189240000Y-70834000D02*
X190749000Y-70834000D01*
X185780000Y-70794000D02*
X187280000Y-70794000D01*
X189240000Y-70794000D02*
X190740000Y-70794000D01*
X185790000Y-70754000D02*
X187280000Y-70754000D01*
X189240000Y-70754000D02*
X190730000Y-70754000D01*
X185800000Y-70714000D02*
X187280000Y-70714000D01*
X189240000Y-70714000D02*
X190720000Y-70714000D01*
X185812000Y-70673000D02*
X187280000Y-70673000D01*
X189240000Y-70673000D02*
X190708000Y-70673000D01*
X185824000Y-70633000D02*
X187280000Y-70633000D01*
X189240000Y-70633000D02*
X190696000Y-70633000D01*
X185836000Y-70593000D02*
X187280000Y-70593000D01*
X189240000Y-70593000D02*
X190684000Y-70593000D01*
X185850000Y-70553000D02*
X187280000Y-70553000D01*
X189240000Y-70553000D02*
X190670000Y-70553000D01*
X185864000Y-70513000D02*
X187280000Y-70513000D01*
X189240000Y-70513000D02*
X190656000Y-70513000D01*
X185878000Y-70473000D02*
X187280000Y-70473000D01*
X189240000Y-70473000D02*
X190642000Y-70473000D01*
X185894000Y-70433000D02*
X187280000Y-70433000D01*
X189240000Y-70433000D02*
X190626000Y-70433000D01*
X185910000Y-70393000D02*
X187280000Y-70393000D01*
X189240000Y-70393000D02*
X190610000Y-70393000D01*
X185927000Y-70353000D02*
X187280000Y-70353000D01*
X189240000Y-70353000D02*
X190593000Y-70353000D01*
X185945000Y-70313000D02*
X187280000Y-70313000D01*
X189240000Y-70313000D02*
X190575000Y-70313000D01*
X185964000Y-70273000D02*
X187280000Y-70273000D01*
X189240000Y-70273000D02*
X190556000Y-70273000D01*
X185984000Y-70233000D02*
X187280000Y-70233000D01*
X189240000Y-70233000D02*
X190536000Y-70233000D01*
X186004000Y-70193000D02*
X187280000Y-70193000D01*
X189240000Y-70193000D02*
X190516000Y-70193000D01*
X186026000Y-70153000D02*
X187280000Y-70153000D01*
X189240000Y-70153000D02*
X190494000Y-70153000D01*
X186048000Y-70113000D02*
X187280000Y-70113000D01*
X189240000Y-70113000D02*
X190472000Y-70113000D01*
X186071000Y-70073000D02*
X187280000Y-70073000D01*
X189240000Y-70073000D02*
X190449000Y-70073000D01*
X186095000Y-70033000D02*
X187280000Y-70033000D01*
X189240000Y-70033000D02*
X190425000Y-70033000D01*
X186120000Y-69993000D02*
X187280000Y-69993000D01*
X189240000Y-69993000D02*
X190400000Y-69993000D01*
X186147000Y-69953000D02*
X187280000Y-69953000D01*
X189240000Y-69953000D02*
X190373000Y-69953000D01*
X186174000Y-69913000D02*
X187280000Y-69913000D01*
X189240000Y-69913000D02*
X190346000Y-69913000D01*
X186202000Y-69873000D02*
X187280000Y-69873000D01*
X189240000Y-69873000D02*
X190318000Y-69873000D01*
X186232000Y-69833000D02*
X187280000Y-69833000D01*
X189240000Y-69833000D02*
X190288000Y-69833000D01*
X186263000Y-69793000D02*
X187280000Y-69793000D01*
X189240000Y-69793000D02*
X190257000Y-69793000D01*
X186295000Y-69753000D02*
X187280000Y-69753000D01*
X189240000Y-69753000D02*
X190225000Y-69753000D01*
X186328000Y-69713000D02*
X187280000Y-69713000D01*
X189240000Y-69713000D02*
X190192000Y-69713000D01*
X186363000Y-69673000D02*
X187280000Y-69673000D01*
X189240000Y-69673000D02*
X190157000Y-69673000D01*
X186399000Y-69633000D02*
X187280000Y-69633000D01*
X189240000Y-69633000D02*
X190121000Y-69633000D01*
X186437000Y-69593000D02*
X187280000Y-69593000D01*
X189240000Y-69593000D02*
X190083000Y-69593000D01*
X186477000Y-69553000D02*
X187280000Y-69553000D01*
X189240000Y-69553000D02*
X190043000Y-69553000D01*
X186518000Y-69513000D02*
X187280000Y-69513000D01*
X189240000Y-69513000D02*
X190002000Y-69513000D01*
X186561000Y-69473000D02*
X187280000Y-69473000D01*
X189240000Y-69473000D02*
X189959000Y-69473000D01*
X186606000Y-69433000D02*
X187280000Y-69433000D01*
X189240000Y-69433000D02*
X189914000Y-69433000D01*
X186654000Y-69393000D02*
X187280000Y-69393000D01*
X189240000Y-69393000D02*
X189866000Y-69393000D01*
X186704000Y-69353000D02*
X187280000Y-69353000D01*
X189240000Y-69353000D02*
X189816000Y-69353000D01*
X186756000Y-69313000D02*
X187280000Y-69313000D01*
X189240000Y-69313000D02*
X189764000Y-69313000D01*
X186812000Y-69273000D02*
X187280000Y-69273000D01*
X189240000Y-69273000D02*
X189708000Y-69273000D01*
X186870000Y-69233000D02*
X187280000Y-69233000D01*
X189240000Y-69233000D02*
X189650000Y-69233000D01*
X186933000Y-69193000D02*
X187280000Y-69193000D01*
X189240000Y-69193000D02*
X189587000Y-69193000D01*
X186999000Y-69153000D02*
X189521000Y-69153000D01*
X187071000Y-69113000D02*
X189449000Y-69113000D01*
X187148000Y-69073000D02*
X189372000Y-69073000D01*
X187232000Y-69033000D02*
X189288000Y-69033000D01*
X187326000Y-68993000D02*
X189194000Y-68993000D01*
X187431000Y-68953000D02*
X189089000Y-68953000D01*
X187553000Y-68913000D02*
X188967000Y-68913000D01*
X187701000Y-68873000D02*
X188819000Y-68873000D01*
X187906000Y-68833000D02*
X188614000Y-68833000D01*
X188260000Y-74844000D02*
X188260000Y-73644000D01*
X187610000Y-74244000D02*
X188910000Y-74244000D01*
X153170000Y-120224000D02*
X153170000Y-117564000D01*
X148030000Y-120224000D02*
X153170000Y-120224000D01*
X148030000Y-117564000D02*
X153170000Y-117564000D01*
X148030000Y-120224000D02*
X148030000Y-117564000D01*
X146760000Y-120224000D02*
X145430000Y-120224000D01*
X145430000Y-120224000D02*
X145430000Y-118894000D01*
X169390000Y-117564000D02*
X169390000Y-120224000D01*
X171990000Y-117564000D02*
X169390000Y-117564000D01*
X171990000Y-120224000D02*
X169390000Y-120224000D01*
X171990000Y-117564000D02*
X171990000Y-120224000D01*
X173260000Y-117564000D02*
X174590000Y-117564000D01*
X174590000Y-117564000D02*
X174590000Y-118894000D01*
X176440000Y-140074000D02*
X179100000Y-140074000D01*
X176440000Y-119694000D02*
X176440000Y-140074000D01*
X179100000Y-119694000D02*
X179100000Y-140074000D01*
X176440000Y-119694000D02*
X179100000Y-119694000D01*
X176440000Y-118424000D02*
X176440000Y-117094000D01*
X176440000Y-117094000D02*
X177770000Y-117094000D01*
X181520000Y-140074000D02*
X184180000Y-140074000D01*
X181520000Y-119694000D02*
X181520000Y-140074000D01*
X184180000Y-119694000D02*
X184180000Y-140074000D01*
X181520000Y-119694000D02*
X184180000Y-119694000D01*
X181520000Y-118424000D02*
X181520000Y-117094000D01*
X181520000Y-117094000D02*
X182850000Y-117094000D01*
X186600000Y-140074000D02*
X189260000Y-140074000D01*
X186600000Y-119694000D02*
X186600000Y-140074000D01*
X189260000Y-119694000D02*
X189260000Y-140074000D01*
X186600000Y-119694000D02*
X189260000Y-119694000D01*
X186600000Y-118424000D02*
X186600000Y-117094000D01*
X186600000Y-117094000D02*
X187930000Y-117094000D01*
X131990000Y-140074000D02*
X134650000Y-140074000D01*
X131990000Y-119694000D02*
X131990000Y-140074000D01*
X134650000Y-119694000D02*
X134650000Y-140074000D01*
X131990000Y-119694000D02*
X134650000Y-119694000D01*
X131990000Y-118424000D02*
X131990000Y-117094000D01*
X131990000Y-117094000D02*
X133320000Y-117094000D01*
X137070000Y-140074000D02*
X139730000Y-140074000D01*
X137070000Y-119694000D02*
X137070000Y-140074000D01*
X139730000Y-119694000D02*
X139730000Y-140074000D01*
X137070000Y-119694000D02*
X139730000Y-119694000D01*
X137070000Y-118424000D02*
X137070000Y-117094000D01*
X137070000Y-117094000D02*
X138400000Y-117094000D01*
X134530000Y-52324000D02*
X134530000Y-54984000D01*
X154910000Y-52324000D02*
X134530000Y-52324000D01*
X154910000Y-54984000D02*
X134530000Y-54984000D01*
X154910000Y-52324000D02*
X154910000Y-54984000D01*
X156180000Y-52324000D02*
X157510000Y-52324000D01*
X157510000Y-52324000D02*
X157510000Y-53654000D01*
D12*
X136010000Y-71444000D02*
X152260000Y-71194000D01*
X136010000Y-71944000D02*
X152510000Y-71194000D01*
X136010000Y-71194000D02*
X152510000Y-71194000D01*
X152510000Y-71194000D02*
X136010000Y-72194000D01*
X136010000Y-72194000D02*
X136010000Y-71194000D01*
X136010000Y-71194000D02*
X136010000Y-71694000D01*
X136010000Y-71694000D02*
X152510000Y-71194000D01*
X142248095Y-89846381D02*
X142248095Y-90655905D01*
X142295714Y-90751143D01*
X142343333Y-90798762D01*
X142438571Y-90846381D01*
X142629048Y-90846381D01*
X142724286Y-90798762D01*
X142771905Y-90751143D01*
X142819524Y-90655905D01*
X142819524Y-89846381D01*
X143819524Y-90846381D02*
X143248095Y-90846381D01*
X143533809Y-90846381D02*
X143533809Y-89846381D01*
X143438571Y-89989238D01*
X143343333Y-90084476D01*
X143248095Y-90132095D01*
X187914762Y-86191619D02*
X187819524Y-86144000D01*
X187724286Y-86048762D01*
X187581429Y-85905905D01*
X187486190Y-85858286D01*
X187390952Y-85858286D01*
X187438571Y-86096381D02*
X187343333Y-86048762D01*
X187248095Y-85953524D01*
X187200476Y-85763048D01*
X187200476Y-85429714D01*
X187248095Y-85239238D01*
X187343333Y-85144000D01*
X187438571Y-85096381D01*
X187629048Y-85096381D01*
X187724286Y-85144000D01*
X187819524Y-85239238D01*
X187867143Y-85429714D01*
X187867143Y-85763048D01*
X187819524Y-85953524D01*
X187724286Y-86048762D01*
X187629048Y-86096381D01*
X187438571Y-86096381D01*
X188819524Y-86096381D02*
X188248095Y-86096381D01*
X188533809Y-86096381D02*
X188533809Y-85096381D01*
X188438571Y-85239238D01*
X188343333Y-85334476D01*
X188248095Y-85382095D01*
X142974286Y-122822571D02*
X143117143Y-122870190D01*
X143164762Y-122917810D01*
X143212381Y-123013048D01*
X143212381Y-123155905D01*
X143164762Y-123251143D01*
X143117143Y-123298762D01*
X143021905Y-123346381D01*
X142640952Y-123346381D01*
X142640952Y-122346381D01*
X142974286Y-122346381D01*
X143069524Y-122394000D01*
X143117143Y-122441619D01*
X143164762Y-122536857D01*
X143164762Y-122632095D01*
X143117143Y-122727333D01*
X143069524Y-122774952D01*
X142974286Y-122822571D01*
X142640952Y-122822571D01*
X143498095Y-122346381D02*
X144069524Y-122346381D01*
X143783809Y-123346381D02*
X143783809Y-122346381D01*
X144926667Y-123346381D02*
X144355238Y-123346381D01*
X144640952Y-123346381D02*
X144640952Y-122346381D01*
X144545714Y-122489238D01*
X144450476Y-122584476D01*
X144355238Y-122632095D01*
X143571334Y-139993143D02*
X143523715Y-140040762D01*
X143380858Y-140088381D01*
X143285620Y-140088381D01*
X143142762Y-140040762D01*
X143047524Y-139945524D01*
X142999905Y-139850286D01*
X142952286Y-139659810D01*
X142952286Y-139516952D01*
X142999905Y-139326476D01*
X143047524Y-139231238D01*
X143142762Y-139136000D01*
X143285620Y-139088381D01*
X143380858Y-139088381D01*
X143523715Y-139136000D01*
X143571334Y-139183619D01*
X143952286Y-139183619D02*
X143999905Y-139136000D01*
X144095143Y-139088381D01*
X144333239Y-139088381D01*
X144428477Y-139136000D01*
X144476096Y-139183619D01*
X144523715Y-139278857D01*
X144523715Y-139374095D01*
X144476096Y-139516952D01*
X143904667Y-140088381D01*
X144523715Y-140088381D01*
X141367143Y-131310666D02*
X141414762Y-131358285D01*
X141462381Y-131501142D01*
X141462381Y-131596380D01*
X141414762Y-131739238D01*
X141319524Y-131834476D01*
X141224286Y-131882095D01*
X141033810Y-131929714D01*
X140890952Y-131929714D01*
X140700476Y-131882095D01*
X140605238Y-131834476D01*
X140510000Y-131739238D01*
X140462381Y-131596380D01*
X140462381Y-131501142D01*
X140510000Y-131358285D01*
X140557619Y-131310666D01*
X140462381Y-130977333D02*
X140462381Y-130358285D01*
X140843333Y-130691619D01*
X140843333Y-130548761D01*
X140890952Y-130453523D01*
X140938571Y-130405904D01*
X141033810Y-130358285D01*
X141271905Y-130358285D01*
X141367143Y-130405904D01*
X141414762Y-130453523D01*
X141462381Y-130548761D01*
X141462381Y-130834476D01*
X141414762Y-130929714D01*
X141367143Y-130977333D01*
X138367143Y-91810666D02*
X138414762Y-91858285D01*
X138462381Y-92001142D01*
X138462381Y-92096380D01*
X138414762Y-92239238D01*
X138319524Y-92334476D01*
X138224286Y-92382095D01*
X138033810Y-92429714D01*
X137890952Y-92429714D01*
X137700476Y-92382095D01*
X137605238Y-92334476D01*
X137510000Y-92239238D01*
X137462381Y-92096380D01*
X137462381Y-92001142D01*
X137510000Y-91858285D01*
X137557619Y-91810666D01*
X137795714Y-90953523D02*
X138462381Y-90953523D01*
X137414762Y-91191619D02*
X138129048Y-91429714D01*
X138129048Y-90810666D01*
X167367143Y-77810666D02*
X167414762Y-77858285D01*
X167462381Y-78001142D01*
X167462381Y-78096380D01*
X167414762Y-78239238D01*
X167319524Y-78334476D01*
X167224286Y-78382095D01*
X167033810Y-78429714D01*
X166890952Y-78429714D01*
X166700476Y-78382095D01*
X166605238Y-78334476D01*
X166510000Y-78239238D01*
X166462381Y-78096380D01*
X166462381Y-78001142D01*
X166510000Y-77858285D01*
X166557619Y-77810666D01*
X166462381Y-76905904D02*
X166462381Y-77382095D01*
X166938571Y-77429714D01*
X166890952Y-77382095D01*
X166843333Y-77286857D01*
X166843333Y-77048761D01*
X166890952Y-76953523D01*
X166938571Y-76905904D01*
X167033810Y-76858285D01*
X167271905Y-76858285D01*
X167367143Y-76905904D01*
X167414762Y-76953523D01*
X167462381Y-77048761D01*
X167462381Y-77286857D01*
X167414762Y-77382095D01*
X167367143Y-77429714D01*
X177117143Y-90810666D02*
X177164762Y-90858285D01*
X177212381Y-91001142D01*
X177212381Y-91096380D01*
X177164762Y-91239238D01*
X177069524Y-91334476D01*
X176974286Y-91382095D01*
X176783810Y-91429714D01*
X176640952Y-91429714D01*
X176450476Y-91382095D01*
X176355238Y-91334476D01*
X176260000Y-91239238D01*
X176212381Y-91096380D01*
X176212381Y-91001142D01*
X176260000Y-90858285D01*
X176307619Y-90810666D01*
X176212381Y-89953523D02*
X176212381Y-90144000D01*
X176260000Y-90239238D01*
X176307619Y-90286857D01*
X176450476Y-90382095D01*
X176640952Y-90429714D01*
X177021905Y-90429714D01*
X177117143Y-90382095D01*
X177164762Y-90334476D01*
X177212381Y-90239238D01*
X177212381Y-90048761D01*
X177164762Y-89953523D01*
X177117143Y-89905904D01*
X177021905Y-89858285D01*
X176783810Y-89858285D01*
X176688571Y-89905904D01*
X176640952Y-89953523D01*
X176593333Y-90048761D01*
X176593333Y-90239238D01*
X176640952Y-90334476D01*
X176688571Y-90382095D01*
X176783810Y-90429714D01*
X184117143Y-90810666D02*
X184164762Y-90858285D01*
X184212381Y-91001142D01*
X184212381Y-91096380D01*
X184164762Y-91239238D01*
X184069524Y-91334476D01*
X183974286Y-91382095D01*
X183783810Y-91429714D01*
X183640952Y-91429714D01*
X183450476Y-91382095D01*
X183355238Y-91334476D01*
X183260000Y-91239238D01*
X183212381Y-91096380D01*
X183212381Y-91001142D01*
X183260000Y-90858285D01*
X183307619Y-90810666D01*
X183212381Y-90477333D02*
X183212381Y-89810666D01*
X184212381Y-90239238D01*
X158212381Y-67132095D02*
X157212381Y-67132095D01*
X157212381Y-66894000D01*
X157260000Y-66751142D01*
X157355238Y-66655904D01*
X157450476Y-66608285D01*
X157640952Y-66560666D01*
X157783810Y-66560666D01*
X157974286Y-66608285D01*
X158069524Y-66655904D01*
X158164762Y-66751142D01*
X158212381Y-66894000D01*
X158212381Y-67132095D01*
X158212381Y-65608285D02*
X158212381Y-66179714D01*
X158212381Y-65894000D02*
X157212381Y-65894000D01*
X157355238Y-65989238D01*
X157450476Y-66084476D01*
X157498095Y-66179714D01*
X166962381Y-80632095D02*
X165962381Y-80632095D01*
X165962381Y-80394000D01*
X166010000Y-80251142D01*
X166105238Y-80155904D01*
X166200476Y-80108285D01*
X166390952Y-80060666D01*
X166533810Y-80060666D01*
X166724286Y-80108285D01*
X166819524Y-80155904D01*
X166914762Y-80251142D01*
X166962381Y-80394000D01*
X166962381Y-80632095D01*
X165962381Y-79155904D02*
X165962381Y-79632095D01*
X166438571Y-79679714D01*
X166390952Y-79632095D01*
X166343333Y-79536857D01*
X166343333Y-79298761D01*
X166390952Y-79203523D01*
X166438571Y-79155904D01*
X166533810Y-79108285D01*
X166771905Y-79108285D01*
X166867143Y-79155904D01*
X166914762Y-79203523D01*
X166962381Y-79298761D01*
X166962381Y-79536857D01*
X166914762Y-79632095D01*
X166867143Y-79679714D01*
X156462381Y-80882095D02*
X155462381Y-80882095D01*
X155462381Y-80644000D01*
X155510000Y-80501142D01*
X155605238Y-80405904D01*
X155700476Y-80358285D01*
X155890952Y-80310666D01*
X156033810Y-80310666D01*
X156224286Y-80358285D01*
X156319524Y-80405904D01*
X156414762Y-80501142D01*
X156462381Y-80644000D01*
X156462381Y-80882095D01*
X155462381Y-79453523D02*
X155462381Y-79644000D01*
X155510000Y-79739238D01*
X155557619Y-79786857D01*
X155700476Y-79882095D01*
X155890952Y-79929714D01*
X156271905Y-79929714D01*
X156367143Y-79882095D01*
X156414762Y-79834476D01*
X156462381Y-79739238D01*
X156462381Y-79548761D01*
X156414762Y-79453523D01*
X156367143Y-79405904D01*
X156271905Y-79358285D01*
X156033810Y-79358285D01*
X155938571Y-79405904D01*
X155890952Y-79453523D01*
X155843333Y-79548761D01*
X155843333Y-79739238D01*
X155890952Y-79834476D01*
X155938571Y-79882095D01*
X156033810Y-79929714D01*
X157926667Y-52346381D02*
X157926667Y-53060667D01*
X157879047Y-53203524D01*
X157783809Y-53298762D01*
X157640952Y-53346381D01*
X157545714Y-53346381D01*
X158926667Y-53346381D02*
X158355238Y-53346381D01*
X158640952Y-53346381D02*
X158640952Y-52346381D01*
X158545714Y-52489238D01*
X158450476Y-52584476D01*
X158355238Y-52632095D01*
X136831429Y-83274952D02*
X136831429Y-82513047D01*
X136379048Y-85465429D02*
X137140953Y-85465429D01*
X136760001Y-85846381D02*
X136760001Y-85084476D01*
X136212381Y-81227334D02*
X136212381Y-81036857D01*
X136260000Y-80941619D01*
X136355238Y-80846381D01*
X136545714Y-80798762D01*
X136879048Y-80798762D01*
X137069524Y-80846381D01*
X137164762Y-80941619D01*
X137212381Y-81036857D01*
X137212381Y-81227334D01*
X137164762Y-81322572D01*
X137069524Y-81417810D01*
X136879048Y-81465429D01*
X136545714Y-81465429D01*
X136355238Y-81417810D01*
X136260000Y-81322572D01*
X136212381Y-81227334D01*
X136545714Y-79941619D02*
X137212381Y-79941619D01*
X136545714Y-80370191D02*
X137069524Y-80370191D01*
X137164762Y-80322572D01*
X137212381Y-80227334D01*
X137212381Y-80084476D01*
X137164762Y-79989238D01*
X137117143Y-79941619D01*
X136545714Y-79608286D02*
X136545714Y-79227334D01*
X136212381Y-79465429D02*
X137069524Y-79465429D01*
X137164762Y-79417810D01*
X137212381Y-79322572D01*
X137212381Y-79227334D01*
X162212381Y-105060666D02*
X161736190Y-105394000D01*
X162212381Y-105632095D02*
X161212381Y-105632095D01*
X161212381Y-105251142D01*
X161260000Y-105155904D01*
X161307619Y-105108285D01*
X161402857Y-105060666D01*
X161545714Y-105060666D01*
X161640952Y-105108285D01*
X161688571Y-105155904D01*
X161736190Y-105251142D01*
X161736190Y-105632095D01*
X162212381Y-104108285D02*
X162212381Y-104679714D01*
X162212381Y-104394000D02*
X161212381Y-104394000D01*
X161355238Y-104489238D01*
X161450476Y-104584476D01*
X161498095Y-104679714D01*
X147962381Y-129810666D02*
X147486190Y-130144000D01*
X147962381Y-130382095D02*
X146962381Y-130382095D01*
X146962381Y-130001142D01*
X147010000Y-129905904D01*
X147057619Y-129858285D01*
X147152857Y-129810666D01*
X147295714Y-129810666D01*
X147390952Y-129858285D01*
X147438571Y-129905904D01*
X147486190Y-130001142D01*
X147486190Y-130382095D01*
X147057619Y-129429714D02*
X147010000Y-129382095D01*
X146962381Y-129286857D01*
X146962381Y-129048761D01*
X147010000Y-128953523D01*
X147057619Y-128905904D01*
X147152857Y-128858285D01*
X147248095Y-128858285D01*
X147390952Y-128905904D01*
X147962381Y-129477333D01*
X147962381Y-128858285D01*
X152962381Y-81310666D02*
X152486190Y-81644000D01*
X152962381Y-81882095D02*
X151962381Y-81882095D01*
X151962381Y-81501142D01*
X152010000Y-81405904D01*
X152057619Y-81358285D01*
X152152857Y-81310666D01*
X152295714Y-81310666D01*
X152390952Y-81358285D01*
X152438571Y-81405904D01*
X152486190Y-81501142D01*
X152486190Y-81882095D01*
X151962381Y-80977333D02*
X151962381Y-80358285D01*
X152343333Y-80691619D01*
X152343333Y-80548761D01*
X152390952Y-80453523D01*
X152438571Y-80405904D01*
X152533810Y-80358285D01*
X152771905Y-80358285D01*
X152867143Y-80405904D01*
X152914762Y-80453523D01*
X152962381Y-80548761D01*
X152962381Y-80834476D01*
X152914762Y-80929714D01*
X152867143Y-80977333D01*
X149462381Y-81310666D02*
X148986190Y-81644000D01*
X149462381Y-81882095D02*
X148462381Y-81882095D01*
X148462381Y-81501142D01*
X148510000Y-81405904D01*
X148557619Y-81358285D01*
X148652857Y-81310666D01*
X148795714Y-81310666D01*
X148890952Y-81358285D01*
X148938571Y-81405904D01*
X148986190Y-81501142D01*
X148986190Y-81882095D01*
X148795714Y-80453523D02*
X149462381Y-80453523D01*
X148414762Y-80691619D02*
X149129048Y-80929714D01*
X149129048Y-80310666D01*
X145343334Y-91596381D02*
X145010000Y-91120190D01*
X144771905Y-91596381D02*
X144771905Y-90596381D01*
X145152858Y-90596381D01*
X145248096Y-90644000D01*
X145295715Y-90691619D01*
X145343334Y-90786857D01*
X145343334Y-90929714D01*
X145295715Y-91024952D01*
X145248096Y-91072571D01*
X145152858Y-91120190D01*
X144771905Y-91120190D01*
X146248096Y-90596381D02*
X145771905Y-90596381D01*
X145724286Y-91072571D01*
X145771905Y-91024952D01*
X145867143Y-90977333D01*
X146105239Y-90977333D01*
X146200477Y-91024952D01*
X146248096Y-91072571D01*
X146295715Y-91167810D01*
X146295715Y-91405905D01*
X146248096Y-91501143D01*
X146200477Y-91548762D01*
X146105239Y-91596381D01*
X145867143Y-91596381D01*
X145771905Y-91548762D01*
X145724286Y-91501143D01*
X152843334Y-75846381D02*
X152510000Y-75370190D01*
X152271905Y-75846381D02*
X152271905Y-74846381D01*
X152652858Y-74846381D01*
X152748096Y-74894000D01*
X152795715Y-74941619D01*
X152843334Y-75036857D01*
X152843334Y-75179714D01*
X152795715Y-75274952D01*
X152748096Y-75322571D01*
X152652858Y-75370190D01*
X152271905Y-75370190D01*
X153700477Y-74846381D02*
X153510000Y-74846381D01*
X153414762Y-74894000D01*
X153367143Y-74941619D01*
X153271905Y-75084476D01*
X153224286Y-75274952D01*
X153224286Y-75655905D01*
X153271905Y-75751143D01*
X153319524Y-75798762D01*
X153414762Y-75846381D01*
X153605239Y-75846381D01*
X153700477Y-75798762D01*
X153748096Y-75751143D01*
X153795715Y-75655905D01*
X153795715Y-75417810D01*
X153748096Y-75322571D01*
X153700477Y-75274952D01*
X153605239Y-75227333D01*
X153414762Y-75227333D01*
X153319524Y-75274952D01*
X153271905Y-75322571D01*
X153224286Y-75417810D01*
X169212381Y-90060666D02*
X168736190Y-90394000D01*
X169212381Y-90632095D02*
X168212381Y-90632095D01*
X168212381Y-90251142D01*
X168260000Y-90155904D01*
X168307619Y-90108285D01*
X168402857Y-90060666D01*
X168545714Y-90060666D01*
X168640952Y-90108285D01*
X168688571Y-90155904D01*
X168736190Y-90251142D01*
X168736190Y-90632095D01*
X168212381Y-89727333D02*
X168212381Y-89060666D01*
X169212381Y-89489238D01*
X183593334Y-86596381D02*
X183260000Y-86120190D01*
X183021905Y-86596381D02*
X183021905Y-85596381D01*
X183402858Y-85596381D01*
X183498096Y-85644000D01*
X183545715Y-85691619D01*
X183593334Y-85786857D01*
X183593334Y-85929714D01*
X183545715Y-86024952D01*
X183498096Y-86072571D01*
X183402858Y-86120190D01*
X183021905Y-86120190D01*
X184164762Y-86024952D02*
X184069524Y-85977333D01*
X184021905Y-85929714D01*
X183974286Y-85834476D01*
X183974286Y-85786857D01*
X184021905Y-85691619D01*
X184069524Y-85644000D01*
X184164762Y-85596381D01*
X184355239Y-85596381D01*
X184450477Y-85644000D01*
X184498096Y-85691619D01*
X184545715Y-85786857D01*
X184545715Y-85834476D01*
X184498096Y-85929714D01*
X184450477Y-85977333D01*
X184355239Y-86024952D01*
X184164762Y-86024952D01*
X184069524Y-86072571D01*
X184021905Y-86120190D01*
X183974286Y-86215429D01*
X183974286Y-86405905D01*
X184021905Y-86501143D01*
X184069524Y-86548762D01*
X184164762Y-86596381D01*
X184355239Y-86596381D01*
X184450477Y-86548762D01*
X184498096Y-86501143D01*
X184545715Y-86405905D01*
X184545715Y-86215429D01*
X184498096Y-86120190D01*
X184450477Y-86072571D01*
X184355239Y-86024952D01*
X183593334Y-79596381D02*
X183260000Y-79120190D01*
X183021905Y-79596381D02*
X183021905Y-78596381D01*
X183402858Y-78596381D01*
X183498096Y-78644000D01*
X183545715Y-78691619D01*
X183593334Y-78786857D01*
X183593334Y-78929714D01*
X183545715Y-79024952D01*
X183498096Y-79072571D01*
X183402858Y-79120190D01*
X183021905Y-79120190D01*
X184069524Y-79596381D02*
X184260000Y-79596381D01*
X184355239Y-79548762D01*
X184402858Y-79501143D01*
X184498096Y-79358286D01*
X184545715Y-79167810D01*
X184545715Y-78786857D01*
X184498096Y-78691619D01*
X184450477Y-78644000D01*
X184355239Y-78596381D01*
X184164762Y-78596381D01*
X184069524Y-78644000D01*
X184021905Y-78691619D01*
X183974286Y-78786857D01*
X183974286Y-79024952D01*
X184021905Y-79120190D01*
X184069524Y-79167810D01*
X184164762Y-79215429D01*
X184355239Y-79215429D01*
X184450477Y-79167810D01*
X184498096Y-79120190D01*
X184545715Y-79024952D01*
X167914762Y-88227333D02*
X167962381Y-88084476D01*
X167962381Y-87846380D01*
X167914762Y-87751142D01*
X167867143Y-87703523D01*
X167771905Y-87655904D01*
X167676667Y-87655904D01*
X167581429Y-87703523D01*
X167533810Y-87751142D01*
X167486190Y-87846380D01*
X167438571Y-88036857D01*
X167390952Y-88132095D01*
X167343333Y-88179714D01*
X167248095Y-88227333D01*
X167152857Y-88227333D01*
X167057619Y-88179714D01*
X167010000Y-88132095D01*
X166962381Y-88036857D01*
X166962381Y-87798761D01*
X167010000Y-87655904D01*
X166962381Y-87322571D02*
X167962381Y-87084476D01*
X167248095Y-86893999D01*
X167962381Y-86703523D01*
X166962381Y-86465428D01*
X167057619Y-86132095D02*
X167010000Y-86084476D01*
X166962381Y-85989238D01*
X166962381Y-85751142D01*
X167010000Y-85655904D01*
X167057619Y-85608285D01*
X167152857Y-85560666D01*
X167248095Y-85560666D01*
X167390952Y-85608285D01*
X167962381Y-86179714D01*
X167962381Y-85560666D01*
X163462381Y-92882095D02*
X162462381Y-92882095D01*
X162462381Y-92644000D01*
X162510000Y-92501142D01*
X162605238Y-92405904D01*
X162700476Y-92358285D01*
X162890952Y-92310666D01*
X163033810Y-92310666D01*
X163224286Y-92358285D01*
X163319524Y-92405904D01*
X163414762Y-92501142D01*
X163462381Y-92644000D01*
X163462381Y-92882095D01*
X162462381Y-91977333D02*
X162462381Y-91358285D01*
X162843333Y-91691619D01*
X162843333Y-91548761D01*
X162890952Y-91453523D01*
X162938571Y-91405904D01*
X163033810Y-91358285D01*
X163271905Y-91358285D01*
X163367143Y-91405904D01*
X163414762Y-91453523D01*
X163462381Y-91548761D01*
X163462381Y-91834476D01*
X163414762Y-91929714D01*
X163367143Y-91977333D01*
X156462381Y-92882095D02*
X155462381Y-92882095D01*
X155462381Y-92644000D01*
X155510000Y-92501142D01*
X155605238Y-92405904D01*
X155700476Y-92358285D01*
X155890952Y-92310666D01*
X156033810Y-92310666D01*
X156224286Y-92358285D01*
X156319524Y-92405904D01*
X156414762Y-92501142D01*
X156462381Y-92644000D01*
X156462381Y-92882095D01*
X155795714Y-91453523D02*
X156462381Y-91453523D01*
X155414762Y-91691619D02*
X156129048Y-91929714D01*
X156129048Y-91310666D01*
X163343334Y-66501143D02*
X163295715Y-66548762D01*
X163152858Y-66596381D01*
X163057620Y-66596381D01*
X162914762Y-66548762D01*
X162819524Y-66453524D01*
X162771905Y-66358286D01*
X162724286Y-66167810D01*
X162724286Y-66024952D01*
X162771905Y-65834476D01*
X162819524Y-65739238D01*
X162914762Y-65644000D01*
X163057620Y-65596381D01*
X163152858Y-65596381D01*
X163295715Y-65644000D01*
X163343334Y-65691619D01*
X164295715Y-66596381D02*
X163724286Y-66596381D01*
X164010000Y-66596381D02*
X164010000Y-65596381D01*
X163914762Y-65739238D01*
X163819524Y-65834476D01*
X163724286Y-65882095D01*
X188617143Y-67810666D02*
X188664762Y-67858285D01*
X188712381Y-68001142D01*
X188712381Y-68096380D01*
X188664762Y-68239238D01*
X188569524Y-68334476D01*
X188474286Y-68382095D01*
X188283810Y-68429714D01*
X188140952Y-68429714D01*
X187950476Y-68382095D01*
X187855238Y-68334476D01*
X187760000Y-68239238D01*
X187712381Y-68096380D01*
X187712381Y-68001142D01*
X187760000Y-67858285D01*
X187807619Y-67810666D01*
X188140952Y-67239238D02*
X188093333Y-67334476D01*
X188045714Y-67382095D01*
X187950476Y-67429714D01*
X187902857Y-67429714D01*
X187807619Y-67382095D01*
X187760000Y-67334476D01*
X187712381Y-67239238D01*
X187712381Y-67048761D01*
X187760000Y-66953523D01*
X187807619Y-66905904D01*
X187902857Y-66858285D01*
X187950476Y-66858285D01*
X188045714Y-66905904D01*
X188093333Y-66953523D01*
X188140952Y-67048761D01*
X188140952Y-67239238D01*
X188188571Y-67334476D01*
X188236190Y-67382095D01*
X188331429Y-67429714D01*
X188521905Y-67429714D01*
X188617143Y-67382095D01*
X188664762Y-67334476D01*
X188712381Y-67239238D01*
X188712381Y-67048761D01*
X188664762Y-66953523D01*
X188617143Y-66905904D01*
X188521905Y-66858285D01*
X188331429Y-66858285D01*
X188236190Y-66905904D01*
X188188571Y-66953523D01*
X188140952Y-67048761D01*
X143676667Y-118596381D02*
X143676667Y-119310667D01*
X143629047Y-119453524D01*
X143533809Y-119548762D01*
X143390952Y-119596381D01*
X143295714Y-119596381D01*
X144105238Y-118691619D02*
X144152857Y-118644000D01*
X144248095Y-118596381D01*
X144486191Y-118596381D01*
X144581429Y-118644000D01*
X144629048Y-118691619D01*
X144676667Y-118786857D01*
X144676667Y-118882095D01*
X144629048Y-119024952D01*
X144057619Y-119596381D01*
X144676667Y-119596381D01*
X167926667Y-118346381D02*
X167926667Y-119060667D01*
X167879047Y-119203524D01*
X167783809Y-119298762D01*
X167640952Y-119346381D01*
X167545714Y-119346381D01*
X168831429Y-118346381D02*
X168640952Y-118346381D01*
X168545714Y-118394000D01*
X168498095Y-118441619D01*
X168402857Y-118584476D01*
X168355238Y-118774952D01*
X168355238Y-119155905D01*
X168402857Y-119251143D01*
X168450476Y-119298762D01*
X168545714Y-119346381D01*
X168736191Y-119346381D01*
X168831429Y-119298762D01*
X168879048Y-119251143D01*
X168926667Y-119155905D01*
X168926667Y-118917810D01*
X168879048Y-118822571D01*
X168831429Y-118774952D01*
X168736191Y-118727333D01*
X168545714Y-118727333D01*
X168450476Y-118774952D01*
X168402857Y-118822571D01*
X168355238Y-118917810D01*
D15*
X137679643Y-68979714D02*
X138090357Y-69122571D01*
X138215356Y-69265429D01*
X138322499Y-69551143D01*
X138268928Y-69979714D01*
X138090356Y-70265429D01*
X137929642Y-70408286D01*
X137626071Y-70551143D01*
X136483214Y-70551143D01*
X136858214Y-67551143D01*
X137858214Y-67551143D01*
X138126071Y-67694000D01*
X138251071Y-67836857D01*
X138358214Y-68122571D01*
X138322499Y-68408286D01*
X138143928Y-68694000D01*
X137983214Y-68836857D01*
X137679643Y-68979714D01*
X136679643Y-68979714D01*
X139483214Y-70551143D02*
X139733214Y-68551143D01*
X139858214Y-67551143D02*
X139697500Y-67694000D01*
X139822500Y-67836857D01*
X139983214Y-67694000D01*
X139858214Y-67551143D01*
X139822500Y-67836857D01*
X141340356Y-70551143D02*
X141072499Y-70408286D01*
X140965357Y-70122571D01*
X141286785Y-67551143D01*
X142911785Y-70551143D02*
X142643928Y-70408286D01*
X142536786Y-70122571D01*
X142858214Y-67551143D01*
X143876071Y-68551143D02*
X145018928Y-68551143D01*
X144429643Y-67551143D02*
X144108215Y-70122571D01*
X144215357Y-70408286D01*
X144483214Y-70551143D01*
X144768928Y-70551143D01*
X146929643Y-70408286D02*
X146626072Y-70551143D01*
X146054643Y-70551143D01*
X145786786Y-70408286D01*
X145679644Y-70122571D01*
X145822501Y-68979714D01*
X146001072Y-68694000D01*
X146304643Y-68551143D01*
X146876072Y-68551143D01*
X147143929Y-68694000D01*
X147251072Y-68979714D01*
X147215357Y-69265429D01*
X145751072Y-69551143D01*
X149643929Y-70408286D02*
X149340358Y-70551143D01*
X148768929Y-70551143D01*
X148501072Y-70408286D01*
X148376072Y-70265429D01*
X148268930Y-69979714D01*
X148376073Y-69122571D01*
X148554644Y-68836857D01*
X148715358Y-68694000D01*
X149018929Y-68551143D01*
X149590358Y-68551143D01*
X149858215Y-68694000D01*
X150911787Y-70551143D02*
X151286787Y-67551143D01*
X152197501Y-70551143D02*
X152393930Y-68979714D01*
X152286787Y-68694000D01*
X152018930Y-68551143D01*
X151590358Y-68551143D01*
X151286787Y-68694000D01*
X151126073Y-68836857D01*
M02*
