G04 #@! TF.FileFunction,Soldermask,Bot*
%FSLAX46Y46*%
G04 Gerber Fmt 4.6, Leading zero omitted, Abs format (unit mm)*
G04 Created by KiCad (PCBNEW 4.0.7) date 02/09/18 21:40:19*
%MOMM*%
%LPD*%
G01*
G04 APERTURE LIST*
%ADD10C,0.100000*%
%ADD11O,2.432000X2.940000*%
%ADD12R,2.100000X2.100000*%
%ADD13O,2.100000X2.100000*%
%ADD14O,4.400000X3.900000*%
%ADD15R,2.800000X2.000000*%
%ADD16O,2.800000X2.000000*%
%ADD17C,1.920000*%
%ADD18R,1.920000X1.920000*%
%ADD19C,2.000000*%
%ADD20R,2.600000X2.600000*%
%ADD21O,2.600000X2.600000*%
%ADD22R,2.200000X2.200000*%
%ADD23C,2.200000*%
%ADD24O,2.000000X2.000000*%
%ADD25R,2.000000X2.000000*%
G04 APERTURE END LIST*
D10*
D11*
X156260000Y-74644000D03*
X161260000Y-74644000D03*
X166340000Y-74644000D03*
D12*
X189200000Y-63814000D03*
D13*
X186660000Y-63814000D03*
X184120000Y-63814000D03*
X181580000Y-63814000D03*
X179040000Y-63814000D03*
X176500000Y-63814000D03*
X173960000Y-63814000D03*
X171420000Y-63814000D03*
X168880000Y-63814000D03*
D12*
X189200000Y-61274000D03*
D13*
X186660000Y-61274000D03*
X184120000Y-61274000D03*
X181580000Y-61274000D03*
X179040000Y-61274000D03*
X176500000Y-61274000D03*
X173960000Y-61274000D03*
X171420000Y-61274000D03*
X168880000Y-61274000D03*
D12*
X189200000Y-58734000D03*
D13*
X186660000Y-58734000D03*
X184120000Y-58734000D03*
X181580000Y-58734000D03*
X179040000Y-58734000D03*
X176500000Y-58734000D03*
X173960000Y-58734000D03*
X171420000Y-58734000D03*
X168880000Y-58734000D03*
D12*
X189200000Y-56194000D03*
D13*
X186660000Y-56194000D03*
X184120000Y-56194000D03*
X181580000Y-56194000D03*
X179040000Y-56194000D03*
X176500000Y-56194000D03*
X173960000Y-56194000D03*
X171420000Y-56194000D03*
X168880000Y-56194000D03*
D12*
X189200000Y-53654000D03*
D13*
X186660000Y-53654000D03*
X184120000Y-53654000D03*
X181580000Y-53654000D03*
X179040000Y-53654000D03*
X176500000Y-53654000D03*
X173960000Y-53654000D03*
X171420000Y-53654000D03*
X168880000Y-53654000D03*
D12*
X156180000Y-63814000D03*
D13*
X153640000Y-63814000D03*
X151100000Y-63814000D03*
X148560000Y-63814000D03*
X146020000Y-63814000D03*
X143480000Y-63814000D03*
X140940000Y-63814000D03*
X138400000Y-63814000D03*
X135860000Y-63814000D03*
D12*
X156180000Y-61274000D03*
D13*
X153640000Y-61274000D03*
X151100000Y-61274000D03*
X148560000Y-61274000D03*
X146020000Y-61274000D03*
X143480000Y-61274000D03*
X140940000Y-61274000D03*
X138400000Y-61274000D03*
X135860000Y-61274000D03*
D12*
X156180000Y-58734000D03*
D13*
X153640000Y-58734000D03*
X151100000Y-58734000D03*
X148560000Y-58734000D03*
X146020000Y-58734000D03*
X143480000Y-58734000D03*
X140940000Y-58734000D03*
X138400000Y-58734000D03*
X135860000Y-58734000D03*
D12*
X156180000Y-56194000D03*
D13*
X153640000Y-56194000D03*
X151100000Y-56194000D03*
X148560000Y-56194000D03*
X146020000Y-56194000D03*
X143480000Y-56194000D03*
X140940000Y-56194000D03*
X138400000Y-56194000D03*
X135860000Y-56194000D03*
D12*
X135860000Y-118424000D03*
D13*
X135860000Y-120964000D03*
X135860000Y-123504000D03*
X135860000Y-126044000D03*
X135860000Y-128584000D03*
X135860000Y-131124000D03*
X135860000Y-133664000D03*
X135860000Y-136204000D03*
X135860000Y-138744000D03*
D12*
X185390000Y-118424000D03*
D13*
X185390000Y-120964000D03*
X185390000Y-123504000D03*
X185390000Y-126044000D03*
X185390000Y-128584000D03*
X185390000Y-131124000D03*
X185390000Y-133664000D03*
X185390000Y-136204000D03*
X185390000Y-138744000D03*
D12*
X180310000Y-118424000D03*
D13*
X180310000Y-120964000D03*
X180310000Y-123504000D03*
X180310000Y-126044000D03*
X180310000Y-128584000D03*
X180310000Y-131124000D03*
X180310000Y-133664000D03*
X180310000Y-136204000D03*
X180310000Y-138744000D03*
D14*
X166594000Y-136716000D03*
X166594000Y-132144000D03*
X166594000Y-127572000D03*
X161260000Y-127572000D03*
X155926000Y-127572000D03*
X161260000Y-132144000D03*
X155926000Y-132144000D03*
X161260000Y-136716000D03*
X155926000Y-136716000D03*
D15*
X139260000Y-80394000D03*
D16*
X146880000Y-88014000D03*
X139260000Y-82934000D03*
X146880000Y-85474000D03*
X139260000Y-85474000D03*
X146880000Y-82934000D03*
X139260000Y-88014000D03*
X146880000Y-80394000D03*
D17*
X188010000Y-81184000D03*
X188010000Y-83724000D03*
D18*
X188010000Y-78644000D03*
D12*
X146760000Y-122644000D03*
D13*
X149300000Y-122644000D03*
D19*
X141510000Y-137644000D03*
X146510000Y-137644000D03*
X144260000Y-128394000D03*
X144260000Y-133394000D03*
X134760000Y-94144000D03*
X134760000Y-89144000D03*
X170260000Y-75394000D03*
X170260000Y-80394000D03*
X174510000Y-92894000D03*
X174510000Y-87894000D03*
X180260000Y-87894000D03*
X180260000Y-92894000D03*
D20*
X160010000Y-70894000D03*
D21*
X160010000Y-60734000D03*
D22*
X160010000Y-114394000D03*
D23*
X162550000Y-114394000D03*
D22*
X164010000Y-82894000D03*
D23*
X164010000Y-80354000D03*
D22*
X158760000Y-80144000D03*
D23*
X158760000Y-82684000D03*
D12*
X160010000Y-53644000D03*
D13*
X162550000Y-53644000D03*
X165090000Y-53644000D03*
D12*
X134590000Y-82864000D03*
X134590000Y-85404000D03*
X134590000Y-80324000D03*
D19*
X164260000Y-109644000D03*
D24*
X164260000Y-99484000D03*
D19*
X149260000Y-128644000D03*
D24*
X149260000Y-138804000D03*
D19*
X154260000Y-90644000D03*
D24*
X154260000Y-80484000D03*
D19*
X150760000Y-80394000D03*
D24*
X150760000Y-90554000D03*
D19*
X150860000Y-93244000D03*
D24*
X140700000Y-93244000D03*
D19*
X151260000Y-77644000D03*
D24*
X161420000Y-77644000D03*
D19*
X170760000Y-94144000D03*
D24*
X170760000Y-83984000D03*
D19*
X184510000Y-84394000D03*
D24*
X174350000Y-84394000D03*
D19*
X184510000Y-80894000D03*
D24*
X174350000Y-80894000D03*
D12*
X165260000Y-91644000D03*
D13*
X165260000Y-89104000D03*
X165260000Y-86564000D03*
D25*
X161260000Y-92894000D03*
D24*
X161260000Y-85274000D03*
D25*
X157760000Y-85144000D03*
D24*
X157760000Y-92764000D03*
D25*
X163760000Y-69644000D03*
D19*
X166260000Y-69644000D03*
D25*
X188260000Y-72644000D03*
D19*
X188260000Y-70144000D03*
D12*
X146760000Y-118894000D03*
D13*
X149300000Y-118894000D03*
X151840000Y-118894000D03*
D12*
X173260000Y-118894000D03*
D13*
X170720000Y-118894000D03*
D12*
X177770000Y-118424000D03*
D13*
X177770000Y-120964000D03*
X177770000Y-123504000D03*
X177770000Y-126044000D03*
X177770000Y-128584000D03*
X177770000Y-131124000D03*
X177770000Y-133664000D03*
X177770000Y-136204000D03*
X177770000Y-138744000D03*
D12*
X182850000Y-118424000D03*
D13*
X182850000Y-120964000D03*
X182850000Y-123504000D03*
X182850000Y-126044000D03*
X182850000Y-128584000D03*
X182850000Y-131124000D03*
X182850000Y-133664000D03*
X182850000Y-136204000D03*
X182850000Y-138744000D03*
D12*
X187930000Y-118424000D03*
D13*
X187930000Y-120964000D03*
X187930000Y-123504000D03*
X187930000Y-126044000D03*
X187930000Y-128584000D03*
X187930000Y-131124000D03*
X187930000Y-133664000D03*
X187930000Y-136204000D03*
X187930000Y-138744000D03*
D12*
X133320000Y-118424000D03*
D13*
X133320000Y-120964000D03*
X133320000Y-123504000D03*
X133320000Y-126044000D03*
X133320000Y-128584000D03*
X133320000Y-131124000D03*
X133320000Y-133664000D03*
X133320000Y-136204000D03*
X133320000Y-138744000D03*
D12*
X138400000Y-118424000D03*
D13*
X138400000Y-120964000D03*
X138400000Y-123504000D03*
X138400000Y-126044000D03*
X138400000Y-128584000D03*
X138400000Y-131124000D03*
X138400000Y-133664000D03*
X138400000Y-136204000D03*
X138400000Y-138744000D03*
D12*
X156180000Y-53654000D03*
D13*
X153640000Y-53654000D03*
X151100000Y-53654000D03*
X148560000Y-53654000D03*
X146020000Y-53654000D03*
X143480000Y-53654000D03*
X140940000Y-53654000D03*
X138400000Y-53654000D03*
X135860000Y-53654000D03*
D11*
X184260000Y-76644000D03*
X179260000Y-76644000D03*
X174180000Y-76644000D03*
X148260000Y-76644000D03*
X143260000Y-76644000D03*
X138180000Y-76644000D03*
M02*
