G04 #@! TF.FileFunction,Copper,L1,Top,Signal*
%FSLAX46Y46*%
G04 Gerber Fmt 4.6, Leading zero omitted, Abs format (unit mm)*
G04 Created by KiCad (PCBNEW 4.0.7) date 02/03/18 11:58:40*
%MOMM*%
%LPD*%
G01*
G04 APERTURE LIST*
%ADD10C,0.100000*%
%ADD11O,2.032000X2.540000*%
%ADD12R,1.700000X1.700000*%
%ADD13O,1.700000X1.700000*%
%ADD14O,4.000000X3.500000*%
%ADD15R,2.400000X1.600000*%
%ADD16O,2.400000X1.600000*%
%ADD17C,1.520000*%
%ADD18R,1.520000X1.520000*%
%ADD19C,1.600000*%
%ADD20R,2.200000X2.200000*%
%ADD21O,2.200000X2.200000*%
%ADD22R,1.800000X1.800000*%
%ADD23C,1.800000*%
%ADD24O,1.600000X1.600000*%
%ADD25R,1.600000X1.600000*%
%ADD26C,0.600000*%
%ADD27C,1.000000*%
%ADD28C,0.400000*%
%ADD29C,0.750000*%
G04 APERTURE END LIST*
D10*
D11*
X156260000Y-74644000D03*
X161260000Y-74644000D03*
X166340000Y-74644000D03*
D12*
X189200000Y-63814000D03*
D13*
X186660000Y-63814000D03*
X184120000Y-63814000D03*
X181580000Y-63814000D03*
X179040000Y-63814000D03*
X176500000Y-63814000D03*
X173960000Y-63814000D03*
X171420000Y-63814000D03*
X168880000Y-63814000D03*
D12*
X189200000Y-61274000D03*
D13*
X186660000Y-61274000D03*
X184120000Y-61274000D03*
X181580000Y-61274000D03*
X179040000Y-61274000D03*
X176500000Y-61274000D03*
X173960000Y-61274000D03*
X171420000Y-61274000D03*
X168880000Y-61274000D03*
D12*
X189200000Y-58734000D03*
D13*
X186660000Y-58734000D03*
X184120000Y-58734000D03*
X181580000Y-58734000D03*
X179040000Y-58734000D03*
X176500000Y-58734000D03*
X173960000Y-58734000D03*
X171420000Y-58734000D03*
X168880000Y-58734000D03*
D12*
X189200000Y-56194000D03*
D13*
X186660000Y-56194000D03*
X184120000Y-56194000D03*
X181580000Y-56194000D03*
X179040000Y-56194000D03*
X176500000Y-56194000D03*
X173960000Y-56194000D03*
X171420000Y-56194000D03*
X168880000Y-56194000D03*
D12*
X189200000Y-53654000D03*
D13*
X186660000Y-53654000D03*
X184120000Y-53654000D03*
X181580000Y-53654000D03*
X179040000Y-53654000D03*
X176500000Y-53654000D03*
X173960000Y-53654000D03*
X171420000Y-53654000D03*
X168880000Y-53654000D03*
D12*
X156180000Y-63814000D03*
D13*
X153640000Y-63814000D03*
X151100000Y-63814000D03*
X148560000Y-63814000D03*
X146020000Y-63814000D03*
X143480000Y-63814000D03*
X140940000Y-63814000D03*
X138400000Y-63814000D03*
X135860000Y-63814000D03*
D12*
X156180000Y-61274000D03*
D13*
X153640000Y-61274000D03*
X151100000Y-61274000D03*
X148560000Y-61274000D03*
X146020000Y-61274000D03*
X143480000Y-61274000D03*
X140940000Y-61274000D03*
X138400000Y-61274000D03*
X135860000Y-61274000D03*
D12*
X156180000Y-58734000D03*
D13*
X153640000Y-58734000D03*
X151100000Y-58734000D03*
X148560000Y-58734000D03*
X146020000Y-58734000D03*
X143480000Y-58734000D03*
X140940000Y-58734000D03*
X138400000Y-58734000D03*
X135860000Y-58734000D03*
D12*
X156180000Y-56194000D03*
D13*
X153640000Y-56194000D03*
X151100000Y-56194000D03*
X148560000Y-56194000D03*
X146020000Y-56194000D03*
X143480000Y-56194000D03*
X140940000Y-56194000D03*
X138400000Y-56194000D03*
X135860000Y-56194000D03*
D12*
X135860000Y-118424000D03*
D13*
X135860000Y-120964000D03*
X135860000Y-123504000D03*
X135860000Y-126044000D03*
X135860000Y-128584000D03*
X135860000Y-131124000D03*
X135860000Y-133664000D03*
X135860000Y-136204000D03*
X135860000Y-138744000D03*
D12*
X185390000Y-118424000D03*
D13*
X185390000Y-120964000D03*
X185390000Y-123504000D03*
X185390000Y-126044000D03*
X185390000Y-128584000D03*
X185390000Y-131124000D03*
X185390000Y-133664000D03*
X185390000Y-136204000D03*
X185390000Y-138744000D03*
D12*
X180310000Y-118424000D03*
D13*
X180310000Y-120964000D03*
X180310000Y-123504000D03*
X180310000Y-126044000D03*
X180310000Y-128584000D03*
X180310000Y-131124000D03*
X180310000Y-133664000D03*
X180310000Y-136204000D03*
X180310000Y-138744000D03*
D14*
X166594000Y-136716000D03*
X166594000Y-132144000D03*
X166594000Y-127572000D03*
X161260000Y-127572000D03*
X155926000Y-127572000D03*
X161260000Y-132144000D03*
X155926000Y-132144000D03*
X161260000Y-136716000D03*
X155926000Y-136716000D03*
D15*
X139260000Y-80394000D03*
D16*
X146880000Y-88014000D03*
X139260000Y-82934000D03*
X146880000Y-85474000D03*
X139260000Y-85474000D03*
X146880000Y-82934000D03*
X139260000Y-88014000D03*
X146880000Y-80394000D03*
D17*
X188010000Y-81184000D03*
X188010000Y-83724000D03*
D18*
X188010000Y-78644000D03*
D12*
X146760000Y-122644000D03*
D13*
X149300000Y-122644000D03*
D19*
X141510000Y-137644000D03*
X146510000Y-137644000D03*
X144260000Y-128394000D03*
X144260000Y-133394000D03*
X134760000Y-94144000D03*
X134760000Y-89144000D03*
X170260000Y-75394000D03*
X170260000Y-80394000D03*
X174510000Y-92894000D03*
X174510000Y-87894000D03*
X180260000Y-87894000D03*
X180260000Y-92894000D03*
D20*
X160010000Y-70894000D03*
D21*
X160010000Y-60734000D03*
D22*
X160010000Y-114394000D03*
D23*
X162550000Y-114394000D03*
D22*
X164010000Y-82894000D03*
D23*
X164010000Y-80354000D03*
D22*
X158760000Y-80144000D03*
D23*
X158760000Y-82684000D03*
D12*
X160010000Y-53644000D03*
D13*
X162550000Y-53644000D03*
X165090000Y-53644000D03*
D12*
X134590000Y-82864000D03*
X134590000Y-85404000D03*
X134590000Y-80324000D03*
D19*
X164260000Y-109644000D03*
D24*
X164260000Y-99484000D03*
D19*
X149260000Y-128644000D03*
D24*
X149260000Y-138804000D03*
D19*
X154260000Y-90644000D03*
D24*
X154260000Y-80484000D03*
D19*
X150760000Y-80394000D03*
D24*
X150760000Y-90554000D03*
D19*
X150860000Y-93244000D03*
D24*
X140700000Y-93244000D03*
D19*
X151260000Y-77644000D03*
D24*
X161420000Y-77644000D03*
D19*
X170760000Y-94144000D03*
D24*
X170760000Y-83984000D03*
D19*
X184510000Y-84394000D03*
D24*
X174350000Y-84394000D03*
D19*
X184510000Y-80894000D03*
D24*
X174350000Y-80894000D03*
D12*
X165260000Y-91644000D03*
D13*
X165260000Y-89104000D03*
X165260000Y-86564000D03*
D25*
X161260000Y-92894000D03*
D24*
X161260000Y-85274000D03*
D25*
X157760000Y-85144000D03*
D24*
X157760000Y-92764000D03*
D25*
X163760000Y-69644000D03*
D19*
X166260000Y-69644000D03*
D25*
X188260000Y-72644000D03*
D19*
X188260000Y-70144000D03*
D12*
X146760000Y-118894000D03*
D13*
X149300000Y-118894000D03*
X151840000Y-118894000D03*
D12*
X173260000Y-118894000D03*
D13*
X170720000Y-118894000D03*
D12*
X177770000Y-118424000D03*
D13*
X177770000Y-120964000D03*
X177770000Y-123504000D03*
X177770000Y-126044000D03*
X177770000Y-128584000D03*
X177770000Y-131124000D03*
X177770000Y-133664000D03*
X177770000Y-136204000D03*
X177770000Y-138744000D03*
D12*
X182850000Y-118424000D03*
D13*
X182850000Y-120964000D03*
X182850000Y-123504000D03*
X182850000Y-126044000D03*
X182850000Y-128584000D03*
X182850000Y-131124000D03*
X182850000Y-133664000D03*
X182850000Y-136204000D03*
X182850000Y-138744000D03*
D12*
X187930000Y-118424000D03*
D13*
X187930000Y-120964000D03*
X187930000Y-123504000D03*
X187930000Y-126044000D03*
X187930000Y-128584000D03*
X187930000Y-131124000D03*
X187930000Y-133664000D03*
X187930000Y-136204000D03*
X187930000Y-138744000D03*
D12*
X133320000Y-118424000D03*
D13*
X133320000Y-120964000D03*
X133320000Y-123504000D03*
X133320000Y-126044000D03*
X133320000Y-128584000D03*
X133320000Y-131124000D03*
X133320000Y-133664000D03*
X133320000Y-136204000D03*
X133320000Y-138744000D03*
D12*
X138400000Y-118424000D03*
D13*
X138400000Y-120964000D03*
X138400000Y-123504000D03*
X138400000Y-126044000D03*
X138400000Y-128584000D03*
X138400000Y-131124000D03*
X138400000Y-133664000D03*
X138400000Y-136204000D03*
X138400000Y-138744000D03*
D12*
X156180000Y-53654000D03*
D13*
X153640000Y-53654000D03*
X151100000Y-53654000D03*
X148560000Y-53654000D03*
X146020000Y-53654000D03*
X143480000Y-53654000D03*
X140940000Y-53654000D03*
X138400000Y-53654000D03*
X135860000Y-53654000D03*
D11*
X184260000Y-76644000D03*
X179260000Y-76644000D03*
X174180000Y-76644000D03*
X148260000Y-76644000D03*
X143260000Y-76644000D03*
X138180000Y-76644000D03*
D26*
X164460000Y-76044000D03*
X163260000Y-71444000D03*
X132660000Y-89844000D03*
D27*
X164260000Y-99484000D02*
X164260000Y-96144000D01*
X168010000Y-92394000D02*
X168010000Y-81894000D01*
X164260000Y-96144000D02*
X168010000Y-92394000D01*
X168010000Y-79594000D02*
X168010000Y-81894000D01*
X164460000Y-76044000D02*
X168010000Y-79594000D01*
X163260000Y-71444000D02*
X163260000Y-70144000D01*
X163260000Y-70144000D02*
X163760000Y-69644000D01*
X188010000Y-78644000D02*
X188010000Y-76394000D01*
X165510000Y-71394000D02*
X183010000Y-71394000D01*
X183010000Y-71394000D02*
X188010000Y-76394000D01*
X165510000Y-71394000D02*
X163760000Y-69644000D01*
X146880000Y-80394000D02*
X143260000Y-80394000D01*
X146010000Y-70894000D02*
X160010000Y-70894000D01*
X141260000Y-75644000D02*
X146010000Y-70894000D01*
X141260000Y-78394000D02*
X141260000Y-75644000D01*
X143260000Y-80394000D02*
X141260000Y-78394000D01*
X160010000Y-70894000D02*
X161260000Y-69644000D01*
X161260000Y-69644000D02*
X163760000Y-69644000D01*
X146880000Y-80394000D02*
X150260000Y-80394000D01*
X150260000Y-80394000D02*
X150760000Y-79894000D01*
D28*
X144260000Y-133394000D02*
X149010000Y-128644000D01*
X149010000Y-128644000D02*
X149260000Y-128644000D01*
X141510000Y-137644000D02*
X144260000Y-134894000D01*
X144260000Y-134894000D02*
X144260000Y-133394000D01*
X149260000Y-128644000D02*
X152760000Y-132144000D01*
X152760000Y-132144000D02*
X155926000Y-132144000D01*
X146010000Y-116644000D02*
X144260000Y-118394000D01*
X146880000Y-91514000D02*
X150260000Y-94894000D01*
X150260000Y-94894000D02*
X155260000Y-94894000D01*
X155260000Y-94894000D02*
X156260000Y-95894000D01*
X156260000Y-115394000D02*
X156260000Y-95894000D01*
X155010000Y-116644000D02*
X156260000Y-115394000D01*
X146010000Y-116644000D02*
X155010000Y-116644000D01*
X146880000Y-88014000D02*
X146880000Y-91514000D01*
X144260000Y-118394000D02*
X144260000Y-128394000D01*
X150760000Y-90554000D02*
X154170000Y-90554000D01*
X154170000Y-90554000D02*
X154260000Y-90644000D01*
X146880000Y-88014000D02*
X148220000Y-88014000D01*
X148220000Y-88014000D02*
X150760000Y-90554000D01*
X134760000Y-94144000D02*
X135660000Y-93244000D01*
X135660000Y-93244000D02*
X140700000Y-93244000D01*
X179260000Y-76644000D02*
X184260000Y-76644000D01*
X170260000Y-75394000D02*
X171010000Y-74644000D01*
X171010000Y-74644000D02*
X177260000Y-74644000D01*
X177260000Y-74644000D02*
X179260000Y-76644000D01*
X166340000Y-74644000D02*
X166340000Y-76474000D01*
X166340000Y-76474000D02*
X170260000Y-80394000D01*
X170220000Y-80354000D02*
X170260000Y-80394000D01*
X146880000Y-82934000D02*
X150720000Y-82934000D01*
X159260000Y-76644000D02*
X161260000Y-74644000D01*
X155760000Y-76644000D02*
X159260000Y-76644000D01*
X152760000Y-79644000D02*
X155760000Y-76644000D01*
X152760000Y-80894000D02*
X152760000Y-79644000D01*
X150720000Y-82934000D02*
X152760000Y-80894000D01*
X161260000Y-74644000D02*
X164010000Y-77394000D01*
X164010000Y-77394000D02*
X164010000Y-80354000D01*
X158760000Y-80144000D02*
X158970000Y-80354000D01*
X158970000Y-80354000D02*
X164010000Y-80354000D01*
X157760000Y-85144000D02*
X157260000Y-84644000D01*
X157260000Y-84644000D02*
X157260000Y-81644000D01*
X157260000Y-81644000D02*
X158760000Y-80144000D01*
X157760000Y-85144000D02*
X161130000Y-85144000D01*
X161130000Y-85144000D02*
X161260000Y-85274000D01*
X161260000Y-74644000D02*
X166340000Y-74644000D01*
X158760000Y-80144000D02*
X158800000Y-80104000D01*
X174510000Y-92894000D02*
X180260000Y-92894000D01*
X170760000Y-94144000D02*
X172010000Y-92894000D01*
X172010000Y-92894000D02*
X174510000Y-92894000D01*
X180260000Y-87894000D02*
X183760000Y-84394000D01*
X183760000Y-84394000D02*
X184510000Y-84394000D01*
X184510000Y-84394000D02*
X185180000Y-83724000D01*
X185180000Y-83724000D02*
X188010000Y-83724000D01*
X188010000Y-81184000D02*
X188010000Y-81144000D01*
X188010000Y-81144000D02*
X189510000Y-79644000D01*
X189510000Y-73894000D02*
X188260000Y-72644000D01*
X189510000Y-79644000D02*
X189510000Y-73894000D01*
X188010000Y-81184000D02*
X188010000Y-80894000D01*
X184510000Y-80894000D02*
X184800000Y-81184000D01*
X184800000Y-81184000D02*
X188010000Y-81184000D01*
X147200000Y-67624000D02*
X138180000Y-76644000D01*
X182260000Y-67624000D02*
X185740000Y-67624000D01*
X182240000Y-67624000D02*
X182260000Y-67624000D01*
X182260000Y-67624000D02*
X147200000Y-67624000D01*
X185740000Y-67624000D02*
X188260000Y-70144000D01*
X160010000Y-60734000D02*
X162550000Y-58694000D01*
X162550000Y-58694000D02*
X162550000Y-53644000D01*
X161260000Y-127572000D02*
X160010000Y-126322000D01*
X160010000Y-126322000D02*
X160010000Y-114394000D01*
X162550000Y-114394000D02*
X164260000Y-112684000D01*
X164260000Y-112684000D02*
X164260000Y-109644000D01*
X161260000Y-92894000D02*
X162510000Y-91644000D01*
X162510000Y-91644000D02*
X165260000Y-91644000D01*
X157760000Y-92764000D02*
X157890000Y-92894000D01*
X157890000Y-92894000D02*
X161260000Y-92894000D01*
X164010000Y-82894000D02*
X165260000Y-84144000D01*
X165260000Y-84144000D02*
X165260000Y-86564000D01*
X158760000Y-82684000D02*
X163800000Y-82684000D01*
X163800000Y-82684000D02*
X164010000Y-82894000D01*
X158760000Y-82684000D02*
X158800000Y-82644000D01*
X155926000Y-127572000D02*
X158218000Y-129864000D01*
X163930000Y-134052000D02*
X166594000Y-136716000D01*
X163930000Y-131154000D02*
X163930000Y-134052000D01*
X162640000Y-129864000D02*
X163930000Y-131154000D01*
X158218000Y-129864000D02*
X162640000Y-129864000D01*
X146760000Y-118894000D02*
X148260000Y-117394000D01*
X155926000Y-120560000D02*
X155926000Y-127572000D01*
X152760000Y-117394000D02*
X155926000Y-120560000D01*
X148260000Y-117394000D02*
X152760000Y-117394000D01*
X134590000Y-82864000D02*
X134660000Y-82934000D01*
X134660000Y-82934000D02*
X139260000Y-82934000D01*
X134590000Y-85404000D02*
X134660000Y-85474000D01*
X134660000Y-85474000D02*
X139260000Y-85474000D01*
X134590000Y-80324000D02*
X134660000Y-80394000D01*
X134660000Y-80394000D02*
X139260000Y-80394000D01*
X173260000Y-118894000D02*
X173260000Y-125478000D01*
X173260000Y-125478000D02*
X166594000Y-132144000D01*
X153060000Y-92174000D02*
X151930000Y-92174000D01*
X151930000Y-92174000D02*
X150860000Y-93244000D01*
X157760000Y-88644000D02*
X157760000Y-89644000D01*
X155010000Y-85894000D02*
X155010000Y-85144000D01*
X146880000Y-85474000D02*
X154680000Y-85474000D01*
X154680000Y-85474000D02*
X155010000Y-85144000D01*
X158010000Y-77644000D02*
X161420000Y-77644000D01*
X155010000Y-85144000D02*
X156260000Y-83894000D01*
X156260000Y-83894000D02*
X156260000Y-79394000D01*
X156260000Y-79394000D02*
X158010000Y-77644000D01*
X165260000Y-89104000D02*
X158220000Y-89104000D01*
X154590000Y-85474000D02*
X146880000Y-85474000D01*
X158220000Y-89104000D02*
X157760000Y-88644000D01*
X157760000Y-88644000D02*
X155010000Y-85894000D01*
X155010000Y-85894000D02*
X154590000Y-85474000D01*
X155230000Y-92174000D02*
X157760000Y-89644000D01*
X152980000Y-92174000D02*
X153060000Y-92174000D01*
X153060000Y-92174000D02*
X155230000Y-92174000D01*
X158300000Y-89104000D02*
X165260000Y-89104000D01*
X157760000Y-89644000D02*
X158300000Y-89104000D01*
X151260000Y-77644000D02*
X153260000Y-77644000D01*
X153260000Y-77644000D02*
X156260000Y-74644000D01*
X172760000Y-78064000D02*
X174180000Y-76644000D01*
X172760000Y-81984000D02*
X172760000Y-78064000D01*
X170760000Y-83984000D02*
X172760000Y-81984000D01*
X169260000Y-92644000D02*
X166660000Y-95244000D01*
X168260000Y-73644000D02*
X168260000Y-76144000D01*
X167260000Y-72644000D02*
X147260000Y-72644000D01*
X171760000Y-80894000D02*
X169260000Y-83394000D01*
X168510000Y-76394000D02*
X171760000Y-79644000D01*
X143260000Y-76644000D02*
X147260000Y-72644000D01*
X171760000Y-79644000D02*
X171760000Y-80894000D01*
X168510000Y-76394000D02*
X168260000Y-76144000D01*
X169260000Y-83394000D02*
X169260000Y-92644000D01*
X167260000Y-72644000D02*
X168260000Y-73644000D01*
X166660000Y-95244000D02*
X166660000Y-127506000D01*
X155926000Y-136716000D02*
X161260000Y-136716000D01*
D29*
X132660000Y-89844000D02*
X132660000Y-74344000D01*
X143510000Y-65894000D02*
X141110000Y-65894000D01*
X165090000Y-53644000D02*
X165090000Y-59814000D01*
X159010000Y-65894000D02*
X165090000Y-59814000D01*
X143510000Y-65894000D02*
X159010000Y-65894000D01*
X141110000Y-65894000D02*
X132660000Y-74344000D01*
D27*
X149300000Y-122644000D02*
X149300000Y-118894000D01*
M02*
