G04 #@! TF.FileFunction,Copper,L2,Bot,Signal*
%FSLAX46Y46*%
G04 Gerber Fmt 4.6, Leading zero omitted, Abs format (unit mm)*
G04 Created by KiCad (PCBNEW 4.0.7) date 02/03/18 11:58:40*
%MOMM*%
%LPD*%
G01*
G04 APERTURE LIST*
%ADD10C,0.100000*%
%ADD11O,2.032000X2.540000*%
%ADD12R,1.700000X1.700000*%
%ADD13O,1.700000X1.700000*%
%ADD14O,4.000000X3.500000*%
%ADD15R,2.400000X1.600000*%
%ADD16O,2.400000X1.600000*%
%ADD17C,1.520000*%
%ADD18R,1.520000X1.520000*%
%ADD19C,1.600000*%
%ADD20R,2.200000X2.200000*%
%ADD21O,2.200000X2.200000*%
%ADD22R,1.800000X1.800000*%
%ADD23C,1.800000*%
%ADD24O,1.600000X1.600000*%
%ADD25R,1.600000X1.600000*%
%ADD26C,0.600000*%
%ADD27C,1.000000*%
%ADD28C,0.750000*%
%ADD29C,0.200000*%
G04 APERTURE END LIST*
D10*
D11*
X156260000Y-74644000D03*
X161260000Y-74644000D03*
X166340000Y-74644000D03*
D12*
X189200000Y-63814000D03*
D13*
X186660000Y-63814000D03*
X184120000Y-63814000D03*
X181580000Y-63814000D03*
X179040000Y-63814000D03*
X176500000Y-63814000D03*
X173960000Y-63814000D03*
X171420000Y-63814000D03*
X168880000Y-63814000D03*
D12*
X189200000Y-61274000D03*
D13*
X186660000Y-61274000D03*
X184120000Y-61274000D03*
X181580000Y-61274000D03*
X179040000Y-61274000D03*
X176500000Y-61274000D03*
X173960000Y-61274000D03*
X171420000Y-61274000D03*
X168880000Y-61274000D03*
D12*
X189200000Y-58734000D03*
D13*
X186660000Y-58734000D03*
X184120000Y-58734000D03*
X181580000Y-58734000D03*
X179040000Y-58734000D03*
X176500000Y-58734000D03*
X173960000Y-58734000D03*
X171420000Y-58734000D03*
X168880000Y-58734000D03*
D12*
X189200000Y-56194000D03*
D13*
X186660000Y-56194000D03*
X184120000Y-56194000D03*
X181580000Y-56194000D03*
X179040000Y-56194000D03*
X176500000Y-56194000D03*
X173960000Y-56194000D03*
X171420000Y-56194000D03*
X168880000Y-56194000D03*
D12*
X189200000Y-53654000D03*
D13*
X186660000Y-53654000D03*
X184120000Y-53654000D03*
X181580000Y-53654000D03*
X179040000Y-53654000D03*
X176500000Y-53654000D03*
X173960000Y-53654000D03*
X171420000Y-53654000D03*
X168880000Y-53654000D03*
D12*
X156180000Y-63814000D03*
D13*
X153640000Y-63814000D03*
X151100000Y-63814000D03*
X148560000Y-63814000D03*
X146020000Y-63814000D03*
X143480000Y-63814000D03*
X140940000Y-63814000D03*
X138400000Y-63814000D03*
X135860000Y-63814000D03*
D12*
X156180000Y-61274000D03*
D13*
X153640000Y-61274000D03*
X151100000Y-61274000D03*
X148560000Y-61274000D03*
X146020000Y-61274000D03*
X143480000Y-61274000D03*
X140940000Y-61274000D03*
X138400000Y-61274000D03*
X135860000Y-61274000D03*
D12*
X156180000Y-58734000D03*
D13*
X153640000Y-58734000D03*
X151100000Y-58734000D03*
X148560000Y-58734000D03*
X146020000Y-58734000D03*
X143480000Y-58734000D03*
X140940000Y-58734000D03*
X138400000Y-58734000D03*
X135860000Y-58734000D03*
D12*
X156180000Y-56194000D03*
D13*
X153640000Y-56194000D03*
X151100000Y-56194000D03*
X148560000Y-56194000D03*
X146020000Y-56194000D03*
X143480000Y-56194000D03*
X140940000Y-56194000D03*
X138400000Y-56194000D03*
X135860000Y-56194000D03*
D12*
X135860000Y-118424000D03*
D13*
X135860000Y-120964000D03*
X135860000Y-123504000D03*
X135860000Y-126044000D03*
X135860000Y-128584000D03*
X135860000Y-131124000D03*
X135860000Y-133664000D03*
X135860000Y-136204000D03*
X135860000Y-138744000D03*
D12*
X185390000Y-118424000D03*
D13*
X185390000Y-120964000D03*
X185390000Y-123504000D03*
X185390000Y-126044000D03*
X185390000Y-128584000D03*
X185390000Y-131124000D03*
X185390000Y-133664000D03*
X185390000Y-136204000D03*
X185390000Y-138744000D03*
D12*
X180310000Y-118424000D03*
D13*
X180310000Y-120964000D03*
X180310000Y-123504000D03*
X180310000Y-126044000D03*
X180310000Y-128584000D03*
X180310000Y-131124000D03*
X180310000Y-133664000D03*
X180310000Y-136204000D03*
X180310000Y-138744000D03*
D14*
X166594000Y-136716000D03*
X166594000Y-132144000D03*
X166594000Y-127572000D03*
X161260000Y-127572000D03*
X155926000Y-127572000D03*
X161260000Y-132144000D03*
X155926000Y-132144000D03*
X161260000Y-136716000D03*
X155926000Y-136716000D03*
D15*
X139260000Y-80394000D03*
D16*
X146880000Y-88014000D03*
X139260000Y-82934000D03*
X146880000Y-85474000D03*
X139260000Y-85474000D03*
X146880000Y-82934000D03*
X139260000Y-88014000D03*
X146880000Y-80394000D03*
D17*
X188010000Y-81184000D03*
X188010000Y-83724000D03*
D18*
X188010000Y-78644000D03*
D12*
X146760000Y-122644000D03*
D13*
X149300000Y-122644000D03*
D19*
X141510000Y-137644000D03*
X146510000Y-137644000D03*
X144260000Y-128394000D03*
X144260000Y-133394000D03*
X134760000Y-94144000D03*
X134760000Y-89144000D03*
X170260000Y-75394000D03*
X170260000Y-80394000D03*
X174510000Y-92894000D03*
X174510000Y-87894000D03*
X180260000Y-87894000D03*
X180260000Y-92894000D03*
D20*
X160010000Y-70894000D03*
D21*
X160010000Y-60734000D03*
D22*
X160010000Y-114394000D03*
D23*
X162550000Y-114394000D03*
D22*
X164010000Y-82894000D03*
D23*
X164010000Y-80354000D03*
D22*
X158760000Y-80144000D03*
D23*
X158760000Y-82684000D03*
D12*
X160010000Y-53644000D03*
D13*
X162550000Y-53644000D03*
X165090000Y-53644000D03*
D12*
X134590000Y-82864000D03*
X134590000Y-85404000D03*
X134590000Y-80324000D03*
D19*
X164260000Y-109644000D03*
D24*
X164260000Y-99484000D03*
D19*
X149260000Y-128644000D03*
D24*
X149260000Y-138804000D03*
D19*
X154260000Y-90644000D03*
D24*
X154260000Y-80484000D03*
D19*
X150760000Y-80394000D03*
D24*
X150760000Y-90554000D03*
D19*
X150860000Y-93244000D03*
D24*
X140700000Y-93244000D03*
D19*
X151260000Y-77644000D03*
D24*
X161420000Y-77644000D03*
D19*
X170760000Y-94144000D03*
D24*
X170760000Y-83984000D03*
D19*
X184510000Y-84394000D03*
D24*
X174350000Y-84394000D03*
D19*
X184510000Y-80894000D03*
D24*
X174350000Y-80894000D03*
D12*
X165260000Y-91644000D03*
D13*
X165260000Y-89104000D03*
X165260000Y-86564000D03*
D25*
X161260000Y-92894000D03*
D24*
X161260000Y-85274000D03*
D25*
X157760000Y-85144000D03*
D24*
X157760000Y-92764000D03*
D25*
X163760000Y-69644000D03*
D19*
X166260000Y-69644000D03*
D25*
X188260000Y-72644000D03*
D19*
X188260000Y-70144000D03*
D12*
X146760000Y-118894000D03*
D13*
X149300000Y-118894000D03*
X151840000Y-118894000D03*
D12*
X173260000Y-118894000D03*
D13*
X170720000Y-118894000D03*
D12*
X177770000Y-118424000D03*
D13*
X177770000Y-120964000D03*
X177770000Y-123504000D03*
X177770000Y-126044000D03*
X177770000Y-128584000D03*
X177770000Y-131124000D03*
X177770000Y-133664000D03*
X177770000Y-136204000D03*
X177770000Y-138744000D03*
D12*
X182850000Y-118424000D03*
D13*
X182850000Y-120964000D03*
X182850000Y-123504000D03*
X182850000Y-126044000D03*
X182850000Y-128584000D03*
X182850000Y-131124000D03*
X182850000Y-133664000D03*
X182850000Y-136204000D03*
X182850000Y-138744000D03*
D12*
X187930000Y-118424000D03*
D13*
X187930000Y-120964000D03*
X187930000Y-123504000D03*
X187930000Y-126044000D03*
X187930000Y-128584000D03*
X187930000Y-131124000D03*
X187930000Y-133664000D03*
X187930000Y-136204000D03*
X187930000Y-138744000D03*
D12*
X133320000Y-118424000D03*
D13*
X133320000Y-120964000D03*
X133320000Y-123504000D03*
X133320000Y-126044000D03*
X133320000Y-128584000D03*
X133320000Y-131124000D03*
X133320000Y-133664000D03*
X133320000Y-136204000D03*
X133320000Y-138744000D03*
D12*
X138400000Y-118424000D03*
D13*
X138400000Y-120964000D03*
X138400000Y-123504000D03*
X138400000Y-126044000D03*
X138400000Y-128584000D03*
X138400000Y-131124000D03*
X138400000Y-133664000D03*
X138400000Y-136204000D03*
X138400000Y-138744000D03*
D12*
X156180000Y-53654000D03*
D13*
X153640000Y-53654000D03*
X151100000Y-53654000D03*
X148560000Y-53654000D03*
X146020000Y-53654000D03*
X143480000Y-53654000D03*
X140940000Y-53654000D03*
X138400000Y-53654000D03*
X135860000Y-53654000D03*
D11*
X184260000Y-76644000D03*
X179260000Y-76644000D03*
X174180000Y-76644000D03*
X148260000Y-76644000D03*
X143260000Y-76644000D03*
X138180000Y-76644000D03*
D26*
X164460000Y-76044000D03*
X163260000Y-71444000D03*
X132660000Y-89844000D03*
D27*
X164460000Y-76044000D02*
X163260000Y-74844000D01*
X163260000Y-74844000D02*
X163260000Y-71444000D01*
D28*
X132660000Y-89844000D02*
X137660000Y-94844000D01*
X137660000Y-94844000D02*
X154060000Y-94844000D01*
X144860000Y-120744000D02*
X146760000Y-122644000D01*
X144860000Y-117544000D02*
X144860000Y-120744000D01*
X145960000Y-116444000D02*
X144860000Y-117544000D01*
X154060000Y-116444000D02*
X145960000Y-116444000D01*
X156060000Y-114444000D02*
X154060000Y-116444000D01*
X156060000Y-96844000D02*
X156060000Y-114444000D01*
X154060000Y-94844000D02*
X156060000Y-96844000D01*
D29*
G36*
X158760000Y-52714435D02*
X158760000Y-53390000D01*
X158860000Y-53490000D01*
X159856000Y-53490000D01*
X159856000Y-53470000D01*
X160164000Y-53470000D01*
X160164000Y-53490000D01*
X161160000Y-53490000D01*
X161260000Y-53390000D01*
X161260000Y-52714435D01*
X161199759Y-52569000D01*
X161915493Y-52569000D01*
X161666117Y-52735628D01*
X161395151Y-53141157D01*
X161300000Y-53619511D01*
X161300000Y-53668489D01*
X161395151Y-54146843D01*
X161666117Y-54552372D01*
X162071646Y-54823338D01*
X162550000Y-54918489D01*
X163028354Y-54823338D01*
X163433883Y-54552372D01*
X163704849Y-54146843D01*
X163800000Y-53668489D01*
X163800000Y-53619511D01*
X163704849Y-53141157D01*
X163433883Y-52735628D01*
X163184507Y-52569000D01*
X164455493Y-52569000D01*
X164206117Y-52735628D01*
X163935151Y-53141157D01*
X163840000Y-53619511D01*
X163840000Y-53668489D01*
X163935151Y-54146843D01*
X164206117Y-54552372D01*
X164611646Y-54823338D01*
X165090000Y-54918489D01*
X165568354Y-54823338D01*
X165973883Y-54552372D01*
X166244849Y-54146843D01*
X166340000Y-53668489D01*
X166340000Y-53619511D01*
X166244849Y-53141157D01*
X165973883Y-52735628D01*
X165724507Y-52569000D01*
X167510000Y-52569000D01*
X167510000Y-65084000D01*
X167517879Y-65122906D01*
X167540273Y-65155681D01*
X167573654Y-65177161D01*
X167610000Y-65184000D01*
X189835000Y-65184000D01*
X189835000Y-95219000D01*
X171300672Y-95219000D01*
X171438857Y-95161903D01*
X171776717Y-94824633D01*
X171959791Y-94383742D01*
X171960207Y-93906353D01*
X171777903Y-93465143D01*
X171444990Y-93131647D01*
X173309793Y-93131647D01*
X173492097Y-93572857D01*
X173829367Y-93910717D01*
X174270258Y-94093791D01*
X174747647Y-94094207D01*
X175188857Y-93911903D01*
X175526717Y-93574633D01*
X175709791Y-93133742D01*
X175709792Y-93131647D01*
X179059793Y-93131647D01*
X179242097Y-93572857D01*
X179579367Y-93910717D01*
X180020258Y-94093791D01*
X180497647Y-94094207D01*
X180938857Y-93911903D01*
X181276717Y-93574633D01*
X181459791Y-93133742D01*
X181460207Y-92656353D01*
X181277903Y-92215143D01*
X180940633Y-91877283D01*
X180499742Y-91694209D01*
X180022353Y-91693793D01*
X179581143Y-91876097D01*
X179243283Y-92213367D01*
X179060209Y-92654258D01*
X179059793Y-93131647D01*
X175709792Y-93131647D01*
X175710207Y-92656353D01*
X175527903Y-92215143D01*
X175190633Y-91877283D01*
X174749742Y-91694209D01*
X174272353Y-91693793D01*
X173831143Y-91876097D01*
X173493283Y-92213367D01*
X173310209Y-92654258D01*
X173309793Y-93131647D01*
X171444990Y-93131647D01*
X171440633Y-93127283D01*
X170999742Y-92944209D01*
X170522353Y-92943793D01*
X170081143Y-93126097D01*
X169743283Y-93463367D01*
X169560209Y-93904258D01*
X169559793Y-94381647D01*
X169742097Y-94822857D01*
X170079367Y-95160717D01*
X170219728Y-95219000D01*
X168760000Y-95219000D01*
X168597360Y-95251351D01*
X168597358Y-95251352D01*
X168597359Y-95251352D01*
X168459479Y-95343480D01*
X168338959Y-95464000D01*
X167610000Y-95464000D01*
X167571094Y-95471879D01*
X167538319Y-95494273D01*
X167516839Y-95527654D01*
X167510000Y-95564000D01*
X167510000Y-96292960D01*
X166959480Y-96843480D01*
X166867351Y-96981359D01*
X166867351Y-96981360D01*
X166835000Y-97144000D01*
X166835000Y-114144000D01*
X166861984Y-114279657D01*
X166867351Y-114306641D01*
X166959480Y-114444520D01*
X167510000Y-114995040D01*
X167510000Y-115884000D01*
X167517879Y-115922906D01*
X167540273Y-115955681D01*
X167573654Y-115977161D01*
X167610000Y-115984000D01*
X168518566Y-115984000D01*
X168551608Y-116006078D01*
X168597360Y-116036649D01*
X168760000Y-116069000D01*
X176400000Y-116069000D01*
X176400000Y-140219000D01*
X142310000Y-140219000D01*
X142310000Y-139142275D01*
X148108651Y-139142275D01*
X148325744Y-139557128D01*
X148685070Y-139857324D01*
X148921727Y-139955334D01*
X149106000Y-139893167D01*
X149106000Y-138958000D01*
X149414000Y-138958000D01*
X149414000Y-139893167D01*
X149598273Y-139955334D01*
X149834930Y-139857324D01*
X150194256Y-139557128D01*
X150411349Y-139142275D01*
X150350092Y-138958000D01*
X149414000Y-138958000D01*
X149106000Y-138958000D01*
X148169908Y-138958000D01*
X148108651Y-139142275D01*
X142310000Y-139142275D01*
X142310000Y-138540972D01*
X142311136Y-138539837D01*
X145831952Y-138539837D01*
X145921148Y-138716487D01*
X146376394Y-138860192D01*
X146851981Y-138818743D01*
X147098852Y-138716487D01*
X147188048Y-138539837D01*
X147113936Y-138465725D01*
X148108651Y-138465725D01*
X148169908Y-138650000D01*
X149106000Y-138650000D01*
X149106000Y-137714833D01*
X149414000Y-137714833D01*
X149414000Y-138650000D01*
X150350092Y-138650000D01*
X150411349Y-138465725D01*
X150194256Y-138050872D01*
X149834930Y-137750676D01*
X149598273Y-137652666D01*
X149414000Y-137714833D01*
X149106000Y-137714833D01*
X148921727Y-137652666D01*
X148685070Y-137750676D01*
X148325744Y-138050872D01*
X148108651Y-138465725D01*
X147113936Y-138465725D01*
X146510000Y-137861789D01*
X145831952Y-138539837D01*
X142311136Y-138539837D01*
X142526717Y-138324633D01*
X142709791Y-137883742D01*
X142710116Y-137510394D01*
X145293808Y-137510394D01*
X145335257Y-137985981D01*
X145437513Y-138232852D01*
X145614163Y-138322048D01*
X146292211Y-137644000D01*
X146727789Y-137644000D01*
X147405837Y-138322048D01*
X147582487Y-138232852D01*
X147726192Y-137777606D01*
X147684743Y-137302019D01*
X147582487Y-137055148D01*
X147405837Y-136965952D01*
X146727789Y-137644000D01*
X146292211Y-137644000D01*
X145614163Y-136965952D01*
X145437513Y-137055148D01*
X145293808Y-137510394D01*
X142710116Y-137510394D01*
X142710207Y-137406353D01*
X142527903Y-136965143D01*
X142311302Y-136748163D01*
X145831952Y-136748163D01*
X146510000Y-137426211D01*
X147188048Y-136748163D01*
X147171808Y-136716000D01*
X153478981Y-136716000D01*
X153642640Y-137538769D01*
X154108701Y-138236280D01*
X154806212Y-138702341D01*
X155628981Y-138866000D01*
X156223019Y-138866000D01*
X157045788Y-138702341D01*
X157743299Y-138236280D01*
X158209360Y-137538769D01*
X158373019Y-136716000D01*
X158812981Y-136716000D01*
X158976640Y-137538769D01*
X159442701Y-138236280D01*
X160140212Y-138702341D01*
X160962981Y-138866000D01*
X161557019Y-138866000D01*
X162379788Y-138702341D01*
X163077299Y-138236280D01*
X163543360Y-137538769D01*
X163707019Y-136716000D01*
X164146981Y-136716000D01*
X164310640Y-137538769D01*
X164776701Y-138236280D01*
X165474212Y-138702341D01*
X166296981Y-138866000D01*
X166891019Y-138866000D01*
X167713788Y-138702341D01*
X168411299Y-138236280D01*
X168877360Y-137538769D01*
X169041019Y-136716000D01*
X168877360Y-135893231D01*
X168411299Y-135195720D01*
X167713788Y-134729659D01*
X166891019Y-134566000D01*
X166296981Y-134566000D01*
X165474212Y-134729659D01*
X164776701Y-135195720D01*
X164310640Y-135893231D01*
X164146981Y-136716000D01*
X163707019Y-136716000D01*
X163543360Y-135893231D01*
X163077299Y-135195720D01*
X162379788Y-134729659D01*
X161557019Y-134566000D01*
X160962981Y-134566000D01*
X160140212Y-134729659D01*
X159442701Y-135195720D01*
X158976640Y-135893231D01*
X158812981Y-136716000D01*
X158373019Y-136716000D01*
X158209360Y-135893231D01*
X157743299Y-135195720D01*
X157045788Y-134729659D01*
X156223019Y-134566000D01*
X155628981Y-134566000D01*
X154806212Y-134729659D01*
X154108701Y-135195720D01*
X153642640Y-135893231D01*
X153478981Y-136716000D01*
X147171808Y-136716000D01*
X147098852Y-136571513D01*
X146643606Y-136427808D01*
X146168019Y-136469257D01*
X145921148Y-136571513D01*
X145831952Y-136748163D01*
X142311302Y-136748163D01*
X142310000Y-136746859D01*
X142310000Y-133631647D01*
X143059793Y-133631647D01*
X143242097Y-134072857D01*
X143579367Y-134410717D01*
X144020258Y-134593791D01*
X144497647Y-134594207D01*
X144938857Y-134411903D01*
X145276717Y-134074633D01*
X145459791Y-133633742D01*
X145460207Y-133156353D01*
X145277903Y-132715143D01*
X144940633Y-132377283D01*
X144499742Y-132194209D01*
X144022353Y-132193793D01*
X143581143Y-132376097D01*
X143243283Y-132713367D01*
X143060209Y-133154258D01*
X143059793Y-133631647D01*
X142310000Y-133631647D01*
X142310000Y-132144000D01*
X153478981Y-132144000D01*
X153642640Y-132966769D01*
X154108701Y-133664280D01*
X154806212Y-134130341D01*
X155628981Y-134294000D01*
X156223019Y-134294000D01*
X157045788Y-134130341D01*
X157743299Y-133664280D01*
X158209360Y-132966769D01*
X158276034Y-132631574D01*
X158916015Y-132631574D01*
X158938481Y-132740055D01*
X159324266Y-133487419D01*
X159966689Y-134030260D01*
X160767947Y-134285935D01*
X161106000Y-134197430D01*
X161106000Y-132298000D01*
X161414000Y-132298000D01*
X161414000Y-134197430D01*
X161752053Y-134285935D01*
X162553311Y-134030260D01*
X163195734Y-133487419D01*
X163581519Y-132740055D01*
X163603985Y-132631574D01*
X163554207Y-132298000D01*
X161414000Y-132298000D01*
X161106000Y-132298000D01*
X158965793Y-132298000D01*
X158916015Y-132631574D01*
X158276034Y-132631574D01*
X158373019Y-132144000D01*
X164146981Y-132144000D01*
X164310640Y-132966769D01*
X164776701Y-133664280D01*
X165474212Y-134130341D01*
X166296981Y-134294000D01*
X166891019Y-134294000D01*
X167713788Y-134130341D01*
X168411299Y-133664280D01*
X168877360Y-132966769D01*
X169041019Y-132144000D01*
X168877360Y-131321231D01*
X168411299Y-130623720D01*
X167713788Y-130157659D01*
X166891019Y-129994000D01*
X166296981Y-129994000D01*
X165474212Y-130157659D01*
X164776701Y-130623720D01*
X164310640Y-131321231D01*
X164146981Y-132144000D01*
X158373019Y-132144000D01*
X158276035Y-131656426D01*
X158916015Y-131656426D01*
X158965793Y-131990000D01*
X161106000Y-131990000D01*
X161106000Y-130090570D01*
X161414000Y-130090570D01*
X161414000Y-131990000D01*
X163554207Y-131990000D01*
X163603985Y-131656426D01*
X163581519Y-131547945D01*
X163195734Y-130800581D01*
X162553311Y-130257740D01*
X161752053Y-130002065D01*
X161414000Y-130090570D01*
X161106000Y-130090570D01*
X160767947Y-130002065D01*
X159966689Y-130257740D01*
X159324266Y-130800581D01*
X158938481Y-131547945D01*
X158916015Y-131656426D01*
X158276035Y-131656426D01*
X158209360Y-131321231D01*
X157743299Y-130623720D01*
X157045788Y-130157659D01*
X156223019Y-129994000D01*
X155628981Y-129994000D01*
X154806212Y-130157659D01*
X154108701Y-130623720D01*
X153642640Y-131321231D01*
X153478981Y-132144000D01*
X142310000Y-132144000D01*
X142310000Y-128631647D01*
X143059793Y-128631647D01*
X143242097Y-129072857D01*
X143579367Y-129410717D01*
X144020258Y-129593791D01*
X144497647Y-129594207D01*
X144938857Y-129411903D01*
X145276717Y-129074633D01*
X145356851Y-128881647D01*
X148059793Y-128881647D01*
X148242097Y-129322857D01*
X148579367Y-129660717D01*
X149020258Y-129843791D01*
X149497647Y-129844207D01*
X149938857Y-129661903D01*
X150276717Y-129324633D01*
X150459791Y-128883742D01*
X150460207Y-128406353D01*
X150277903Y-127965143D01*
X149940633Y-127627283D01*
X149807497Y-127572000D01*
X153478981Y-127572000D01*
X153642640Y-128394769D01*
X154108701Y-129092280D01*
X154806212Y-129558341D01*
X155628981Y-129722000D01*
X156223019Y-129722000D01*
X157045788Y-129558341D01*
X157743299Y-129092280D01*
X158209360Y-128394769D01*
X158373019Y-127572000D01*
X158812981Y-127572000D01*
X158976640Y-128394769D01*
X159442701Y-129092280D01*
X160140212Y-129558341D01*
X160962981Y-129722000D01*
X161557019Y-129722000D01*
X162379788Y-129558341D01*
X163077299Y-129092280D01*
X163543360Y-128394769D01*
X163707019Y-127572000D01*
X164146981Y-127572000D01*
X164310640Y-128394769D01*
X164776701Y-129092280D01*
X165474212Y-129558341D01*
X166296981Y-129722000D01*
X166891019Y-129722000D01*
X167713788Y-129558341D01*
X168411299Y-129092280D01*
X168877360Y-128394769D01*
X169041019Y-127572000D01*
X168877360Y-126749231D01*
X168411299Y-126051720D01*
X167713788Y-125585659D01*
X166891019Y-125422000D01*
X166296981Y-125422000D01*
X165474212Y-125585659D01*
X164776701Y-126051720D01*
X164310640Y-126749231D01*
X164146981Y-127572000D01*
X163707019Y-127572000D01*
X163543360Y-126749231D01*
X163077299Y-126051720D01*
X162379788Y-125585659D01*
X161557019Y-125422000D01*
X160962981Y-125422000D01*
X160140212Y-125585659D01*
X159442701Y-126051720D01*
X158976640Y-126749231D01*
X158812981Y-127572000D01*
X158373019Y-127572000D01*
X158209360Y-126749231D01*
X157743299Y-126051720D01*
X157045788Y-125585659D01*
X156223019Y-125422000D01*
X155628981Y-125422000D01*
X154806212Y-125585659D01*
X154108701Y-126051720D01*
X153642640Y-126749231D01*
X153478981Y-127572000D01*
X149807497Y-127572000D01*
X149499742Y-127444209D01*
X149022353Y-127443793D01*
X148581143Y-127626097D01*
X148243283Y-127963367D01*
X148060209Y-128404258D01*
X148059793Y-128881647D01*
X145356851Y-128881647D01*
X145459791Y-128633742D01*
X145460207Y-128156353D01*
X145277903Y-127715143D01*
X144940633Y-127377283D01*
X144499742Y-127194209D01*
X144022353Y-127193793D01*
X143581143Y-127376097D01*
X143243283Y-127713367D01*
X143060209Y-128154258D01*
X143059793Y-128631647D01*
X142310000Y-128631647D01*
X142310000Y-116069000D01*
X145238984Y-116069000D01*
X144311992Y-116995992D01*
X144143993Y-117247420D01*
X144085000Y-117544000D01*
X144085000Y-120744000D01*
X144143993Y-121040580D01*
X144311992Y-121292008D01*
X145502164Y-122482180D01*
X145502164Y-123494000D01*
X145530056Y-123642231D01*
X145617660Y-123778372D01*
X145751329Y-123869704D01*
X145910000Y-123901836D01*
X147610000Y-123901836D01*
X147758231Y-123873944D01*
X147894372Y-123786340D01*
X147985704Y-123652671D01*
X148017836Y-123494000D01*
X148017836Y-122619511D01*
X148050000Y-122619511D01*
X148050000Y-122668489D01*
X148145151Y-123146843D01*
X148416117Y-123552372D01*
X148821646Y-123823338D01*
X149300000Y-123918489D01*
X149778354Y-123823338D01*
X150183883Y-123552372D01*
X150454849Y-123146843D01*
X150550000Y-122668489D01*
X150550000Y-122619511D01*
X150454849Y-122141157D01*
X150183883Y-121735628D01*
X149778354Y-121464662D01*
X149300000Y-121369511D01*
X148821646Y-121464662D01*
X148416117Y-121735628D01*
X148145151Y-122141157D01*
X148050000Y-122619511D01*
X148017836Y-122619511D01*
X148017836Y-121794000D01*
X147989944Y-121645769D01*
X147902340Y-121509628D01*
X147768671Y-121418296D01*
X147610000Y-121386164D01*
X146598180Y-121386164D01*
X145635000Y-120422984D01*
X145635000Y-120040220D01*
X145751329Y-120119704D01*
X145910000Y-120151836D01*
X147610000Y-120151836D01*
X147758231Y-120123944D01*
X147894372Y-120036340D01*
X147985704Y-119902671D01*
X148017836Y-119744000D01*
X148017836Y-118869511D01*
X148050000Y-118869511D01*
X148050000Y-118918489D01*
X148145151Y-119396843D01*
X148416117Y-119802372D01*
X148821646Y-120073338D01*
X149300000Y-120168489D01*
X149778354Y-120073338D01*
X150183883Y-119802372D01*
X150454849Y-119396843D01*
X150486015Y-119240160D01*
X150638872Y-119240160D01*
X150862772Y-119673462D01*
X151235446Y-119988098D01*
X151493843Y-120095114D01*
X151686000Y-120033642D01*
X151686000Y-119048000D01*
X151994000Y-119048000D01*
X151994000Y-120033642D01*
X152186157Y-120095114D01*
X152444554Y-119988098D01*
X152817228Y-119673462D01*
X153041128Y-119240160D01*
X169518872Y-119240160D01*
X169742772Y-119673462D01*
X170115446Y-119988098D01*
X170373843Y-120095114D01*
X170566000Y-120033642D01*
X170566000Y-119048000D01*
X170874000Y-119048000D01*
X170874000Y-120033642D01*
X171066157Y-120095114D01*
X171324554Y-119988098D01*
X171697228Y-119673462D01*
X171921128Y-119240160D01*
X171860491Y-119048000D01*
X170874000Y-119048000D01*
X170566000Y-119048000D01*
X169579509Y-119048000D01*
X169518872Y-119240160D01*
X153041128Y-119240160D01*
X152980491Y-119048000D01*
X151994000Y-119048000D01*
X151686000Y-119048000D01*
X150699509Y-119048000D01*
X150638872Y-119240160D01*
X150486015Y-119240160D01*
X150550000Y-118918489D01*
X150550000Y-118869511D01*
X150486016Y-118547840D01*
X150638872Y-118547840D01*
X150699509Y-118740000D01*
X151686000Y-118740000D01*
X151686000Y-117754358D01*
X151994000Y-117754358D01*
X151994000Y-118740000D01*
X152980491Y-118740000D01*
X153041128Y-118547840D01*
X169518872Y-118547840D01*
X169579509Y-118740000D01*
X170566000Y-118740000D01*
X170566000Y-117754358D01*
X170874000Y-117754358D01*
X170874000Y-118740000D01*
X171860491Y-118740000D01*
X171921128Y-118547840D01*
X171697228Y-118114538D01*
X171613679Y-118044000D01*
X172002164Y-118044000D01*
X172002164Y-119744000D01*
X172030056Y-119892231D01*
X172117660Y-120028372D01*
X172251329Y-120119704D01*
X172410000Y-120151836D01*
X174110000Y-120151836D01*
X174258231Y-120123944D01*
X174394372Y-120036340D01*
X174485704Y-119902671D01*
X174517836Y-119744000D01*
X174517836Y-118044000D01*
X174489944Y-117895769D01*
X174402340Y-117759628D01*
X174268671Y-117668296D01*
X174110000Y-117636164D01*
X172410000Y-117636164D01*
X172261769Y-117664056D01*
X172125628Y-117751660D01*
X172034296Y-117885329D01*
X172002164Y-118044000D01*
X171613679Y-118044000D01*
X171324554Y-117799902D01*
X171066157Y-117692886D01*
X170874000Y-117754358D01*
X170566000Y-117754358D01*
X170373843Y-117692886D01*
X170115446Y-117799902D01*
X169742772Y-118114538D01*
X169518872Y-118547840D01*
X153041128Y-118547840D01*
X152817228Y-118114538D01*
X152444554Y-117799902D01*
X152186157Y-117692886D01*
X151994000Y-117754358D01*
X151686000Y-117754358D01*
X151493843Y-117692886D01*
X151235446Y-117799902D01*
X150862772Y-118114538D01*
X150638872Y-118547840D01*
X150486016Y-118547840D01*
X150454849Y-118391157D01*
X150183883Y-117985628D01*
X149778354Y-117714662D01*
X149300000Y-117619511D01*
X148821646Y-117714662D01*
X148416117Y-117985628D01*
X148145151Y-118391157D01*
X148050000Y-118869511D01*
X148017836Y-118869511D01*
X148017836Y-118044000D01*
X147989944Y-117895769D01*
X147902340Y-117759628D01*
X147768671Y-117668296D01*
X147610000Y-117636164D01*
X145910000Y-117636164D01*
X145853156Y-117646860D01*
X146281016Y-117219000D01*
X154060000Y-117219000D01*
X154356580Y-117160007D01*
X154608008Y-116992008D01*
X156608008Y-114992008D01*
X156776007Y-114740580D01*
X156835000Y-114444000D01*
X156835000Y-113494000D01*
X158702164Y-113494000D01*
X158702164Y-115294000D01*
X158730056Y-115442231D01*
X158817660Y-115578372D01*
X158951329Y-115669704D01*
X159110000Y-115701836D01*
X160910000Y-115701836D01*
X161058231Y-115673944D01*
X161194372Y-115586340D01*
X161285704Y-115452671D01*
X161317836Y-115294000D01*
X161317836Y-114816174D01*
X161447271Y-115129429D01*
X161812647Y-115495444D01*
X162290279Y-115693774D01*
X162807452Y-115694226D01*
X163285429Y-115496729D01*
X163651444Y-115131353D01*
X163849774Y-114653721D01*
X163850226Y-114136548D01*
X163652729Y-113658571D01*
X163287353Y-113292556D01*
X162809721Y-113094226D01*
X162292548Y-113093774D01*
X161814571Y-113291271D01*
X161448556Y-113656647D01*
X161317836Y-113971456D01*
X161317836Y-113494000D01*
X161289944Y-113345769D01*
X161202340Y-113209628D01*
X161068671Y-113118296D01*
X160910000Y-113086164D01*
X159110000Y-113086164D01*
X158961769Y-113114056D01*
X158825628Y-113201660D01*
X158734296Y-113335329D01*
X158702164Y-113494000D01*
X156835000Y-113494000D01*
X156835000Y-109881647D01*
X163059793Y-109881647D01*
X163242097Y-110322857D01*
X163579367Y-110660717D01*
X164020258Y-110843791D01*
X164497647Y-110844207D01*
X164938857Y-110661903D01*
X165276717Y-110324633D01*
X165459791Y-109883742D01*
X165460207Y-109406353D01*
X165277903Y-108965143D01*
X164940633Y-108627283D01*
X164499742Y-108444209D01*
X164022353Y-108443793D01*
X163581143Y-108626097D01*
X163243283Y-108963367D01*
X163060209Y-109404258D01*
X163059793Y-109881647D01*
X156835000Y-109881647D01*
X156835000Y-99460491D01*
X163060000Y-99460491D01*
X163060000Y-99507509D01*
X163151345Y-99966729D01*
X163411472Y-100356037D01*
X163800780Y-100616164D01*
X164260000Y-100707509D01*
X164719220Y-100616164D01*
X165108528Y-100356037D01*
X165368655Y-99966729D01*
X165460000Y-99507509D01*
X165460000Y-99460491D01*
X165368655Y-99001271D01*
X165108528Y-98611963D01*
X164719220Y-98351836D01*
X164260000Y-98260491D01*
X163800780Y-98351836D01*
X163411472Y-98611963D01*
X163151345Y-99001271D01*
X163060000Y-99460491D01*
X156835000Y-99460491D01*
X156835000Y-96844000D01*
X156776007Y-96547420D01*
X156608008Y-96295992D01*
X154608008Y-94295992D01*
X154356580Y-94127993D01*
X154060000Y-94069000D01*
X151732097Y-94069000D01*
X151876717Y-93924633D01*
X152059791Y-93483742D01*
X152060207Y-93006353D01*
X151950356Y-92740491D01*
X156560000Y-92740491D01*
X156560000Y-92787509D01*
X156651345Y-93246729D01*
X156911472Y-93636037D01*
X157300780Y-93896164D01*
X157760000Y-93987509D01*
X158219220Y-93896164D01*
X158608528Y-93636037D01*
X158868655Y-93246729D01*
X158960000Y-92787509D01*
X158960000Y-92740491D01*
X158868655Y-92281271D01*
X158743525Y-92094000D01*
X160052164Y-92094000D01*
X160052164Y-93694000D01*
X160080056Y-93842231D01*
X160167660Y-93978372D01*
X160301329Y-94069704D01*
X160460000Y-94101836D01*
X162060000Y-94101836D01*
X162208231Y-94073944D01*
X162344372Y-93986340D01*
X162435704Y-93852671D01*
X162467836Y-93694000D01*
X162467836Y-92094000D01*
X162439944Y-91945769D01*
X162352340Y-91809628D01*
X162218671Y-91718296D01*
X162060000Y-91686164D01*
X160460000Y-91686164D01*
X160311769Y-91714056D01*
X160175628Y-91801660D01*
X160084296Y-91935329D01*
X160052164Y-92094000D01*
X158743525Y-92094000D01*
X158608528Y-91891963D01*
X158219220Y-91631836D01*
X157760000Y-91540491D01*
X157300780Y-91631836D01*
X156911472Y-91891963D01*
X156651345Y-92281271D01*
X156560000Y-92740491D01*
X151950356Y-92740491D01*
X151877903Y-92565143D01*
X151540633Y-92227283D01*
X151099742Y-92044209D01*
X150622353Y-92043793D01*
X150181143Y-92226097D01*
X149843283Y-92563367D01*
X149660209Y-93004258D01*
X149659793Y-93481647D01*
X149842097Y-93922857D01*
X149987985Y-94069000D01*
X141587758Y-94069000D01*
X141832164Y-93703220D01*
X141923509Y-93244000D01*
X141832164Y-92784780D01*
X141572037Y-92395472D01*
X141182729Y-92135345D01*
X140723509Y-92044000D01*
X140676491Y-92044000D01*
X140217271Y-92135345D01*
X139827963Y-92395472D01*
X139567836Y-92784780D01*
X139476491Y-93244000D01*
X139567836Y-93703220D01*
X139812242Y-94069000D01*
X137981016Y-94069000D01*
X134442507Y-90530491D01*
X149560000Y-90530491D01*
X149560000Y-90577509D01*
X149651345Y-91036729D01*
X149911472Y-91426037D01*
X150300780Y-91686164D01*
X150760000Y-91777509D01*
X151219220Y-91686164D01*
X151608528Y-91426037D01*
X151868655Y-91036729D01*
X151899502Y-90881647D01*
X153059793Y-90881647D01*
X153242097Y-91322857D01*
X153579367Y-91660717D01*
X154020258Y-91843791D01*
X154497647Y-91844207D01*
X154938857Y-91661903D01*
X155276717Y-91324633D01*
X155459791Y-90883742D01*
X155459869Y-90794000D01*
X164002164Y-90794000D01*
X164002164Y-92494000D01*
X164030056Y-92642231D01*
X164117660Y-92778372D01*
X164251329Y-92869704D01*
X164410000Y-92901836D01*
X166110000Y-92901836D01*
X166258231Y-92873944D01*
X166394372Y-92786340D01*
X166485704Y-92652671D01*
X166517836Y-92494000D01*
X166517836Y-90794000D01*
X166489944Y-90645769D01*
X166402340Y-90509628D01*
X166268671Y-90418296D01*
X166110000Y-90386164D01*
X164410000Y-90386164D01*
X164261769Y-90414056D01*
X164125628Y-90501660D01*
X164034296Y-90635329D01*
X164002164Y-90794000D01*
X155459869Y-90794000D01*
X155460207Y-90406353D01*
X155277903Y-89965143D01*
X154940633Y-89627283D01*
X154499742Y-89444209D01*
X154022353Y-89443793D01*
X153581143Y-89626097D01*
X153243283Y-89963367D01*
X153060209Y-90404258D01*
X153059793Y-90881647D01*
X151899502Y-90881647D01*
X151960000Y-90577509D01*
X151960000Y-90530491D01*
X151868655Y-90071271D01*
X151608528Y-89681963D01*
X151219220Y-89421836D01*
X150760000Y-89330491D01*
X150300780Y-89421836D01*
X149911472Y-89681963D01*
X149651345Y-90071271D01*
X149560000Y-90530491D01*
X134442507Y-90530491D01*
X134016904Y-90104888D01*
X134081953Y-90039839D01*
X134171148Y-90216487D01*
X134626394Y-90360192D01*
X135101981Y-90318743D01*
X135348852Y-90216487D01*
X135438048Y-90039837D01*
X134760000Y-89361789D01*
X134745858Y-89375931D01*
X134528069Y-89158142D01*
X134542211Y-89144000D01*
X134977789Y-89144000D01*
X135655837Y-89822048D01*
X135832487Y-89732852D01*
X135976192Y-89277606D01*
X135934743Y-88802019D01*
X135832487Y-88555148D01*
X135655837Y-88465952D01*
X134977789Y-89144000D01*
X134542211Y-89144000D01*
X133864163Y-88465952D01*
X133687513Y-88555148D01*
X133543808Y-89010394D01*
X133585257Y-89485981D01*
X133687513Y-89732852D01*
X133864161Y-89822047D01*
X133799112Y-89887096D01*
X133208008Y-89295992D01*
X132956580Y-89127993D01*
X132660000Y-89069000D01*
X132363420Y-89127993D01*
X132185000Y-89247210D01*
X132185000Y-88248163D01*
X134081952Y-88248163D01*
X134760000Y-88926211D01*
X135333938Y-88352273D01*
X137708666Y-88352273D01*
X137902577Y-88753633D01*
X138258502Y-89063722D01*
X138706000Y-89214000D01*
X139106000Y-89214000D01*
X139106000Y-88168000D01*
X139414000Y-88168000D01*
X139414000Y-89214000D01*
X139814000Y-89214000D01*
X140261498Y-89063722D01*
X140617423Y-88753633D01*
X140811334Y-88352273D01*
X140749167Y-88168000D01*
X139414000Y-88168000D01*
X139106000Y-88168000D01*
X137770833Y-88168000D01*
X137708666Y-88352273D01*
X135333938Y-88352273D01*
X135438048Y-88248163D01*
X135348852Y-88071513D01*
X135166656Y-88014000D01*
X145248654Y-88014000D01*
X145339999Y-88473220D01*
X145600126Y-88862528D01*
X145989434Y-89122655D01*
X146448654Y-89214000D01*
X147311346Y-89214000D01*
X147770566Y-89122655D01*
X147798485Y-89104000D01*
X163985511Y-89104000D01*
X164080662Y-89582354D01*
X164351628Y-89987883D01*
X164757157Y-90258849D01*
X165235511Y-90354000D01*
X165284489Y-90354000D01*
X165762843Y-90258849D01*
X166168372Y-89987883D01*
X166439338Y-89582354D01*
X166534489Y-89104000D01*
X166471998Y-88789837D01*
X173831952Y-88789837D01*
X173921148Y-88966487D01*
X174376394Y-89110192D01*
X174851981Y-89068743D01*
X175098852Y-88966487D01*
X175188048Y-88789837D01*
X174510000Y-88111789D01*
X173831952Y-88789837D01*
X166471998Y-88789837D01*
X166439338Y-88625646D01*
X166168372Y-88220117D01*
X165762843Y-87949151D01*
X165284489Y-87854000D01*
X165235511Y-87854000D01*
X164757157Y-87949151D01*
X164351628Y-88220117D01*
X164080662Y-88625646D01*
X163985511Y-89104000D01*
X147798485Y-89104000D01*
X148159874Y-88862528D01*
X148420001Y-88473220D01*
X148511346Y-88014000D01*
X148420001Y-87554780D01*
X148159874Y-87165472D01*
X147770566Y-86905345D01*
X147311346Y-86814000D01*
X146448654Y-86814000D01*
X145989434Y-86905345D01*
X145600126Y-87165472D01*
X145339999Y-87554780D01*
X145248654Y-88014000D01*
X135166656Y-88014000D01*
X134893606Y-87927808D01*
X134418019Y-87969257D01*
X134171148Y-88071513D01*
X134081952Y-88248163D01*
X132185000Y-88248163D01*
X132185000Y-87675727D01*
X137708666Y-87675727D01*
X137770833Y-87860000D01*
X139106000Y-87860000D01*
X139106000Y-86814000D01*
X139414000Y-86814000D01*
X139414000Y-87860000D01*
X140749167Y-87860000D01*
X140811334Y-87675727D01*
X140617423Y-87274367D01*
X140261498Y-86964278D01*
X139814000Y-86814000D01*
X139414000Y-86814000D01*
X139106000Y-86814000D01*
X138706000Y-86814000D01*
X138258502Y-86964278D01*
X137902577Y-87274367D01*
X137708666Y-87675727D01*
X132185000Y-87675727D01*
X132185000Y-84554000D01*
X133332164Y-84554000D01*
X133332164Y-86254000D01*
X133360056Y-86402231D01*
X133447660Y-86538372D01*
X133581329Y-86629704D01*
X133740000Y-86661836D01*
X135440000Y-86661836D01*
X135588231Y-86633944D01*
X135724372Y-86546340D01*
X135815704Y-86412671D01*
X135847836Y-86254000D01*
X135847836Y-85474000D01*
X137628654Y-85474000D01*
X137719999Y-85933220D01*
X137980126Y-86322528D01*
X138369434Y-86582655D01*
X138828654Y-86674000D01*
X139691346Y-86674000D01*
X140150566Y-86582655D01*
X140539874Y-86322528D01*
X140800001Y-85933220D01*
X140891346Y-85474000D01*
X145248654Y-85474000D01*
X145339999Y-85933220D01*
X145600126Y-86322528D01*
X145989434Y-86582655D01*
X146448654Y-86674000D01*
X147311346Y-86674000D01*
X147770566Y-86582655D01*
X147798485Y-86564000D01*
X163985511Y-86564000D01*
X164080662Y-87042354D01*
X164351628Y-87447883D01*
X164757157Y-87718849D01*
X165235511Y-87814000D01*
X165284489Y-87814000D01*
X165553983Y-87760394D01*
X173293808Y-87760394D01*
X173335257Y-88235981D01*
X173437513Y-88482852D01*
X173614163Y-88572048D01*
X174292211Y-87894000D01*
X174727789Y-87894000D01*
X175405837Y-88572048D01*
X175582487Y-88482852D01*
X175693349Y-88131647D01*
X179059793Y-88131647D01*
X179242097Y-88572857D01*
X179579367Y-88910717D01*
X180020258Y-89093791D01*
X180497647Y-89094207D01*
X180938857Y-88911903D01*
X181276717Y-88574633D01*
X181459791Y-88133742D01*
X181460207Y-87656353D01*
X181277903Y-87215143D01*
X180940633Y-86877283D01*
X180499742Y-86694209D01*
X180022353Y-86693793D01*
X179581143Y-86876097D01*
X179243283Y-87213367D01*
X179060209Y-87654258D01*
X179059793Y-88131647D01*
X175693349Y-88131647D01*
X175726192Y-88027606D01*
X175684743Y-87552019D01*
X175582487Y-87305148D01*
X175405837Y-87215952D01*
X174727789Y-87894000D01*
X174292211Y-87894000D01*
X173614163Y-87215952D01*
X173437513Y-87305148D01*
X173293808Y-87760394D01*
X165553983Y-87760394D01*
X165762843Y-87718849D01*
X166168372Y-87447883D01*
X166439338Y-87042354D01*
X166448128Y-86998163D01*
X173831952Y-86998163D01*
X174510000Y-87676211D01*
X175188048Y-86998163D01*
X175098852Y-86821513D01*
X174643606Y-86677808D01*
X174168019Y-86719257D01*
X173921148Y-86821513D01*
X173831952Y-86998163D01*
X166448128Y-86998163D01*
X166534489Y-86564000D01*
X166439338Y-86085646D01*
X166168372Y-85680117D01*
X165762843Y-85409151D01*
X165284489Y-85314000D01*
X165235511Y-85314000D01*
X164757157Y-85409151D01*
X164351628Y-85680117D01*
X164080662Y-86085646D01*
X163985511Y-86564000D01*
X147798485Y-86564000D01*
X148159874Y-86322528D01*
X148420001Y-85933220D01*
X148511346Y-85474000D01*
X148420001Y-85014780D01*
X148159874Y-84625472D01*
X147770566Y-84365345D01*
X147663258Y-84344000D01*
X156552164Y-84344000D01*
X156552164Y-85944000D01*
X156580056Y-86092231D01*
X156667660Y-86228372D01*
X156801329Y-86319704D01*
X156960000Y-86351836D01*
X158560000Y-86351836D01*
X158708231Y-86323944D01*
X158844372Y-86236340D01*
X158935704Y-86102671D01*
X158967836Y-85944000D01*
X158967836Y-85250491D01*
X160060000Y-85250491D01*
X160060000Y-85297509D01*
X160151345Y-85756729D01*
X160411472Y-86146037D01*
X160800780Y-86406164D01*
X161260000Y-86497509D01*
X161719220Y-86406164D01*
X162108528Y-86146037D01*
X162368655Y-85756729D01*
X162460000Y-85297509D01*
X162460000Y-85250491D01*
X162368655Y-84791271D01*
X162108528Y-84401963D01*
X161719220Y-84141836D01*
X161260000Y-84050491D01*
X160800780Y-84141836D01*
X160411472Y-84401963D01*
X160151345Y-84791271D01*
X160060000Y-85250491D01*
X158967836Y-85250491D01*
X158967836Y-84344000D01*
X158939944Y-84195769D01*
X158852340Y-84059628D01*
X158741633Y-83983985D01*
X159017452Y-83984226D01*
X159495429Y-83786729D01*
X159861444Y-83421353D01*
X160059774Y-82943721D01*
X160060226Y-82426548D01*
X159881500Y-81994000D01*
X162702164Y-81994000D01*
X162702164Y-83794000D01*
X162730056Y-83942231D01*
X162817660Y-84078372D01*
X162951329Y-84169704D01*
X163110000Y-84201836D01*
X164910000Y-84201836D01*
X165058231Y-84173944D01*
X165194372Y-84086340D01*
X165280360Y-83960491D01*
X169560000Y-83960491D01*
X169560000Y-84007509D01*
X169651345Y-84466729D01*
X169911472Y-84856037D01*
X170300780Y-85116164D01*
X170760000Y-85207509D01*
X171219220Y-85116164D01*
X171608528Y-84856037D01*
X171691224Y-84732273D01*
X173198666Y-84732273D01*
X173296676Y-84968930D01*
X173596872Y-85328256D01*
X174011725Y-85545349D01*
X174196000Y-85484092D01*
X174196000Y-84548000D01*
X174504000Y-84548000D01*
X174504000Y-85484092D01*
X174688275Y-85545349D01*
X175103128Y-85328256D01*
X175403324Y-84968930D01*
X175501334Y-84732273D01*
X175467387Y-84631647D01*
X183309793Y-84631647D01*
X183492097Y-85072857D01*
X183829367Y-85410717D01*
X184270258Y-85593791D01*
X184747647Y-85594207D01*
X185188857Y-85411903D01*
X185526717Y-85074633D01*
X185709791Y-84633742D01*
X185710207Y-84156353D01*
X185626484Y-83953726D01*
X186849799Y-83953726D01*
X187026026Y-84380229D01*
X187352055Y-84706827D01*
X187778249Y-84883798D01*
X188239726Y-84884201D01*
X188666229Y-84707974D01*
X188992827Y-84381945D01*
X189169798Y-83955751D01*
X189170201Y-83494274D01*
X188993974Y-83067771D01*
X188667945Y-82741173D01*
X188241751Y-82564202D01*
X187780274Y-82563799D01*
X187353771Y-82740026D01*
X187027173Y-83066055D01*
X186850202Y-83492249D01*
X186849799Y-83953726D01*
X185626484Y-83953726D01*
X185527903Y-83715143D01*
X185190633Y-83377283D01*
X184749742Y-83194209D01*
X184272353Y-83193793D01*
X183831143Y-83376097D01*
X183493283Y-83713367D01*
X183310209Y-84154258D01*
X183309793Y-84631647D01*
X175467387Y-84631647D01*
X175439167Y-84548000D01*
X174504000Y-84548000D01*
X174196000Y-84548000D01*
X173260833Y-84548000D01*
X173198666Y-84732273D01*
X171691224Y-84732273D01*
X171868655Y-84466729D01*
X171950408Y-84055727D01*
X173198666Y-84055727D01*
X173260833Y-84240000D01*
X174196000Y-84240000D01*
X174196000Y-83303908D01*
X174504000Y-83303908D01*
X174504000Y-84240000D01*
X175439167Y-84240000D01*
X175501334Y-84055727D01*
X175403324Y-83819070D01*
X175103128Y-83459744D01*
X174688275Y-83242651D01*
X174504000Y-83303908D01*
X174196000Y-83303908D01*
X174011725Y-83242651D01*
X173596872Y-83459744D01*
X173296676Y-83819070D01*
X173198666Y-84055727D01*
X171950408Y-84055727D01*
X171960000Y-84007509D01*
X171960000Y-83960491D01*
X171868655Y-83501271D01*
X171608528Y-83111963D01*
X171219220Y-82851836D01*
X170760000Y-82760491D01*
X170300780Y-82851836D01*
X169911472Y-83111963D01*
X169651345Y-83501271D01*
X169560000Y-83960491D01*
X165280360Y-83960491D01*
X165285704Y-83952671D01*
X165317836Y-83794000D01*
X165317836Y-81994000D01*
X165289944Y-81845769D01*
X165202340Y-81709628D01*
X165068671Y-81618296D01*
X164910000Y-81586164D01*
X164432174Y-81586164D01*
X164745429Y-81456729D01*
X165111444Y-81091353D01*
X165302330Y-80631647D01*
X169059793Y-80631647D01*
X169242097Y-81072857D01*
X169579367Y-81410717D01*
X170020258Y-81593791D01*
X170497647Y-81594207D01*
X170938857Y-81411903D01*
X171118801Y-81232273D01*
X173198666Y-81232273D01*
X173296676Y-81468930D01*
X173596872Y-81828256D01*
X174011725Y-82045349D01*
X174196000Y-81984092D01*
X174196000Y-81048000D01*
X174504000Y-81048000D01*
X174504000Y-81984092D01*
X174688275Y-82045349D01*
X175103128Y-81828256D01*
X175403324Y-81468930D01*
X175501334Y-81232273D01*
X175467387Y-81131647D01*
X183309793Y-81131647D01*
X183492097Y-81572857D01*
X183829367Y-81910717D01*
X184270258Y-82093791D01*
X184747647Y-82094207D01*
X185188857Y-81911903D01*
X185526717Y-81574633D01*
X185593531Y-81413726D01*
X186849799Y-81413726D01*
X187026026Y-81840229D01*
X187352055Y-82166827D01*
X187778249Y-82343798D01*
X188239726Y-82344201D01*
X188666229Y-82167974D01*
X188992827Y-81841945D01*
X189169798Y-81415751D01*
X189170201Y-80954274D01*
X188993974Y-80527771D01*
X188667945Y-80201173D01*
X188241751Y-80024202D01*
X187780274Y-80023799D01*
X187353771Y-80200026D01*
X187027173Y-80526055D01*
X186850202Y-80952249D01*
X186849799Y-81413726D01*
X185593531Y-81413726D01*
X185709791Y-81133742D01*
X185710207Y-80656353D01*
X185527903Y-80215143D01*
X185190633Y-79877283D01*
X184749742Y-79694209D01*
X184272353Y-79693793D01*
X183831143Y-79876097D01*
X183493283Y-80213367D01*
X183310209Y-80654258D01*
X183309793Y-81131647D01*
X175467387Y-81131647D01*
X175439167Y-81048000D01*
X174504000Y-81048000D01*
X174196000Y-81048000D01*
X173260833Y-81048000D01*
X173198666Y-81232273D01*
X171118801Y-81232273D01*
X171276717Y-81074633D01*
X171459791Y-80633742D01*
X171459858Y-80555727D01*
X173198666Y-80555727D01*
X173260833Y-80740000D01*
X174196000Y-80740000D01*
X174196000Y-79803908D01*
X174504000Y-79803908D01*
X174504000Y-80740000D01*
X175439167Y-80740000D01*
X175501334Y-80555727D01*
X175403324Y-80319070D01*
X175103128Y-79959744D01*
X174688275Y-79742651D01*
X174504000Y-79803908D01*
X174196000Y-79803908D01*
X174011725Y-79742651D01*
X173596872Y-79959744D01*
X173296676Y-80319070D01*
X173198666Y-80555727D01*
X171459858Y-80555727D01*
X171460207Y-80156353D01*
X171277903Y-79715143D01*
X170940633Y-79377283D01*
X170499742Y-79194209D01*
X170022353Y-79193793D01*
X169581143Y-79376097D01*
X169243283Y-79713367D01*
X169060209Y-80154258D01*
X169059793Y-80631647D01*
X165302330Y-80631647D01*
X165309774Y-80613721D01*
X165310226Y-80096548D01*
X165112729Y-79618571D01*
X164747353Y-79252556D01*
X164269721Y-79054226D01*
X163752548Y-79053774D01*
X163274571Y-79251271D01*
X162908556Y-79616647D01*
X162710226Y-80094279D01*
X162709774Y-80611452D01*
X162907271Y-81089429D01*
X163272647Y-81455444D01*
X163587456Y-81586164D01*
X163110000Y-81586164D01*
X162961769Y-81614056D01*
X162825628Y-81701660D01*
X162734296Y-81835329D01*
X162702164Y-81994000D01*
X159881500Y-81994000D01*
X159862729Y-81948571D01*
X159497353Y-81582556D01*
X159182544Y-81451836D01*
X159660000Y-81451836D01*
X159808231Y-81423944D01*
X159944372Y-81336340D01*
X160035704Y-81202671D01*
X160067836Y-81044000D01*
X160067836Y-79244000D01*
X160039944Y-79095769D01*
X159952340Y-78959628D01*
X159818671Y-78868296D01*
X159660000Y-78836164D01*
X157860000Y-78836164D01*
X157711769Y-78864056D01*
X157575628Y-78951660D01*
X157484296Y-79085329D01*
X157452164Y-79244000D01*
X157452164Y-81044000D01*
X157480056Y-81192231D01*
X157567660Y-81328372D01*
X157701329Y-81419704D01*
X157860000Y-81451836D01*
X158337826Y-81451836D01*
X158024571Y-81581271D01*
X157658556Y-81946647D01*
X157460226Y-82424279D01*
X157459774Y-82941452D01*
X157657271Y-83419429D01*
X158022647Y-83785444D01*
X158385621Y-83936164D01*
X156960000Y-83936164D01*
X156811769Y-83964056D01*
X156675628Y-84051660D01*
X156584296Y-84185329D01*
X156552164Y-84344000D01*
X147663258Y-84344000D01*
X147311346Y-84274000D01*
X146448654Y-84274000D01*
X145989434Y-84365345D01*
X145600126Y-84625472D01*
X145339999Y-85014780D01*
X145248654Y-85474000D01*
X140891346Y-85474000D01*
X140800001Y-85014780D01*
X140539874Y-84625472D01*
X140150566Y-84365345D01*
X139691346Y-84274000D01*
X138828654Y-84274000D01*
X138369434Y-84365345D01*
X137980126Y-84625472D01*
X137719999Y-85014780D01*
X137628654Y-85474000D01*
X135847836Y-85474000D01*
X135847836Y-84554000D01*
X135819944Y-84405769D01*
X135732340Y-84269628D01*
X135598671Y-84178296D01*
X135440000Y-84146164D01*
X133740000Y-84146164D01*
X133591769Y-84174056D01*
X133455628Y-84261660D01*
X133364296Y-84395329D01*
X133332164Y-84554000D01*
X132185000Y-84554000D01*
X132185000Y-82014000D01*
X133332164Y-82014000D01*
X133332164Y-83714000D01*
X133360056Y-83862231D01*
X133447660Y-83998372D01*
X133581329Y-84089704D01*
X133740000Y-84121836D01*
X135440000Y-84121836D01*
X135588231Y-84093944D01*
X135724372Y-84006340D01*
X135815704Y-83872671D01*
X135847836Y-83714000D01*
X135847836Y-82934000D01*
X137628654Y-82934000D01*
X137719999Y-83393220D01*
X137980126Y-83782528D01*
X138369434Y-84042655D01*
X138828654Y-84134000D01*
X139691346Y-84134000D01*
X140150566Y-84042655D01*
X140539874Y-83782528D01*
X140800001Y-83393220D01*
X140891346Y-82934000D01*
X145248654Y-82934000D01*
X145339999Y-83393220D01*
X145600126Y-83782528D01*
X145989434Y-84042655D01*
X146448654Y-84134000D01*
X147311346Y-84134000D01*
X147770566Y-84042655D01*
X148159874Y-83782528D01*
X148420001Y-83393220D01*
X148511346Y-82934000D01*
X148420001Y-82474780D01*
X148159874Y-82085472D01*
X147770566Y-81825345D01*
X147311346Y-81734000D01*
X146448654Y-81734000D01*
X145989434Y-81825345D01*
X145600126Y-82085472D01*
X145339999Y-82474780D01*
X145248654Y-82934000D01*
X140891346Y-82934000D01*
X140800001Y-82474780D01*
X140539874Y-82085472D01*
X140150566Y-81825345D01*
X139691346Y-81734000D01*
X138828654Y-81734000D01*
X138369434Y-81825345D01*
X137980126Y-82085472D01*
X137719999Y-82474780D01*
X137628654Y-82934000D01*
X135847836Y-82934000D01*
X135847836Y-82014000D01*
X135819944Y-81865769D01*
X135732340Y-81729628D01*
X135598671Y-81638296D01*
X135440000Y-81606164D01*
X133740000Y-81606164D01*
X133591769Y-81634056D01*
X133455628Y-81721660D01*
X133364296Y-81855329D01*
X133332164Y-82014000D01*
X132185000Y-82014000D01*
X132185000Y-79474000D01*
X133332164Y-79474000D01*
X133332164Y-81174000D01*
X133360056Y-81322231D01*
X133447660Y-81458372D01*
X133581329Y-81549704D01*
X133740000Y-81581836D01*
X135440000Y-81581836D01*
X135588231Y-81553944D01*
X135724372Y-81466340D01*
X135815704Y-81332671D01*
X135847836Y-81174000D01*
X135847836Y-79594000D01*
X137652164Y-79594000D01*
X137652164Y-81194000D01*
X137680056Y-81342231D01*
X137767660Y-81478372D01*
X137901329Y-81569704D01*
X138060000Y-81601836D01*
X140460000Y-81601836D01*
X140608231Y-81573944D01*
X140744372Y-81486340D01*
X140835704Y-81352671D01*
X140867836Y-81194000D01*
X140867836Y-80394000D01*
X145248654Y-80394000D01*
X145339999Y-80853220D01*
X145600126Y-81242528D01*
X145989434Y-81502655D01*
X146448654Y-81594000D01*
X147311346Y-81594000D01*
X147770566Y-81502655D01*
X148159874Y-81242528D01*
X148420001Y-80853220D01*
X148464074Y-80631647D01*
X149559793Y-80631647D01*
X149742097Y-81072857D01*
X150079367Y-81410717D01*
X150520258Y-81593791D01*
X150997647Y-81594207D01*
X151438857Y-81411903D01*
X151776717Y-81074633D01*
X151881505Y-80822275D01*
X153108651Y-80822275D01*
X153325744Y-81237128D01*
X153685070Y-81537324D01*
X153921727Y-81635334D01*
X154106000Y-81573167D01*
X154106000Y-80638000D01*
X154414000Y-80638000D01*
X154414000Y-81573167D01*
X154598273Y-81635334D01*
X154834930Y-81537324D01*
X155194256Y-81237128D01*
X155411349Y-80822275D01*
X155350092Y-80638000D01*
X154414000Y-80638000D01*
X154106000Y-80638000D01*
X153169908Y-80638000D01*
X153108651Y-80822275D01*
X151881505Y-80822275D01*
X151959791Y-80633742D01*
X151960207Y-80156353D01*
X151955816Y-80145725D01*
X153108651Y-80145725D01*
X153169908Y-80330000D01*
X154106000Y-80330000D01*
X154106000Y-79394833D01*
X154414000Y-79394833D01*
X154414000Y-80330000D01*
X155350092Y-80330000D01*
X155411349Y-80145725D01*
X155194256Y-79730872D01*
X154834930Y-79430676D01*
X154598273Y-79332666D01*
X154414000Y-79394833D01*
X154106000Y-79394833D01*
X153921727Y-79332666D01*
X153685070Y-79430676D01*
X153325744Y-79730872D01*
X153108651Y-80145725D01*
X151955816Y-80145725D01*
X151777903Y-79715143D01*
X151440633Y-79377283D01*
X150999742Y-79194209D01*
X150522353Y-79193793D01*
X150081143Y-79376097D01*
X149743283Y-79713367D01*
X149560209Y-80154258D01*
X149559793Y-80631647D01*
X148464074Y-80631647D01*
X148511346Y-80394000D01*
X148420001Y-79934780D01*
X148159874Y-79545472D01*
X147770566Y-79285345D01*
X147311346Y-79194000D01*
X146448654Y-79194000D01*
X145989434Y-79285345D01*
X145600126Y-79545472D01*
X145339999Y-79934780D01*
X145248654Y-80394000D01*
X140867836Y-80394000D01*
X140867836Y-79594000D01*
X140839944Y-79445769D01*
X140752340Y-79309628D01*
X140618671Y-79218296D01*
X140460000Y-79186164D01*
X138060000Y-79186164D01*
X137911769Y-79214056D01*
X137775628Y-79301660D01*
X137684296Y-79435329D01*
X137652164Y-79594000D01*
X135847836Y-79594000D01*
X135847836Y-79474000D01*
X135819944Y-79325769D01*
X135732340Y-79189628D01*
X135598671Y-79098296D01*
X135440000Y-79066164D01*
X133740000Y-79066164D01*
X133591769Y-79094056D01*
X133455628Y-79181660D01*
X133364296Y-79315329D01*
X133332164Y-79474000D01*
X132185000Y-79474000D01*
X132185000Y-76357283D01*
X136764000Y-76357283D01*
X136764000Y-76930717D01*
X136871787Y-77472597D01*
X137178737Y-77931980D01*
X137638120Y-78238930D01*
X138180000Y-78346717D01*
X138721880Y-78238930D01*
X139181263Y-77931980D01*
X139488213Y-77472597D01*
X139596000Y-76930717D01*
X139596000Y-76357283D01*
X141844000Y-76357283D01*
X141844000Y-76930717D01*
X141951787Y-77472597D01*
X142258737Y-77931980D01*
X142718120Y-78238930D01*
X143260000Y-78346717D01*
X143801880Y-78238930D01*
X144261263Y-77931980D01*
X144568213Y-77472597D01*
X144657924Y-77021590D01*
X146840437Y-77021590D01*
X146995791Y-77555426D01*
X147343609Y-77989174D01*
X147830939Y-78256801D01*
X147887699Y-78264180D01*
X148106000Y-78204958D01*
X148106000Y-76798000D01*
X148414000Y-76798000D01*
X148414000Y-78204958D01*
X148632301Y-78264180D01*
X148689061Y-78256801D01*
X149176391Y-77989174D01*
X149262615Y-77881647D01*
X150059793Y-77881647D01*
X150242097Y-78322857D01*
X150579367Y-78660717D01*
X151020258Y-78843791D01*
X151497647Y-78844207D01*
X151938857Y-78661903D01*
X152276717Y-78324633D01*
X152459791Y-77883742D01*
X152459999Y-77644000D01*
X160196491Y-77644000D01*
X160287836Y-78103220D01*
X160547963Y-78492528D01*
X160937271Y-78752655D01*
X161396491Y-78844000D01*
X161443509Y-78844000D01*
X161902729Y-78752655D01*
X162292037Y-78492528D01*
X162552164Y-78103220D01*
X162643509Y-77644000D01*
X162552164Y-77184780D01*
X162292037Y-76795472D01*
X161902729Y-76535345D01*
X161443509Y-76444000D01*
X161396491Y-76444000D01*
X160937271Y-76535345D01*
X160547963Y-76795472D01*
X160287836Y-77184780D01*
X160196491Y-77644000D01*
X152459999Y-77644000D01*
X152460207Y-77406353D01*
X152277903Y-76965143D01*
X151940633Y-76627283D01*
X151499742Y-76444209D01*
X151022353Y-76443793D01*
X150581143Y-76626097D01*
X150243283Y-76963367D01*
X150060209Y-77404258D01*
X150059793Y-77881647D01*
X149262615Y-77881647D01*
X149524209Y-77555426D01*
X149679563Y-77021590D01*
X149581420Y-76798000D01*
X148414000Y-76798000D01*
X148106000Y-76798000D01*
X146938580Y-76798000D01*
X146840437Y-77021590D01*
X144657924Y-77021590D01*
X144676000Y-76930717D01*
X144676000Y-76357283D01*
X144657925Y-76266410D01*
X146840437Y-76266410D01*
X146938580Y-76490000D01*
X148106000Y-76490000D01*
X148106000Y-75083042D01*
X148414000Y-75083042D01*
X148414000Y-76490000D01*
X149581420Y-76490000D01*
X149679563Y-76266410D01*
X149524209Y-75732574D01*
X149176391Y-75298826D01*
X148689061Y-75031199D01*
X148632301Y-75023820D01*
X148414000Y-75083042D01*
X148106000Y-75083042D01*
X147887699Y-75023820D01*
X147830939Y-75031199D01*
X147343609Y-75298826D01*
X146995791Y-75732574D01*
X146840437Y-76266410D01*
X144657925Y-76266410D01*
X144568213Y-75815403D01*
X144261263Y-75356020D01*
X143801880Y-75049070D01*
X143260000Y-74941283D01*
X142718120Y-75049070D01*
X142258737Y-75356020D01*
X141951787Y-75815403D01*
X141844000Y-76357283D01*
X139596000Y-76357283D01*
X139488213Y-75815403D01*
X139181263Y-75356020D01*
X138721880Y-75049070D01*
X138180000Y-74941283D01*
X137638120Y-75049070D01*
X137178737Y-75356020D01*
X136871787Y-75815403D01*
X136764000Y-76357283D01*
X132185000Y-76357283D01*
X132185000Y-74357283D01*
X154844000Y-74357283D01*
X154844000Y-74930717D01*
X154951787Y-75472597D01*
X155258737Y-75931980D01*
X155718120Y-76238930D01*
X156260000Y-76346717D01*
X156801880Y-76238930D01*
X157261263Y-75931980D01*
X157568213Y-75472597D01*
X157676000Y-74930717D01*
X157676000Y-74357283D01*
X159844000Y-74357283D01*
X159844000Y-74930717D01*
X159951787Y-75472597D01*
X160258737Y-75931980D01*
X160718120Y-76238930D01*
X161260000Y-76346717D01*
X161801880Y-76238930D01*
X162261263Y-75931980D01*
X162568213Y-75472597D01*
X162579724Y-75414726D01*
X162623604Y-75480396D01*
X163823604Y-76680396D01*
X164115584Y-76875492D01*
X164460000Y-76944000D01*
X164804415Y-76875492D01*
X165096396Y-76680396D01*
X165291492Y-76388415D01*
X165360000Y-76044000D01*
X165337286Y-75929809D01*
X165338737Y-75931980D01*
X165798120Y-76238930D01*
X166340000Y-76346717D01*
X166881880Y-76238930D01*
X167341263Y-75931980D01*
X167541939Y-75631647D01*
X169059793Y-75631647D01*
X169242097Y-76072857D01*
X169579367Y-76410717D01*
X170020258Y-76593791D01*
X170497647Y-76594207D01*
X170938857Y-76411903D01*
X170993572Y-76357283D01*
X172764000Y-76357283D01*
X172764000Y-76930717D01*
X172871787Y-77472597D01*
X173178737Y-77931980D01*
X173638120Y-78238930D01*
X174180000Y-78346717D01*
X174721880Y-78238930D01*
X175181263Y-77931980D01*
X175488213Y-77472597D01*
X175596000Y-76930717D01*
X175596000Y-76357283D01*
X177844000Y-76357283D01*
X177844000Y-76930717D01*
X177951787Y-77472597D01*
X178258737Y-77931980D01*
X178718120Y-78238930D01*
X179260000Y-78346717D01*
X179801880Y-78238930D01*
X180261263Y-77931980D01*
X180568213Y-77472597D01*
X180676000Y-76930717D01*
X180676000Y-76357283D01*
X182844000Y-76357283D01*
X182844000Y-76930717D01*
X182951787Y-77472597D01*
X183258737Y-77931980D01*
X183718120Y-78238930D01*
X184260000Y-78346717D01*
X184801880Y-78238930D01*
X185261263Y-77931980D01*
X185293322Y-77884000D01*
X186842164Y-77884000D01*
X186842164Y-79404000D01*
X186870056Y-79552231D01*
X186957660Y-79688372D01*
X187091329Y-79779704D01*
X187250000Y-79811836D01*
X188770000Y-79811836D01*
X188918231Y-79783944D01*
X189054372Y-79696340D01*
X189145704Y-79562671D01*
X189177836Y-79404000D01*
X189177836Y-77884000D01*
X189149944Y-77735769D01*
X189062340Y-77599628D01*
X188928671Y-77508296D01*
X188770000Y-77476164D01*
X187250000Y-77476164D01*
X187101769Y-77504056D01*
X186965628Y-77591660D01*
X186874296Y-77725329D01*
X186842164Y-77884000D01*
X185293322Y-77884000D01*
X185568213Y-77472597D01*
X185676000Y-76930717D01*
X185676000Y-76357283D01*
X185568213Y-75815403D01*
X185261263Y-75356020D01*
X184801880Y-75049070D01*
X184260000Y-74941283D01*
X183718120Y-75049070D01*
X183258737Y-75356020D01*
X182951787Y-75815403D01*
X182844000Y-76357283D01*
X180676000Y-76357283D01*
X180568213Y-75815403D01*
X180261263Y-75356020D01*
X179801880Y-75049070D01*
X179260000Y-74941283D01*
X178718120Y-75049070D01*
X178258737Y-75356020D01*
X177951787Y-75815403D01*
X177844000Y-76357283D01*
X175596000Y-76357283D01*
X175488213Y-75815403D01*
X175181263Y-75356020D01*
X174721880Y-75049070D01*
X174180000Y-74941283D01*
X173638120Y-75049070D01*
X173178737Y-75356020D01*
X172871787Y-75815403D01*
X172764000Y-76357283D01*
X170993572Y-76357283D01*
X171276717Y-76074633D01*
X171459791Y-75633742D01*
X171460207Y-75156353D01*
X171277903Y-74715143D01*
X170940633Y-74377283D01*
X170499742Y-74194209D01*
X170022353Y-74193793D01*
X169581143Y-74376097D01*
X169243283Y-74713367D01*
X169060209Y-75154258D01*
X169059793Y-75631647D01*
X167541939Y-75631647D01*
X167648213Y-75472597D01*
X167756000Y-74930717D01*
X167756000Y-74357283D01*
X167648213Y-73815403D01*
X167341263Y-73356020D01*
X166881880Y-73049070D01*
X166340000Y-72941283D01*
X165798120Y-73049070D01*
X165338737Y-73356020D01*
X165031787Y-73815403D01*
X164924000Y-74357283D01*
X164924000Y-74930717D01*
X164999606Y-75310814D01*
X164160000Y-74471208D01*
X164160000Y-71844000D01*
X187052164Y-71844000D01*
X187052164Y-73444000D01*
X187080056Y-73592231D01*
X187167660Y-73728372D01*
X187301329Y-73819704D01*
X187460000Y-73851836D01*
X189060000Y-73851836D01*
X189208231Y-73823944D01*
X189344372Y-73736340D01*
X189435704Y-73602671D01*
X189467836Y-73444000D01*
X189467836Y-71844000D01*
X189439944Y-71695769D01*
X189352340Y-71559628D01*
X189218671Y-71468296D01*
X189060000Y-71436164D01*
X187460000Y-71436164D01*
X187311769Y-71464056D01*
X187175628Y-71551660D01*
X187084296Y-71685329D01*
X187052164Y-71844000D01*
X164160000Y-71844000D01*
X164160000Y-71444000D01*
X164091492Y-71099585D01*
X163925951Y-70851836D01*
X164560000Y-70851836D01*
X164708231Y-70823944D01*
X164844372Y-70736340D01*
X164935704Y-70602671D01*
X164948428Y-70539837D01*
X165581952Y-70539837D01*
X165671148Y-70716487D01*
X166126394Y-70860192D01*
X166601981Y-70818743D01*
X166848852Y-70716487D01*
X166938048Y-70539837D01*
X166779858Y-70381647D01*
X187059793Y-70381647D01*
X187242097Y-70822857D01*
X187579367Y-71160717D01*
X188020258Y-71343791D01*
X188497647Y-71344207D01*
X188938857Y-71161903D01*
X189276717Y-70824633D01*
X189459791Y-70383742D01*
X189460207Y-69906353D01*
X189277903Y-69465143D01*
X188940633Y-69127283D01*
X188499742Y-68944209D01*
X188022353Y-68943793D01*
X187581143Y-69126097D01*
X187243283Y-69463367D01*
X187060209Y-69904258D01*
X187059793Y-70381647D01*
X166779858Y-70381647D01*
X166260000Y-69861789D01*
X165581952Y-70539837D01*
X164948428Y-70539837D01*
X164967836Y-70444000D01*
X164967836Y-69510394D01*
X165043808Y-69510394D01*
X165085257Y-69985981D01*
X165187513Y-70232852D01*
X165364163Y-70322048D01*
X166042211Y-69644000D01*
X166477789Y-69644000D01*
X167155837Y-70322048D01*
X167332487Y-70232852D01*
X167476192Y-69777606D01*
X167434743Y-69302019D01*
X167332487Y-69055148D01*
X167155837Y-68965952D01*
X166477789Y-69644000D01*
X166042211Y-69644000D01*
X165364163Y-68965952D01*
X165187513Y-69055148D01*
X165043808Y-69510394D01*
X164967836Y-69510394D01*
X164967836Y-68844000D01*
X164949803Y-68748163D01*
X165581952Y-68748163D01*
X166260000Y-69426211D01*
X166938048Y-68748163D01*
X166848852Y-68571513D01*
X166393606Y-68427808D01*
X165918019Y-68469257D01*
X165671148Y-68571513D01*
X165581952Y-68748163D01*
X164949803Y-68748163D01*
X164939944Y-68695769D01*
X164852340Y-68559628D01*
X164718671Y-68468296D01*
X164560000Y-68436164D01*
X162960000Y-68436164D01*
X162811769Y-68464056D01*
X162675628Y-68551660D01*
X162584296Y-68685329D01*
X162552164Y-68844000D01*
X162552164Y-70444000D01*
X162580056Y-70592231D01*
X162667660Y-70728372D01*
X162704505Y-70753547D01*
X162623604Y-70807604D01*
X162428508Y-71099585D01*
X162360000Y-71444000D01*
X162360000Y-73503790D01*
X162261263Y-73356020D01*
X161801880Y-73049070D01*
X161260000Y-72941283D01*
X160718120Y-73049070D01*
X160258737Y-73356020D01*
X159951787Y-73815403D01*
X159844000Y-74357283D01*
X157676000Y-74357283D01*
X157568213Y-73815403D01*
X157261263Y-73356020D01*
X156801880Y-73049070D01*
X156260000Y-72941283D01*
X155718120Y-73049070D01*
X155258737Y-73356020D01*
X154951787Y-73815403D01*
X154844000Y-74357283D01*
X132185000Y-74357283D01*
X132185000Y-69794000D01*
X158502164Y-69794000D01*
X158502164Y-71994000D01*
X158530056Y-72142231D01*
X158617660Y-72278372D01*
X158751329Y-72369704D01*
X158910000Y-72401836D01*
X161110000Y-72401836D01*
X161258231Y-72373944D01*
X161394372Y-72286340D01*
X161485704Y-72152671D01*
X161517836Y-71994000D01*
X161517836Y-69794000D01*
X161489944Y-69645769D01*
X161402340Y-69509628D01*
X161268671Y-69418296D01*
X161110000Y-69386164D01*
X158910000Y-69386164D01*
X158761769Y-69414056D01*
X158625628Y-69501660D01*
X158534296Y-69635329D01*
X158502164Y-69794000D01*
X132185000Y-69794000D01*
X132185000Y-65184000D01*
X157450000Y-65184000D01*
X157488906Y-65176121D01*
X157521681Y-65153727D01*
X157543161Y-65120346D01*
X157550000Y-65084000D01*
X157550000Y-60704613D01*
X158510000Y-60704613D01*
X158510000Y-60763387D01*
X158624181Y-61337412D01*
X158949340Y-61824047D01*
X159435975Y-62149206D01*
X160010000Y-62263387D01*
X160584025Y-62149206D01*
X161070660Y-61824047D01*
X161395819Y-61337412D01*
X161510000Y-60763387D01*
X161510000Y-60704613D01*
X161395819Y-60130588D01*
X161070660Y-59643953D01*
X160584025Y-59318794D01*
X160010000Y-59204613D01*
X159435975Y-59318794D01*
X158949340Y-59643953D01*
X158624181Y-60130588D01*
X158510000Y-60704613D01*
X157550000Y-60704613D01*
X157550000Y-53898000D01*
X158760000Y-53898000D01*
X158760000Y-54573565D01*
X158820896Y-54720582D01*
X158933418Y-54833104D01*
X159080435Y-54894000D01*
X159756000Y-54894000D01*
X159856000Y-54794000D01*
X159856000Y-53798000D01*
X160164000Y-53798000D01*
X160164000Y-54794000D01*
X160264000Y-54894000D01*
X160939565Y-54894000D01*
X161086582Y-54833104D01*
X161199104Y-54720582D01*
X161260000Y-54573565D01*
X161260000Y-53898000D01*
X161160000Y-53798000D01*
X160164000Y-53798000D01*
X159856000Y-53798000D01*
X158860000Y-53798000D01*
X158760000Y-53898000D01*
X157550000Y-53898000D01*
X157550000Y-52569000D01*
X158820241Y-52569000D01*
X158760000Y-52714435D01*
X158760000Y-52714435D01*
G37*
X158760000Y-52714435D02*
X158760000Y-53390000D01*
X158860000Y-53490000D01*
X159856000Y-53490000D01*
X159856000Y-53470000D01*
X160164000Y-53470000D01*
X160164000Y-53490000D01*
X161160000Y-53490000D01*
X161260000Y-53390000D01*
X161260000Y-52714435D01*
X161199759Y-52569000D01*
X161915493Y-52569000D01*
X161666117Y-52735628D01*
X161395151Y-53141157D01*
X161300000Y-53619511D01*
X161300000Y-53668489D01*
X161395151Y-54146843D01*
X161666117Y-54552372D01*
X162071646Y-54823338D01*
X162550000Y-54918489D01*
X163028354Y-54823338D01*
X163433883Y-54552372D01*
X163704849Y-54146843D01*
X163800000Y-53668489D01*
X163800000Y-53619511D01*
X163704849Y-53141157D01*
X163433883Y-52735628D01*
X163184507Y-52569000D01*
X164455493Y-52569000D01*
X164206117Y-52735628D01*
X163935151Y-53141157D01*
X163840000Y-53619511D01*
X163840000Y-53668489D01*
X163935151Y-54146843D01*
X164206117Y-54552372D01*
X164611646Y-54823338D01*
X165090000Y-54918489D01*
X165568354Y-54823338D01*
X165973883Y-54552372D01*
X166244849Y-54146843D01*
X166340000Y-53668489D01*
X166340000Y-53619511D01*
X166244849Y-53141157D01*
X165973883Y-52735628D01*
X165724507Y-52569000D01*
X167510000Y-52569000D01*
X167510000Y-65084000D01*
X167517879Y-65122906D01*
X167540273Y-65155681D01*
X167573654Y-65177161D01*
X167610000Y-65184000D01*
X189835000Y-65184000D01*
X189835000Y-95219000D01*
X171300672Y-95219000D01*
X171438857Y-95161903D01*
X171776717Y-94824633D01*
X171959791Y-94383742D01*
X171960207Y-93906353D01*
X171777903Y-93465143D01*
X171444990Y-93131647D01*
X173309793Y-93131647D01*
X173492097Y-93572857D01*
X173829367Y-93910717D01*
X174270258Y-94093791D01*
X174747647Y-94094207D01*
X175188857Y-93911903D01*
X175526717Y-93574633D01*
X175709791Y-93133742D01*
X175709792Y-93131647D01*
X179059793Y-93131647D01*
X179242097Y-93572857D01*
X179579367Y-93910717D01*
X180020258Y-94093791D01*
X180497647Y-94094207D01*
X180938857Y-93911903D01*
X181276717Y-93574633D01*
X181459791Y-93133742D01*
X181460207Y-92656353D01*
X181277903Y-92215143D01*
X180940633Y-91877283D01*
X180499742Y-91694209D01*
X180022353Y-91693793D01*
X179581143Y-91876097D01*
X179243283Y-92213367D01*
X179060209Y-92654258D01*
X179059793Y-93131647D01*
X175709792Y-93131647D01*
X175710207Y-92656353D01*
X175527903Y-92215143D01*
X175190633Y-91877283D01*
X174749742Y-91694209D01*
X174272353Y-91693793D01*
X173831143Y-91876097D01*
X173493283Y-92213367D01*
X173310209Y-92654258D01*
X173309793Y-93131647D01*
X171444990Y-93131647D01*
X171440633Y-93127283D01*
X170999742Y-92944209D01*
X170522353Y-92943793D01*
X170081143Y-93126097D01*
X169743283Y-93463367D01*
X169560209Y-93904258D01*
X169559793Y-94381647D01*
X169742097Y-94822857D01*
X170079367Y-95160717D01*
X170219728Y-95219000D01*
X168760000Y-95219000D01*
X168597360Y-95251351D01*
X168597358Y-95251352D01*
X168597359Y-95251352D01*
X168459479Y-95343480D01*
X168338959Y-95464000D01*
X167610000Y-95464000D01*
X167571094Y-95471879D01*
X167538319Y-95494273D01*
X167516839Y-95527654D01*
X167510000Y-95564000D01*
X167510000Y-96292960D01*
X166959480Y-96843480D01*
X166867351Y-96981359D01*
X166867351Y-96981360D01*
X166835000Y-97144000D01*
X166835000Y-114144000D01*
X166861984Y-114279657D01*
X166867351Y-114306641D01*
X166959480Y-114444520D01*
X167510000Y-114995040D01*
X167510000Y-115884000D01*
X167517879Y-115922906D01*
X167540273Y-115955681D01*
X167573654Y-115977161D01*
X167610000Y-115984000D01*
X168518566Y-115984000D01*
X168551608Y-116006078D01*
X168597360Y-116036649D01*
X168760000Y-116069000D01*
X176400000Y-116069000D01*
X176400000Y-140219000D01*
X142310000Y-140219000D01*
X142310000Y-139142275D01*
X148108651Y-139142275D01*
X148325744Y-139557128D01*
X148685070Y-139857324D01*
X148921727Y-139955334D01*
X149106000Y-139893167D01*
X149106000Y-138958000D01*
X149414000Y-138958000D01*
X149414000Y-139893167D01*
X149598273Y-139955334D01*
X149834930Y-139857324D01*
X150194256Y-139557128D01*
X150411349Y-139142275D01*
X150350092Y-138958000D01*
X149414000Y-138958000D01*
X149106000Y-138958000D01*
X148169908Y-138958000D01*
X148108651Y-139142275D01*
X142310000Y-139142275D01*
X142310000Y-138540972D01*
X142311136Y-138539837D01*
X145831952Y-138539837D01*
X145921148Y-138716487D01*
X146376394Y-138860192D01*
X146851981Y-138818743D01*
X147098852Y-138716487D01*
X147188048Y-138539837D01*
X147113936Y-138465725D01*
X148108651Y-138465725D01*
X148169908Y-138650000D01*
X149106000Y-138650000D01*
X149106000Y-137714833D01*
X149414000Y-137714833D01*
X149414000Y-138650000D01*
X150350092Y-138650000D01*
X150411349Y-138465725D01*
X150194256Y-138050872D01*
X149834930Y-137750676D01*
X149598273Y-137652666D01*
X149414000Y-137714833D01*
X149106000Y-137714833D01*
X148921727Y-137652666D01*
X148685070Y-137750676D01*
X148325744Y-138050872D01*
X148108651Y-138465725D01*
X147113936Y-138465725D01*
X146510000Y-137861789D01*
X145831952Y-138539837D01*
X142311136Y-138539837D01*
X142526717Y-138324633D01*
X142709791Y-137883742D01*
X142710116Y-137510394D01*
X145293808Y-137510394D01*
X145335257Y-137985981D01*
X145437513Y-138232852D01*
X145614163Y-138322048D01*
X146292211Y-137644000D01*
X146727789Y-137644000D01*
X147405837Y-138322048D01*
X147582487Y-138232852D01*
X147726192Y-137777606D01*
X147684743Y-137302019D01*
X147582487Y-137055148D01*
X147405837Y-136965952D01*
X146727789Y-137644000D01*
X146292211Y-137644000D01*
X145614163Y-136965952D01*
X145437513Y-137055148D01*
X145293808Y-137510394D01*
X142710116Y-137510394D01*
X142710207Y-137406353D01*
X142527903Y-136965143D01*
X142311302Y-136748163D01*
X145831952Y-136748163D01*
X146510000Y-137426211D01*
X147188048Y-136748163D01*
X147171808Y-136716000D01*
X153478981Y-136716000D01*
X153642640Y-137538769D01*
X154108701Y-138236280D01*
X154806212Y-138702341D01*
X155628981Y-138866000D01*
X156223019Y-138866000D01*
X157045788Y-138702341D01*
X157743299Y-138236280D01*
X158209360Y-137538769D01*
X158373019Y-136716000D01*
X158812981Y-136716000D01*
X158976640Y-137538769D01*
X159442701Y-138236280D01*
X160140212Y-138702341D01*
X160962981Y-138866000D01*
X161557019Y-138866000D01*
X162379788Y-138702341D01*
X163077299Y-138236280D01*
X163543360Y-137538769D01*
X163707019Y-136716000D01*
X164146981Y-136716000D01*
X164310640Y-137538769D01*
X164776701Y-138236280D01*
X165474212Y-138702341D01*
X166296981Y-138866000D01*
X166891019Y-138866000D01*
X167713788Y-138702341D01*
X168411299Y-138236280D01*
X168877360Y-137538769D01*
X169041019Y-136716000D01*
X168877360Y-135893231D01*
X168411299Y-135195720D01*
X167713788Y-134729659D01*
X166891019Y-134566000D01*
X166296981Y-134566000D01*
X165474212Y-134729659D01*
X164776701Y-135195720D01*
X164310640Y-135893231D01*
X164146981Y-136716000D01*
X163707019Y-136716000D01*
X163543360Y-135893231D01*
X163077299Y-135195720D01*
X162379788Y-134729659D01*
X161557019Y-134566000D01*
X160962981Y-134566000D01*
X160140212Y-134729659D01*
X159442701Y-135195720D01*
X158976640Y-135893231D01*
X158812981Y-136716000D01*
X158373019Y-136716000D01*
X158209360Y-135893231D01*
X157743299Y-135195720D01*
X157045788Y-134729659D01*
X156223019Y-134566000D01*
X155628981Y-134566000D01*
X154806212Y-134729659D01*
X154108701Y-135195720D01*
X153642640Y-135893231D01*
X153478981Y-136716000D01*
X147171808Y-136716000D01*
X147098852Y-136571513D01*
X146643606Y-136427808D01*
X146168019Y-136469257D01*
X145921148Y-136571513D01*
X145831952Y-136748163D01*
X142311302Y-136748163D01*
X142310000Y-136746859D01*
X142310000Y-133631647D01*
X143059793Y-133631647D01*
X143242097Y-134072857D01*
X143579367Y-134410717D01*
X144020258Y-134593791D01*
X144497647Y-134594207D01*
X144938857Y-134411903D01*
X145276717Y-134074633D01*
X145459791Y-133633742D01*
X145460207Y-133156353D01*
X145277903Y-132715143D01*
X144940633Y-132377283D01*
X144499742Y-132194209D01*
X144022353Y-132193793D01*
X143581143Y-132376097D01*
X143243283Y-132713367D01*
X143060209Y-133154258D01*
X143059793Y-133631647D01*
X142310000Y-133631647D01*
X142310000Y-132144000D01*
X153478981Y-132144000D01*
X153642640Y-132966769D01*
X154108701Y-133664280D01*
X154806212Y-134130341D01*
X155628981Y-134294000D01*
X156223019Y-134294000D01*
X157045788Y-134130341D01*
X157743299Y-133664280D01*
X158209360Y-132966769D01*
X158276034Y-132631574D01*
X158916015Y-132631574D01*
X158938481Y-132740055D01*
X159324266Y-133487419D01*
X159966689Y-134030260D01*
X160767947Y-134285935D01*
X161106000Y-134197430D01*
X161106000Y-132298000D01*
X161414000Y-132298000D01*
X161414000Y-134197430D01*
X161752053Y-134285935D01*
X162553311Y-134030260D01*
X163195734Y-133487419D01*
X163581519Y-132740055D01*
X163603985Y-132631574D01*
X163554207Y-132298000D01*
X161414000Y-132298000D01*
X161106000Y-132298000D01*
X158965793Y-132298000D01*
X158916015Y-132631574D01*
X158276034Y-132631574D01*
X158373019Y-132144000D01*
X164146981Y-132144000D01*
X164310640Y-132966769D01*
X164776701Y-133664280D01*
X165474212Y-134130341D01*
X166296981Y-134294000D01*
X166891019Y-134294000D01*
X167713788Y-134130341D01*
X168411299Y-133664280D01*
X168877360Y-132966769D01*
X169041019Y-132144000D01*
X168877360Y-131321231D01*
X168411299Y-130623720D01*
X167713788Y-130157659D01*
X166891019Y-129994000D01*
X166296981Y-129994000D01*
X165474212Y-130157659D01*
X164776701Y-130623720D01*
X164310640Y-131321231D01*
X164146981Y-132144000D01*
X158373019Y-132144000D01*
X158276035Y-131656426D01*
X158916015Y-131656426D01*
X158965793Y-131990000D01*
X161106000Y-131990000D01*
X161106000Y-130090570D01*
X161414000Y-130090570D01*
X161414000Y-131990000D01*
X163554207Y-131990000D01*
X163603985Y-131656426D01*
X163581519Y-131547945D01*
X163195734Y-130800581D01*
X162553311Y-130257740D01*
X161752053Y-130002065D01*
X161414000Y-130090570D01*
X161106000Y-130090570D01*
X160767947Y-130002065D01*
X159966689Y-130257740D01*
X159324266Y-130800581D01*
X158938481Y-131547945D01*
X158916015Y-131656426D01*
X158276035Y-131656426D01*
X158209360Y-131321231D01*
X157743299Y-130623720D01*
X157045788Y-130157659D01*
X156223019Y-129994000D01*
X155628981Y-129994000D01*
X154806212Y-130157659D01*
X154108701Y-130623720D01*
X153642640Y-131321231D01*
X153478981Y-132144000D01*
X142310000Y-132144000D01*
X142310000Y-128631647D01*
X143059793Y-128631647D01*
X143242097Y-129072857D01*
X143579367Y-129410717D01*
X144020258Y-129593791D01*
X144497647Y-129594207D01*
X144938857Y-129411903D01*
X145276717Y-129074633D01*
X145356851Y-128881647D01*
X148059793Y-128881647D01*
X148242097Y-129322857D01*
X148579367Y-129660717D01*
X149020258Y-129843791D01*
X149497647Y-129844207D01*
X149938857Y-129661903D01*
X150276717Y-129324633D01*
X150459791Y-128883742D01*
X150460207Y-128406353D01*
X150277903Y-127965143D01*
X149940633Y-127627283D01*
X149807497Y-127572000D01*
X153478981Y-127572000D01*
X153642640Y-128394769D01*
X154108701Y-129092280D01*
X154806212Y-129558341D01*
X155628981Y-129722000D01*
X156223019Y-129722000D01*
X157045788Y-129558341D01*
X157743299Y-129092280D01*
X158209360Y-128394769D01*
X158373019Y-127572000D01*
X158812981Y-127572000D01*
X158976640Y-128394769D01*
X159442701Y-129092280D01*
X160140212Y-129558341D01*
X160962981Y-129722000D01*
X161557019Y-129722000D01*
X162379788Y-129558341D01*
X163077299Y-129092280D01*
X163543360Y-128394769D01*
X163707019Y-127572000D01*
X164146981Y-127572000D01*
X164310640Y-128394769D01*
X164776701Y-129092280D01*
X165474212Y-129558341D01*
X166296981Y-129722000D01*
X166891019Y-129722000D01*
X167713788Y-129558341D01*
X168411299Y-129092280D01*
X168877360Y-128394769D01*
X169041019Y-127572000D01*
X168877360Y-126749231D01*
X168411299Y-126051720D01*
X167713788Y-125585659D01*
X166891019Y-125422000D01*
X166296981Y-125422000D01*
X165474212Y-125585659D01*
X164776701Y-126051720D01*
X164310640Y-126749231D01*
X164146981Y-127572000D01*
X163707019Y-127572000D01*
X163543360Y-126749231D01*
X163077299Y-126051720D01*
X162379788Y-125585659D01*
X161557019Y-125422000D01*
X160962981Y-125422000D01*
X160140212Y-125585659D01*
X159442701Y-126051720D01*
X158976640Y-126749231D01*
X158812981Y-127572000D01*
X158373019Y-127572000D01*
X158209360Y-126749231D01*
X157743299Y-126051720D01*
X157045788Y-125585659D01*
X156223019Y-125422000D01*
X155628981Y-125422000D01*
X154806212Y-125585659D01*
X154108701Y-126051720D01*
X153642640Y-126749231D01*
X153478981Y-127572000D01*
X149807497Y-127572000D01*
X149499742Y-127444209D01*
X149022353Y-127443793D01*
X148581143Y-127626097D01*
X148243283Y-127963367D01*
X148060209Y-128404258D01*
X148059793Y-128881647D01*
X145356851Y-128881647D01*
X145459791Y-128633742D01*
X145460207Y-128156353D01*
X145277903Y-127715143D01*
X144940633Y-127377283D01*
X144499742Y-127194209D01*
X144022353Y-127193793D01*
X143581143Y-127376097D01*
X143243283Y-127713367D01*
X143060209Y-128154258D01*
X143059793Y-128631647D01*
X142310000Y-128631647D01*
X142310000Y-116069000D01*
X145238984Y-116069000D01*
X144311992Y-116995992D01*
X144143993Y-117247420D01*
X144085000Y-117544000D01*
X144085000Y-120744000D01*
X144143993Y-121040580D01*
X144311992Y-121292008D01*
X145502164Y-122482180D01*
X145502164Y-123494000D01*
X145530056Y-123642231D01*
X145617660Y-123778372D01*
X145751329Y-123869704D01*
X145910000Y-123901836D01*
X147610000Y-123901836D01*
X147758231Y-123873944D01*
X147894372Y-123786340D01*
X147985704Y-123652671D01*
X148017836Y-123494000D01*
X148017836Y-122619511D01*
X148050000Y-122619511D01*
X148050000Y-122668489D01*
X148145151Y-123146843D01*
X148416117Y-123552372D01*
X148821646Y-123823338D01*
X149300000Y-123918489D01*
X149778354Y-123823338D01*
X150183883Y-123552372D01*
X150454849Y-123146843D01*
X150550000Y-122668489D01*
X150550000Y-122619511D01*
X150454849Y-122141157D01*
X150183883Y-121735628D01*
X149778354Y-121464662D01*
X149300000Y-121369511D01*
X148821646Y-121464662D01*
X148416117Y-121735628D01*
X148145151Y-122141157D01*
X148050000Y-122619511D01*
X148017836Y-122619511D01*
X148017836Y-121794000D01*
X147989944Y-121645769D01*
X147902340Y-121509628D01*
X147768671Y-121418296D01*
X147610000Y-121386164D01*
X146598180Y-121386164D01*
X145635000Y-120422984D01*
X145635000Y-120040220D01*
X145751329Y-120119704D01*
X145910000Y-120151836D01*
X147610000Y-120151836D01*
X147758231Y-120123944D01*
X147894372Y-120036340D01*
X147985704Y-119902671D01*
X148017836Y-119744000D01*
X148017836Y-118869511D01*
X148050000Y-118869511D01*
X148050000Y-118918489D01*
X148145151Y-119396843D01*
X148416117Y-119802372D01*
X148821646Y-120073338D01*
X149300000Y-120168489D01*
X149778354Y-120073338D01*
X150183883Y-119802372D01*
X150454849Y-119396843D01*
X150486015Y-119240160D01*
X150638872Y-119240160D01*
X150862772Y-119673462D01*
X151235446Y-119988098D01*
X151493843Y-120095114D01*
X151686000Y-120033642D01*
X151686000Y-119048000D01*
X151994000Y-119048000D01*
X151994000Y-120033642D01*
X152186157Y-120095114D01*
X152444554Y-119988098D01*
X152817228Y-119673462D01*
X153041128Y-119240160D01*
X169518872Y-119240160D01*
X169742772Y-119673462D01*
X170115446Y-119988098D01*
X170373843Y-120095114D01*
X170566000Y-120033642D01*
X170566000Y-119048000D01*
X170874000Y-119048000D01*
X170874000Y-120033642D01*
X171066157Y-120095114D01*
X171324554Y-119988098D01*
X171697228Y-119673462D01*
X171921128Y-119240160D01*
X171860491Y-119048000D01*
X170874000Y-119048000D01*
X170566000Y-119048000D01*
X169579509Y-119048000D01*
X169518872Y-119240160D01*
X153041128Y-119240160D01*
X152980491Y-119048000D01*
X151994000Y-119048000D01*
X151686000Y-119048000D01*
X150699509Y-119048000D01*
X150638872Y-119240160D01*
X150486015Y-119240160D01*
X150550000Y-118918489D01*
X150550000Y-118869511D01*
X150486016Y-118547840D01*
X150638872Y-118547840D01*
X150699509Y-118740000D01*
X151686000Y-118740000D01*
X151686000Y-117754358D01*
X151994000Y-117754358D01*
X151994000Y-118740000D01*
X152980491Y-118740000D01*
X153041128Y-118547840D01*
X169518872Y-118547840D01*
X169579509Y-118740000D01*
X170566000Y-118740000D01*
X170566000Y-117754358D01*
X170874000Y-117754358D01*
X170874000Y-118740000D01*
X171860491Y-118740000D01*
X171921128Y-118547840D01*
X171697228Y-118114538D01*
X171613679Y-118044000D01*
X172002164Y-118044000D01*
X172002164Y-119744000D01*
X172030056Y-119892231D01*
X172117660Y-120028372D01*
X172251329Y-120119704D01*
X172410000Y-120151836D01*
X174110000Y-120151836D01*
X174258231Y-120123944D01*
X174394372Y-120036340D01*
X174485704Y-119902671D01*
X174517836Y-119744000D01*
X174517836Y-118044000D01*
X174489944Y-117895769D01*
X174402340Y-117759628D01*
X174268671Y-117668296D01*
X174110000Y-117636164D01*
X172410000Y-117636164D01*
X172261769Y-117664056D01*
X172125628Y-117751660D01*
X172034296Y-117885329D01*
X172002164Y-118044000D01*
X171613679Y-118044000D01*
X171324554Y-117799902D01*
X171066157Y-117692886D01*
X170874000Y-117754358D01*
X170566000Y-117754358D01*
X170373843Y-117692886D01*
X170115446Y-117799902D01*
X169742772Y-118114538D01*
X169518872Y-118547840D01*
X153041128Y-118547840D01*
X152817228Y-118114538D01*
X152444554Y-117799902D01*
X152186157Y-117692886D01*
X151994000Y-117754358D01*
X151686000Y-117754358D01*
X151493843Y-117692886D01*
X151235446Y-117799902D01*
X150862772Y-118114538D01*
X150638872Y-118547840D01*
X150486016Y-118547840D01*
X150454849Y-118391157D01*
X150183883Y-117985628D01*
X149778354Y-117714662D01*
X149300000Y-117619511D01*
X148821646Y-117714662D01*
X148416117Y-117985628D01*
X148145151Y-118391157D01*
X148050000Y-118869511D01*
X148017836Y-118869511D01*
X148017836Y-118044000D01*
X147989944Y-117895769D01*
X147902340Y-117759628D01*
X147768671Y-117668296D01*
X147610000Y-117636164D01*
X145910000Y-117636164D01*
X145853156Y-117646860D01*
X146281016Y-117219000D01*
X154060000Y-117219000D01*
X154356580Y-117160007D01*
X154608008Y-116992008D01*
X156608008Y-114992008D01*
X156776007Y-114740580D01*
X156835000Y-114444000D01*
X156835000Y-113494000D01*
X158702164Y-113494000D01*
X158702164Y-115294000D01*
X158730056Y-115442231D01*
X158817660Y-115578372D01*
X158951329Y-115669704D01*
X159110000Y-115701836D01*
X160910000Y-115701836D01*
X161058231Y-115673944D01*
X161194372Y-115586340D01*
X161285704Y-115452671D01*
X161317836Y-115294000D01*
X161317836Y-114816174D01*
X161447271Y-115129429D01*
X161812647Y-115495444D01*
X162290279Y-115693774D01*
X162807452Y-115694226D01*
X163285429Y-115496729D01*
X163651444Y-115131353D01*
X163849774Y-114653721D01*
X163850226Y-114136548D01*
X163652729Y-113658571D01*
X163287353Y-113292556D01*
X162809721Y-113094226D01*
X162292548Y-113093774D01*
X161814571Y-113291271D01*
X161448556Y-113656647D01*
X161317836Y-113971456D01*
X161317836Y-113494000D01*
X161289944Y-113345769D01*
X161202340Y-113209628D01*
X161068671Y-113118296D01*
X160910000Y-113086164D01*
X159110000Y-113086164D01*
X158961769Y-113114056D01*
X158825628Y-113201660D01*
X158734296Y-113335329D01*
X158702164Y-113494000D01*
X156835000Y-113494000D01*
X156835000Y-109881647D01*
X163059793Y-109881647D01*
X163242097Y-110322857D01*
X163579367Y-110660717D01*
X164020258Y-110843791D01*
X164497647Y-110844207D01*
X164938857Y-110661903D01*
X165276717Y-110324633D01*
X165459791Y-109883742D01*
X165460207Y-109406353D01*
X165277903Y-108965143D01*
X164940633Y-108627283D01*
X164499742Y-108444209D01*
X164022353Y-108443793D01*
X163581143Y-108626097D01*
X163243283Y-108963367D01*
X163060209Y-109404258D01*
X163059793Y-109881647D01*
X156835000Y-109881647D01*
X156835000Y-99460491D01*
X163060000Y-99460491D01*
X163060000Y-99507509D01*
X163151345Y-99966729D01*
X163411472Y-100356037D01*
X163800780Y-100616164D01*
X164260000Y-100707509D01*
X164719220Y-100616164D01*
X165108528Y-100356037D01*
X165368655Y-99966729D01*
X165460000Y-99507509D01*
X165460000Y-99460491D01*
X165368655Y-99001271D01*
X165108528Y-98611963D01*
X164719220Y-98351836D01*
X164260000Y-98260491D01*
X163800780Y-98351836D01*
X163411472Y-98611963D01*
X163151345Y-99001271D01*
X163060000Y-99460491D01*
X156835000Y-99460491D01*
X156835000Y-96844000D01*
X156776007Y-96547420D01*
X156608008Y-96295992D01*
X154608008Y-94295992D01*
X154356580Y-94127993D01*
X154060000Y-94069000D01*
X151732097Y-94069000D01*
X151876717Y-93924633D01*
X152059791Y-93483742D01*
X152060207Y-93006353D01*
X151950356Y-92740491D01*
X156560000Y-92740491D01*
X156560000Y-92787509D01*
X156651345Y-93246729D01*
X156911472Y-93636037D01*
X157300780Y-93896164D01*
X157760000Y-93987509D01*
X158219220Y-93896164D01*
X158608528Y-93636037D01*
X158868655Y-93246729D01*
X158960000Y-92787509D01*
X158960000Y-92740491D01*
X158868655Y-92281271D01*
X158743525Y-92094000D01*
X160052164Y-92094000D01*
X160052164Y-93694000D01*
X160080056Y-93842231D01*
X160167660Y-93978372D01*
X160301329Y-94069704D01*
X160460000Y-94101836D01*
X162060000Y-94101836D01*
X162208231Y-94073944D01*
X162344372Y-93986340D01*
X162435704Y-93852671D01*
X162467836Y-93694000D01*
X162467836Y-92094000D01*
X162439944Y-91945769D01*
X162352340Y-91809628D01*
X162218671Y-91718296D01*
X162060000Y-91686164D01*
X160460000Y-91686164D01*
X160311769Y-91714056D01*
X160175628Y-91801660D01*
X160084296Y-91935329D01*
X160052164Y-92094000D01*
X158743525Y-92094000D01*
X158608528Y-91891963D01*
X158219220Y-91631836D01*
X157760000Y-91540491D01*
X157300780Y-91631836D01*
X156911472Y-91891963D01*
X156651345Y-92281271D01*
X156560000Y-92740491D01*
X151950356Y-92740491D01*
X151877903Y-92565143D01*
X151540633Y-92227283D01*
X151099742Y-92044209D01*
X150622353Y-92043793D01*
X150181143Y-92226097D01*
X149843283Y-92563367D01*
X149660209Y-93004258D01*
X149659793Y-93481647D01*
X149842097Y-93922857D01*
X149987985Y-94069000D01*
X141587758Y-94069000D01*
X141832164Y-93703220D01*
X141923509Y-93244000D01*
X141832164Y-92784780D01*
X141572037Y-92395472D01*
X141182729Y-92135345D01*
X140723509Y-92044000D01*
X140676491Y-92044000D01*
X140217271Y-92135345D01*
X139827963Y-92395472D01*
X139567836Y-92784780D01*
X139476491Y-93244000D01*
X139567836Y-93703220D01*
X139812242Y-94069000D01*
X137981016Y-94069000D01*
X134442507Y-90530491D01*
X149560000Y-90530491D01*
X149560000Y-90577509D01*
X149651345Y-91036729D01*
X149911472Y-91426037D01*
X150300780Y-91686164D01*
X150760000Y-91777509D01*
X151219220Y-91686164D01*
X151608528Y-91426037D01*
X151868655Y-91036729D01*
X151899502Y-90881647D01*
X153059793Y-90881647D01*
X153242097Y-91322857D01*
X153579367Y-91660717D01*
X154020258Y-91843791D01*
X154497647Y-91844207D01*
X154938857Y-91661903D01*
X155276717Y-91324633D01*
X155459791Y-90883742D01*
X155459869Y-90794000D01*
X164002164Y-90794000D01*
X164002164Y-92494000D01*
X164030056Y-92642231D01*
X164117660Y-92778372D01*
X164251329Y-92869704D01*
X164410000Y-92901836D01*
X166110000Y-92901836D01*
X166258231Y-92873944D01*
X166394372Y-92786340D01*
X166485704Y-92652671D01*
X166517836Y-92494000D01*
X166517836Y-90794000D01*
X166489944Y-90645769D01*
X166402340Y-90509628D01*
X166268671Y-90418296D01*
X166110000Y-90386164D01*
X164410000Y-90386164D01*
X164261769Y-90414056D01*
X164125628Y-90501660D01*
X164034296Y-90635329D01*
X164002164Y-90794000D01*
X155459869Y-90794000D01*
X155460207Y-90406353D01*
X155277903Y-89965143D01*
X154940633Y-89627283D01*
X154499742Y-89444209D01*
X154022353Y-89443793D01*
X153581143Y-89626097D01*
X153243283Y-89963367D01*
X153060209Y-90404258D01*
X153059793Y-90881647D01*
X151899502Y-90881647D01*
X151960000Y-90577509D01*
X151960000Y-90530491D01*
X151868655Y-90071271D01*
X151608528Y-89681963D01*
X151219220Y-89421836D01*
X150760000Y-89330491D01*
X150300780Y-89421836D01*
X149911472Y-89681963D01*
X149651345Y-90071271D01*
X149560000Y-90530491D01*
X134442507Y-90530491D01*
X134016904Y-90104888D01*
X134081953Y-90039839D01*
X134171148Y-90216487D01*
X134626394Y-90360192D01*
X135101981Y-90318743D01*
X135348852Y-90216487D01*
X135438048Y-90039837D01*
X134760000Y-89361789D01*
X134745858Y-89375931D01*
X134528069Y-89158142D01*
X134542211Y-89144000D01*
X134977789Y-89144000D01*
X135655837Y-89822048D01*
X135832487Y-89732852D01*
X135976192Y-89277606D01*
X135934743Y-88802019D01*
X135832487Y-88555148D01*
X135655837Y-88465952D01*
X134977789Y-89144000D01*
X134542211Y-89144000D01*
X133864163Y-88465952D01*
X133687513Y-88555148D01*
X133543808Y-89010394D01*
X133585257Y-89485981D01*
X133687513Y-89732852D01*
X133864161Y-89822047D01*
X133799112Y-89887096D01*
X133208008Y-89295992D01*
X132956580Y-89127993D01*
X132660000Y-89069000D01*
X132363420Y-89127993D01*
X132185000Y-89247210D01*
X132185000Y-88248163D01*
X134081952Y-88248163D01*
X134760000Y-88926211D01*
X135333938Y-88352273D01*
X137708666Y-88352273D01*
X137902577Y-88753633D01*
X138258502Y-89063722D01*
X138706000Y-89214000D01*
X139106000Y-89214000D01*
X139106000Y-88168000D01*
X139414000Y-88168000D01*
X139414000Y-89214000D01*
X139814000Y-89214000D01*
X140261498Y-89063722D01*
X140617423Y-88753633D01*
X140811334Y-88352273D01*
X140749167Y-88168000D01*
X139414000Y-88168000D01*
X139106000Y-88168000D01*
X137770833Y-88168000D01*
X137708666Y-88352273D01*
X135333938Y-88352273D01*
X135438048Y-88248163D01*
X135348852Y-88071513D01*
X135166656Y-88014000D01*
X145248654Y-88014000D01*
X145339999Y-88473220D01*
X145600126Y-88862528D01*
X145989434Y-89122655D01*
X146448654Y-89214000D01*
X147311346Y-89214000D01*
X147770566Y-89122655D01*
X147798485Y-89104000D01*
X163985511Y-89104000D01*
X164080662Y-89582354D01*
X164351628Y-89987883D01*
X164757157Y-90258849D01*
X165235511Y-90354000D01*
X165284489Y-90354000D01*
X165762843Y-90258849D01*
X166168372Y-89987883D01*
X166439338Y-89582354D01*
X166534489Y-89104000D01*
X166471998Y-88789837D01*
X173831952Y-88789837D01*
X173921148Y-88966487D01*
X174376394Y-89110192D01*
X174851981Y-89068743D01*
X175098852Y-88966487D01*
X175188048Y-88789837D01*
X174510000Y-88111789D01*
X173831952Y-88789837D01*
X166471998Y-88789837D01*
X166439338Y-88625646D01*
X166168372Y-88220117D01*
X165762843Y-87949151D01*
X165284489Y-87854000D01*
X165235511Y-87854000D01*
X164757157Y-87949151D01*
X164351628Y-88220117D01*
X164080662Y-88625646D01*
X163985511Y-89104000D01*
X147798485Y-89104000D01*
X148159874Y-88862528D01*
X148420001Y-88473220D01*
X148511346Y-88014000D01*
X148420001Y-87554780D01*
X148159874Y-87165472D01*
X147770566Y-86905345D01*
X147311346Y-86814000D01*
X146448654Y-86814000D01*
X145989434Y-86905345D01*
X145600126Y-87165472D01*
X145339999Y-87554780D01*
X145248654Y-88014000D01*
X135166656Y-88014000D01*
X134893606Y-87927808D01*
X134418019Y-87969257D01*
X134171148Y-88071513D01*
X134081952Y-88248163D01*
X132185000Y-88248163D01*
X132185000Y-87675727D01*
X137708666Y-87675727D01*
X137770833Y-87860000D01*
X139106000Y-87860000D01*
X139106000Y-86814000D01*
X139414000Y-86814000D01*
X139414000Y-87860000D01*
X140749167Y-87860000D01*
X140811334Y-87675727D01*
X140617423Y-87274367D01*
X140261498Y-86964278D01*
X139814000Y-86814000D01*
X139414000Y-86814000D01*
X139106000Y-86814000D01*
X138706000Y-86814000D01*
X138258502Y-86964278D01*
X137902577Y-87274367D01*
X137708666Y-87675727D01*
X132185000Y-87675727D01*
X132185000Y-84554000D01*
X133332164Y-84554000D01*
X133332164Y-86254000D01*
X133360056Y-86402231D01*
X133447660Y-86538372D01*
X133581329Y-86629704D01*
X133740000Y-86661836D01*
X135440000Y-86661836D01*
X135588231Y-86633944D01*
X135724372Y-86546340D01*
X135815704Y-86412671D01*
X135847836Y-86254000D01*
X135847836Y-85474000D01*
X137628654Y-85474000D01*
X137719999Y-85933220D01*
X137980126Y-86322528D01*
X138369434Y-86582655D01*
X138828654Y-86674000D01*
X139691346Y-86674000D01*
X140150566Y-86582655D01*
X140539874Y-86322528D01*
X140800001Y-85933220D01*
X140891346Y-85474000D01*
X145248654Y-85474000D01*
X145339999Y-85933220D01*
X145600126Y-86322528D01*
X145989434Y-86582655D01*
X146448654Y-86674000D01*
X147311346Y-86674000D01*
X147770566Y-86582655D01*
X147798485Y-86564000D01*
X163985511Y-86564000D01*
X164080662Y-87042354D01*
X164351628Y-87447883D01*
X164757157Y-87718849D01*
X165235511Y-87814000D01*
X165284489Y-87814000D01*
X165553983Y-87760394D01*
X173293808Y-87760394D01*
X173335257Y-88235981D01*
X173437513Y-88482852D01*
X173614163Y-88572048D01*
X174292211Y-87894000D01*
X174727789Y-87894000D01*
X175405837Y-88572048D01*
X175582487Y-88482852D01*
X175693349Y-88131647D01*
X179059793Y-88131647D01*
X179242097Y-88572857D01*
X179579367Y-88910717D01*
X180020258Y-89093791D01*
X180497647Y-89094207D01*
X180938857Y-88911903D01*
X181276717Y-88574633D01*
X181459791Y-88133742D01*
X181460207Y-87656353D01*
X181277903Y-87215143D01*
X180940633Y-86877283D01*
X180499742Y-86694209D01*
X180022353Y-86693793D01*
X179581143Y-86876097D01*
X179243283Y-87213367D01*
X179060209Y-87654258D01*
X179059793Y-88131647D01*
X175693349Y-88131647D01*
X175726192Y-88027606D01*
X175684743Y-87552019D01*
X175582487Y-87305148D01*
X175405837Y-87215952D01*
X174727789Y-87894000D01*
X174292211Y-87894000D01*
X173614163Y-87215952D01*
X173437513Y-87305148D01*
X173293808Y-87760394D01*
X165553983Y-87760394D01*
X165762843Y-87718849D01*
X166168372Y-87447883D01*
X166439338Y-87042354D01*
X166448128Y-86998163D01*
X173831952Y-86998163D01*
X174510000Y-87676211D01*
X175188048Y-86998163D01*
X175098852Y-86821513D01*
X174643606Y-86677808D01*
X174168019Y-86719257D01*
X173921148Y-86821513D01*
X173831952Y-86998163D01*
X166448128Y-86998163D01*
X166534489Y-86564000D01*
X166439338Y-86085646D01*
X166168372Y-85680117D01*
X165762843Y-85409151D01*
X165284489Y-85314000D01*
X165235511Y-85314000D01*
X164757157Y-85409151D01*
X164351628Y-85680117D01*
X164080662Y-86085646D01*
X163985511Y-86564000D01*
X147798485Y-86564000D01*
X148159874Y-86322528D01*
X148420001Y-85933220D01*
X148511346Y-85474000D01*
X148420001Y-85014780D01*
X148159874Y-84625472D01*
X147770566Y-84365345D01*
X147663258Y-84344000D01*
X156552164Y-84344000D01*
X156552164Y-85944000D01*
X156580056Y-86092231D01*
X156667660Y-86228372D01*
X156801329Y-86319704D01*
X156960000Y-86351836D01*
X158560000Y-86351836D01*
X158708231Y-86323944D01*
X158844372Y-86236340D01*
X158935704Y-86102671D01*
X158967836Y-85944000D01*
X158967836Y-85250491D01*
X160060000Y-85250491D01*
X160060000Y-85297509D01*
X160151345Y-85756729D01*
X160411472Y-86146037D01*
X160800780Y-86406164D01*
X161260000Y-86497509D01*
X161719220Y-86406164D01*
X162108528Y-86146037D01*
X162368655Y-85756729D01*
X162460000Y-85297509D01*
X162460000Y-85250491D01*
X162368655Y-84791271D01*
X162108528Y-84401963D01*
X161719220Y-84141836D01*
X161260000Y-84050491D01*
X160800780Y-84141836D01*
X160411472Y-84401963D01*
X160151345Y-84791271D01*
X160060000Y-85250491D01*
X158967836Y-85250491D01*
X158967836Y-84344000D01*
X158939944Y-84195769D01*
X158852340Y-84059628D01*
X158741633Y-83983985D01*
X159017452Y-83984226D01*
X159495429Y-83786729D01*
X159861444Y-83421353D01*
X160059774Y-82943721D01*
X160060226Y-82426548D01*
X159881500Y-81994000D01*
X162702164Y-81994000D01*
X162702164Y-83794000D01*
X162730056Y-83942231D01*
X162817660Y-84078372D01*
X162951329Y-84169704D01*
X163110000Y-84201836D01*
X164910000Y-84201836D01*
X165058231Y-84173944D01*
X165194372Y-84086340D01*
X165280360Y-83960491D01*
X169560000Y-83960491D01*
X169560000Y-84007509D01*
X169651345Y-84466729D01*
X169911472Y-84856037D01*
X170300780Y-85116164D01*
X170760000Y-85207509D01*
X171219220Y-85116164D01*
X171608528Y-84856037D01*
X171691224Y-84732273D01*
X173198666Y-84732273D01*
X173296676Y-84968930D01*
X173596872Y-85328256D01*
X174011725Y-85545349D01*
X174196000Y-85484092D01*
X174196000Y-84548000D01*
X174504000Y-84548000D01*
X174504000Y-85484092D01*
X174688275Y-85545349D01*
X175103128Y-85328256D01*
X175403324Y-84968930D01*
X175501334Y-84732273D01*
X175467387Y-84631647D01*
X183309793Y-84631647D01*
X183492097Y-85072857D01*
X183829367Y-85410717D01*
X184270258Y-85593791D01*
X184747647Y-85594207D01*
X185188857Y-85411903D01*
X185526717Y-85074633D01*
X185709791Y-84633742D01*
X185710207Y-84156353D01*
X185626484Y-83953726D01*
X186849799Y-83953726D01*
X187026026Y-84380229D01*
X187352055Y-84706827D01*
X187778249Y-84883798D01*
X188239726Y-84884201D01*
X188666229Y-84707974D01*
X188992827Y-84381945D01*
X189169798Y-83955751D01*
X189170201Y-83494274D01*
X188993974Y-83067771D01*
X188667945Y-82741173D01*
X188241751Y-82564202D01*
X187780274Y-82563799D01*
X187353771Y-82740026D01*
X187027173Y-83066055D01*
X186850202Y-83492249D01*
X186849799Y-83953726D01*
X185626484Y-83953726D01*
X185527903Y-83715143D01*
X185190633Y-83377283D01*
X184749742Y-83194209D01*
X184272353Y-83193793D01*
X183831143Y-83376097D01*
X183493283Y-83713367D01*
X183310209Y-84154258D01*
X183309793Y-84631647D01*
X175467387Y-84631647D01*
X175439167Y-84548000D01*
X174504000Y-84548000D01*
X174196000Y-84548000D01*
X173260833Y-84548000D01*
X173198666Y-84732273D01*
X171691224Y-84732273D01*
X171868655Y-84466729D01*
X171950408Y-84055727D01*
X173198666Y-84055727D01*
X173260833Y-84240000D01*
X174196000Y-84240000D01*
X174196000Y-83303908D01*
X174504000Y-83303908D01*
X174504000Y-84240000D01*
X175439167Y-84240000D01*
X175501334Y-84055727D01*
X175403324Y-83819070D01*
X175103128Y-83459744D01*
X174688275Y-83242651D01*
X174504000Y-83303908D01*
X174196000Y-83303908D01*
X174011725Y-83242651D01*
X173596872Y-83459744D01*
X173296676Y-83819070D01*
X173198666Y-84055727D01*
X171950408Y-84055727D01*
X171960000Y-84007509D01*
X171960000Y-83960491D01*
X171868655Y-83501271D01*
X171608528Y-83111963D01*
X171219220Y-82851836D01*
X170760000Y-82760491D01*
X170300780Y-82851836D01*
X169911472Y-83111963D01*
X169651345Y-83501271D01*
X169560000Y-83960491D01*
X165280360Y-83960491D01*
X165285704Y-83952671D01*
X165317836Y-83794000D01*
X165317836Y-81994000D01*
X165289944Y-81845769D01*
X165202340Y-81709628D01*
X165068671Y-81618296D01*
X164910000Y-81586164D01*
X164432174Y-81586164D01*
X164745429Y-81456729D01*
X165111444Y-81091353D01*
X165302330Y-80631647D01*
X169059793Y-80631647D01*
X169242097Y-81072857D01*
X169579367Y-81410717D01*
X170020258Y-81593791D01*
X170497647Y-81594207D01*
X170938857Y-81411903D01*
X171118801Y-81232273D01*
X173198666Y-81232273D01*
X173296676Y-81468930D01*
X173596872Y-81828256D01*
X174011725Y-82045349D01*
X174196000Y-81984092D01*
X174196000Y-81048000D01*
X174504000Y-81048000D01*
X174504000Y-81984092D01*
X174688275Y-82045349D01*
X175103128Y-81828256D01*
X175403324Y-81468930D01*
X175501334Y-81232273D01*
X175467387Y-81131647D01*
X183309793Y-81131647D01*
X183492097Y-81572857D01*
X183829367Y-81910717D01*
X184270258Y-82093791D01*
X184747647Y-82094207D01*
X185188857Y-81911903D01*
X185526717Y-81574633D01*
X185593531Y-81413726D01*
X186849799Y-81413726D01*
X187026026Y-81840229D01*
X187352055Y-82166827D01*
X187778249Y-82343798D01*
X188239726Y-82344201D01*
X188666229Y-82167974D01*
X188992827Y-81841945D01*
X189169798Y-81415751D01*
X189170201Y-80954274D01*
X188993974Y-80527771D01*
X188667945Y-80201173D01*
X188241751Y-80024202D01*
X187780274Y-80023799D01*
X187353771Y-80200026D01*
X187027173Y-80526055D01*
X186850202Y-80952249D01*
X186849799Y-81413726D01*
X185593531Y-81413726D01*
X185709791Y-81133742D01*
X185710207Y-80656353D01*
X185527903Y-80215143D01*
X185190633Y-79877283D01*
X184749742Y-79694209D01*
X184272353Y-79693793D01*
X183831143Y-79876097D01*
X183493283Y-80213367D01*
X183310209Y-80654258D01*
X183309793Y-81131647D01*
X175467387Y-81131647D01*
X175439167Y-81048000D01*
X174504000Y-81048000D01*
X174196000Y-81048000D01*
X173260833Y-81048000D01*
X173198666Y-81232273D01*
X171118801Y-81232273D01*
X171276717Y-81074633D01*
X171459791Y-80633742D01*
X171459858Y-80555727D01*
X173198666Y-80555727D01*
X173260833Y-80740000D01*
X174196000Y-80740000D01*
X174196000Y-79803908D01*
X174504000Y-79803908D01*
X174504000Y-80740000D01*
X175439167Y-80740000D01*
X175501334Y-80555727D01*
X175403324Y-80319070D01*
X175103128Y-79959744D01*
X174688275Y-79742651D01*
X174504000Y-79803908D01*
X174196000Y-79803908D01*
X174011725Y-79742651D01*
X173596872Y-79959744D01*
X173296676Y-80319070D01*
X173198666Y-80555727D01*
X171459858Y-80555727D01*
X171460207Y-80156353D01*
X171277903Y-79715143D01*
X170940633Y-79377283D01*
X170499742Y-79194209D01*
X170022353Y-79193793D01*
X169581143Y-79376097D01*
X169243283Y-79713367D01*
X169060209Y-80154258D01*
X169059793Y-80631647D01*
X165302330Y-80631647D01*
X165309774Y-80613721D01*
X165310226Y-80096548D01*
X165112729Y-79618571D01*
X164747353Y-79252556D01*
X164269721Y-79054226D01*
X163752548Y-79053774D01*
X163274571Y-79251271D01*
X162908556Y-79616647D01*
X162710226Y-80094279D01*
X162709774Y-80611452D01*
X162907271Y-81089429D01*
X163272647Y-81455444D01*
X163587456Y-81586164D01*
X163110000Y-81586164D01*
X162961769Y-81614056D01*
X162825628Y-81701660D01*
X162734296Y-81835329D01*
X162702164Y-81994000D01*
X159881500Y-81994000D01*
X159862729Y-81948571D01*
X159497353Y-81582556D01*
X159182544Y-81451836D01*
X159660000Y-81451836D01*
X159808231Y-81423944D01*
X159944372Y-81336340D01*
X160035704Y-81202671D01*
X160067836Y-81044000D01*
X160067836Y-79244000D01*
X160039944Y-79095769D01*
X159952340Y-78959628D01*
X159818671Y-78868296D01*
X159660000Y-78836164D01*
X157860000Y-78836164D01*
X157711769Y-78864056D01*
X157575628Y-78951660D01*
X157484296Y-79085329D01*
X157452164Y-79244000D01*
X157452164Y-81044000D01*
X157480056Y-81192231D01*
X157567660Y-81328372D01*
X157701329Y-81419704D01*
X157860000Y-81451836D01*
X158337826Y-81451836D01*
X158024571Y-81581271D01*
X157658556Y-81946647D01*
X157460226Y-82424279D01*
X157459774Y-82941452D01*
X157657271Y-83419429D01*
X158022647Y-83785444D01*
X158385621Y-83936164D01*
X156960000Y-83936164D01*
X156811769Y-83964056D01*
X156675628Y-84051660D01*
X156584296Y-84185329D01*
X156552164Y-84344000D01*
X147663258Y-84344000D01*
X147311346Y-84274000D01*
X146448654Y-84274000D01*
X145989434Y-84365345D01*
X145600126Y-84625472D01*
X145339999Y-85014780D01*
X145248654Y-85474000D01*
X140891346Y-85474000D01*
X140800001Y-85014780D01*
X140539874Y-84625472D01*
X140150566Y-84365345D01*
X139691346Y-84274000D01*
X138828654Y-84274000D01*
X138369434Y-84365345D01*
X137980126Y-84625472D01*
X137719999Y-85014780D01*
X137628654Y-85474000D01*
X135847836Y-85474000D01*
X135847836Y-84554000D01*
X135819944Y-84405769D01*
X135732340Y-84269628D01*
X135598671Y-84178296D01*
X135440000Y-84146164D01*
X133740000Y-84146164D01*
X133591769Y-84174056D01*
X133455628Y-84261660D01*
X133364296Y-84395329D01*
X133332164Y-84554000D01*
X132185000Y-84554000D01*
X132185000Y-82014000D01*
X133332164Y-82014000D01*
X133332164Y-83714000D01*
X133360056Y-83862231D01*
X133447660Y-83998372D01*
X133581329Y-84089704D01*
X133740000Y-84121836D01*
X135440000Y-84121836D01*
X135588231Y-84093944D01*
X135724372Y-84006340D01*
X135815704Y-83872671D01*
X135847836Y-83714000D01*
X135847836Y-82934000D01*
X137628654Y-82934000D01*
X137719999Y-83393220D01*
X137980126Y-83782528D01*
X138369434Y-84042655D01*
X138828654Y-84134000D01*
X139691346Y-84134000D01*
X140150566Y-84042655D01*
X140539874Y-83782528D01*
X140800001Y-83393220D01*
X140891346Y-82934000D01*
X145248654Y-82934000D01*
X145339999Y-83393220D01*
X145600126Y-83782528D01*
X145989434Y-84042655D01*
X146448654Y-84134000D01*
X147311346Y-84134000D01*
X147770566Y-84042655D01*
X148159874Y-83782528D01*
X148420001Y-83393220D01*
X148511346Y-82934000D01*
X148420001Y-82474780D01*
X148159874Y-82085472D01*
X147770566Y-81825345D01*
X147311346Y-81734000D01*
X146448654Y-81734000D01*
X145989434Y-81825345D01*
X145600126Y-82085472D01*
X145339999Y-82474780D01*
X145248654Y-82934000D01*
X140891346Y-82934000D01*
X140800001Y-82474780D01*
X140539874Y-82085472D01*
X140150566Y-81825345D01*
X139691346Y-81734000D01*
X138828654Y-81734000D01*
X138369434Y-81825345D01*
X137980126Y-82085472D01*
X137719999Y-82474780D01*
X137628654Y-82934000D01*
X135847836Y-82934000D01*
X135847836Y-82014000D01*
X135819944Y-81865769D01*
X135732340Y-81729628D01*
X135598671Y-81638296D01*
X135440000Y-81606164D01*
X133740000Y-81606164D01*
X133591769Y-81634056D01*
X133455628Y-81721660D01*
X133364296Y-81855329D01*
X133332164Y-82014000D01*
X132185000Y-82014000D01*
X132185000Y-79474000D01*
X133332164Y-79474000D01*
X133332164Y-81174000D01*
X133360056Y-81322231D01*
X133447660Y-81458372D01*
X133581329Y-81549704D01*
X133740000Y-81581836D01*
X135440000Y-81581836D01*
X135588231Y-81553944D01*
X135724372Y-81466340D01*
X135815704Y-81332671D01*
X135847836Y-81174000D01*
X135847836Y-79594000D01*
X137652164Y-79594000D01*
X137652164Y-81194000D01*
X137680056Y-81342231D01*
X137767660Y-81478372D01*
X137901329Y-81569704D01*
X138060000Y-81601836D01*
X140460000Y-81601836D01*
X140608231Y-81573944D01*
X140744372Y-81486340D01*
X140835704Y-81352671D01*
X140867836Y-81194000D01*
X140867836Y-80394000D01*
X145248654Y-80394000D01*
X145339999Y-80853220D01*
X145600126Y-81242528D01*
X145989434Y-81502655D01*
X146448654Y-81594000D01*
X147311346Y-81594000D01*
X147770566Y-81502655D01*
X148159874Y-81242528D01*
X148420001Y-80853220D01*
X148464074Y-80631647D01*
X149559793Y-80631647D01*
X149742097Y-81072857D01*
X150079367Y-81410717D01*
X150520258Y-81593791D01*
X150997647Y-81594207D01*
X151438857Y-81411903D01*
X151776717Y-81074633D01*
X151881505Y-80822275D01*
X153108651Y-80822275D01*
X153325744Y-81237128D01*
X153685070Y-81537324D01*
X153921727Y-81635334D01*
X154106000Y-81573167D01*
X154106000Y-80638000D01*
X154414000Y-80638000D01*
X154414000Y-81573167D01*
X154598273Y-81635334D01*
X154834930Y-81537324D01*
X155194256Y-81237128D01*
X155411349Y-80822275D01*
X155350092Y-80638000D01*
X154414000Y-80638000D01*
X154106000Y-80638000D01*
X153169908Y-80638000D01*
X153108651Y-80822275D01*
X151881505Y-80822275D01*
X151959791Y-80633742D01*
X151960207Y-80156353D01*
X151955816Y-80145725D01*
X153108651Y-80145725D01*
X153169908Y-80330000D01*
X154106000Y-80330000D01*
X154106000Y-79394833D01*
X154414000Y-79394833D01*
X154414000Y-80330000D01*
X155350092Y-80330000D01*
X155411349Y-80145725D01*
X155194256Y-79730872D01*
X154834930Y-79430676D01*
X154598273Y-79332666D01*
X154414000Y-79394833D01*
X154106000Y-79394833D01*
X153921727Y-79332666D01*
X153685070Y-79430676D01*
X153325744Y-79730872D01*
X153108651Y-80145725D01*
X151955816Y-80145725D01*
X151777903Y-79715143D01*
X151440633Y-79377283D01*
X150999742Y-79194209D01*
X150522353Y-79193793D01*
X150081143Y-79376097D01*
X149743283Y-79713367D01*
X149560209Y-80154258D01*
X149559793Y-80631647D01*
X148464074Y-80631647D01*
X148511346Y-80394000D01*
X148420001Y-79934780D01*
X148159874Y-79545472D01*
X147770566Y-79285345D01*
X147311346Y-79194000D01*
X146448654Y-79194000D01*
X145989434Y-79285345D01*
X145600126Y-79545472D01*
X145339999Y-79934780D01*
X145248654Y-80394000D01*
X140867836Y-80394000D01*
X140867836Y-79594000D01*
X140839944Y-79445769D01*
X140752340Y-79309628D01*
X140618671Y-79218296D01*
X140460000Y-79186164D01*
X138060000Y-79186164D01*
X137911769Y-79214056D01*
X137775628Y-79301660D01*
X137684296Y-79435329D01*
X137652164Y-79594000D01*
X135847836Y-79594000D01*
X135847836Y-79474000D01*
X135819944Y-79325769D01*
X135732340Y-79189628D01*
X135598671Y-79098296D01*
X135440000Y-79066164D01*
X133740000Y-79066164D01*
X133591769Y-79094056D01*
X133455628Y-79181660D01*
X133364296Y-79315329D01*
X133332164Y-79474000D01*
X132185000Y-79474000D01*
X132185000Y-76357283D01*
X136764000Y-76357283D01*
X136764000Y-76930717D01*
X136871787Y-77472597D01*
X137178737Y-77931980D01*
X137638120Y-78238930D01*
X138180000Y-78346717D01*
X138721880Y-78238930D01*
X139181263Y-77931980D01*
X139488213Y-77472597D01*
X139596000Y-76930717D01*
X139596000Y-76357283D01*
X141844000Y-76357283D01*
X141844000Y-76930717D01*
X141951787Y-77472597D01*
X142258737Y-77931980D01*
X142718120Y-78238930D01*
X143260000Y-78346717D01*
X143801880Y-78238930D01*
X144261263Y-77931980D01*
X144568213Y-77472597D01*
X144657924Y-77021590D01*
X146840437Y-77021590D01*
X146995791Y-77555426D01*
X147343609Y-77989174D01*
X147830939Y-78256801D01*
X147887699Y-78264180D01*
X148106000Y-78204958D01*
X148106000Y-76798000D01*
X148414000Y-76798000D01*
X148414000Y-78204958D01*
X148632301Y-78264180D01*
X148689061Y-78256801D01*
X149176391Y-77989174D01*
X149262615Y-77881647D01*
X150059793Y-77881647D01*
X150242097Y-78322857D01*
X150579367Y-78660717D01*
X151020258Y-78843791D01*
X151497647Y-78844207D01*
X151938857Y-78661903D01*
X152276717Y-78324633D01*
X152459791Y-77883742D01*
X152459999Y-77644000D01*
X160196491Y-77644000D01*
X160287836Y-78103220D01*
X160547963Y-78492528D01*
X160937271Y-78752655D01*
X161396491Y-78844000D01*
X161443509Y-78844000D01*
X161902729Y-78752655D01*
X162292037Y-78492528D01*
X162552164Y-78103220D01*
X162643509Y-77644000D01*
X162552164Y-77184780D01*
X162292037Y-76795472D01*
X161902729Y-76535345D01*
X161443509Y-76444000D01*
X161396491Y-76444000D01*
X160937271Y-76535345D01*
X160547963Y-76795472D01*
X160287836Y-77184780D01*
X160196491Y-77644000D01*
X152459999Y-77644000D01*
X152460207Y-77406353D01*
X152277903Y-76965143D01*
X151940633Y-76627283D01*
X151499742Y-76444209D01*
X151022353Y-76443793D01*
X150581143Y-76626097D01*
X150243283Y-76963367D01*
X150060209Y-77404258D01*
X150059793Y-77881647D01*
X149262615Y-77881647D01*
X149524209Y-77555426D01*
X149679563Y-77021590D01*
X149581420Y-76798000D01*
X148414000Y-76798000D01*
X148106000Y-76798000D01*
X146938580Y-76798000D01*
X146840437Y-77021590D01*
X144657924Y-77021590D01*
X144676000Y-76930717D01*
X144676000Y-76357283D01*
X144657925Y-76266410D01*
X146840437Y-76266410D01*
X146938580Y-76490000D01*
X148106000Y-76490000D01*
X148106000Y-75083042D01*
X148414000Y-75083042D01*
X148414000Y-76490000D01*
X149581420Y-76490000D01*
X149679563Y-76266410D01*
X149524209Y-75732574D01*
X149176391Y-75298826D01*
X148689061Y-75031199D01*
X148632301Y-75023820D01*
X148414000Y-75083042D01*
X148106000Y-75083042D01*
X147887699Y-75023820D01*
X147830939Y-75031199D01*
X147343609Y-75298826D01*
X146995791Y-75732574D01*
X146840437Y-76266410D01*
X144657925Y-76266410D01*
X144568213Y-75815403D01*
X144261263Y-75356020D01*
X143801880Y-75049070D01*
X143260000Y-74941283D01*
X142718120Y-75049070D01*
X142258737Y-75356020D01*
X141951787Y-75815403D01*
X141844000Y-76357283D01*
X139596000Y-76357283D01*
X139488213Y-75815403D01*
X139181263Y-75356020D01*
X138721880Y-75049070D01*
X138180000Y-74941283D01*
X137638120Y-75049070D01*
X137178737Y-75356020D01*
X136871787Y-75815403D01*
X136764000Y-76357283D01*
X132185000Y-76357283D01*
X132185000Y-74357283D01*
X154844000Y-74357283D01*
X154844000Y-74930717D01*
X154951787Y-75472597D01*
X155258737Y-75931980D01*
X155718120Y-76238930D01*
X156260000Y-76346717D01*
X156801880Y-76238930D01*
X157261263Y-75931980D01*
X157568213Y-75472597D01*
X157676000Y-74930717D01*
X157676000Y-74357283D01*
X159844000Y-74357283D01*
X159844000Y-74930717D01*
X159951787Y-75472597D01*
X160258737Y-75931980D01*
X160718120Y-76238930D01*
X161260000Y-76346717D01*
X161801880Y-76238930D01*
X162261263Y-75931980D01*
X162568213Y-75472597D01*
X162579724Y-75414726D01*
X162623604Y-75480396D01*
X163823604Y-76680396D01*
X164115584Y-76875492D01*
X164460000Y-76944000D01*
X164804415Y-76875492D01*
X165096396Y-76680396D01*
X165291492Y-76388415D01*
X165360000Y-76044000D01*
X165337286Y-75929809D01*
X165338737Y-75931980D01*
X165798120Y-76238930D01*
X166340000Y-76346717D01*
X166881880Y-76238930D01*
X167341263Y-75931980D01*
X167541939Y-75631647D01*
X169059793Y-75631647D01*
X169242097Y-76072857D01*
X169579367Y-76410717D01*
X170020258Y-76593791D01*
X170497647Y-76594207D01*
X170938857Y-76411903D01*
X170993572Y-76357283D01*
X172764000Y-76357283D01*
X172764000Y-76930717D01*
X172871787Y-77472597D01*
X173178737Y-77931980D01*
X173638120Y-78238930D01*
X174180000Y-78346717D01*
X174721880Y-78238930D01*
X175181263Y-77931980D01*
X175488213Y-77472597D01*
X175596000Y-76930717D01*
X175596000Y-76357283D01*
X177844000Y-76357283D01*
X177844000Y-76930717D01*
X177951787Y-77472597D01*
X178258737Y-77931980D01*
X178718120Y-78238930D01*
X179260000Y-78346717D01*
X179801880Y-78238930D01*
X180261263Y-77931980D01*
X180568213Y-77472597D01*
X180676000Y-76930717D01*
X180676000Y-76357283D01*
X182844000Y-76357283D01*
X182844000Y-76930717D01*
X182951787Y-77472597D01*
X183258737Y-77931980D01*
X183718120Y-78238930D01*
X184260000Y-78346717D01*
X184801880Y-78238930D01*
X185261263Y-77931980D01*
X185293322Y-77884000D01*
X186842164Y-77884000D01*
X186842164Y-79404000D01*
X186870056Y-79552231D01*
X186957660Y-79688372D01*
X187091329Y-79779704D01*
X187250000Y-79811836D01*
X188770000Y-79811836D01*
X188918231Y-79783944D01*
X189054372Y-79696340D01*
X189145704Y-79562671D01*
X189177836Y-79404000D01*
X189177836Y-77884000D01*
X189149944Y-77735769D01*
X189062340Y-77599628D01*
X188928671Y-77508296D01*
X188770000Y-77476164D01*
X187250000Y-77476164D01*
X187101769Y-77504056D01*
X186965628Y-77591660D01*
X186874296Y-77725329D01*
X186842164Y-77884000D01*
X185293322Y-77884000D01*
X185568213Y-77472597D01*
X185676000Y-76930717D01*
X185676000Y-76357283D01*
X185568213Y-75815403D01*
X185261263Y-75356020D01*
X184801880Y-75049070D01*
X184260000Y-74941283D01*
X183718120Y-75049070D01*
X183258737Y-75356020D01*
X182951787Y-75815403D01*
X182844000Y-76357283D01*
X180676000Y-76357283D01*
X180568213Y-75815403D01*
X180261263Y-75356020D01*
X179801880Y-75049070D01*
X179260000Y-74941283D01*
X178718120Y-75049070D01*
X178258737Y-75356020D01*
X177951787Y-75815403D01*
X177844000Y-76357283D01*
X175596000Y-76357283D01*
X175488213Y-75815403D01*
X175181263Y-75356020D01*
X174721880Y-75049070D01*
X174180000Y-74941283D01*
X173638120Y-75049070D01*
X173178737Y-75356020D01*
X172871787Y-75815403D01*
X172764000Y-76357283D01*
X170993572Y-76357283D01*
X171276717Y-76074633D01*
X171459791Y-75633742D01*
X171460207Y-75156353D01*
X171277903Y-74715143D01*
X170940633Y-74377283D01*
X170499742Y-74194209D01*
X170022353Y-74193793D01*
X169581143Y-74376097D01*
X169243283Y-74713367D01*
X169060209Y-75154258D01*
X169059793Y-75631647D01*
X167541939Y-75631647D01*
X167648213Y-75472597D01*
X167756000Y-74930717D01*
X167756000Y-74357283D01*
X167648213Y-73815403D01*
X167341263Y-73356020D01*
X166881880Y-73049070D01*
X166340000Y-72941283D01*
X165798120Y-73049070D01*
X165338737Y-73356020D01*
X165031787Y-73815403D01*
X164924000Y-74357283D01*
X164924000Y-74930717D01*
X164999606Y-75310814D01*
X164160000Y-74471208D01*
X164160000Y-71844000D01*
X187052164Y-71844000D01*
X187052164Y-73444000D01*
X187080056Y-73592231D01*
X187167660Y-73728372D01*
X187301329Y-73819704D01*
X187460000Y-73851836D01*
X189060000Y-73851836D01*
X189208231Y-73823944D01*
X189344372Y-73736340D01*
X189435704Y-73602671D01*
X189467836Y-73444000D01*
X189467836Y-71844000D01*
X189439944Y-71695769D01*
X189352340Y-71559628D01*
X189218671Y-71468296D01*
X189060000Y-71436164D01*
X187460000Y-71436164D01*
X187311769Y-71464056D01*
X187175628Y-71551660D01*
X187084296Y-71685329D01*
X187052164Y-71844000D01*
X164160000Y-71844000D01*
X164160000Y-71444000D01*
X164091492Y-71099585D01*
X163925951Y-70851836D01*
X164560000Y-70851836D01*
X164708231Y-70823944D01*
X164844372Y-70736340D01*
X164935704Y-70602671D01*
X164948428Y-70539837D01*
X165581952Y-70539837D01*
X165671148Y-70716487D01*
X166126394Y-70860192D01*
X166601981Y-70818743D01*
X166848852Y-70716487D01*
X166938048Y-70539837D01*
X166779858Y-70381647D01*
X187059793Y-70381647D01*
X187242097Y-70822857D01*
X187579367Y-71160717D01*
X188020258Y-71343791D01*
X188497647Y-71344207D01*
X188938857Y-71161903D01*
X189276717Y-70824633D01*
X189459791Y-70383742D01*
X189460207Y-69906353D01*
X189277903Y-69465143D01*
X188940633Y-69127283D01*
X188499742Y-68944209D01*
X188022353Y-68943793D01*
X187581143Y-69126097D01*
X187243283Y-69463367D01*
X187060209Y-69904258D01*
X187059793Y-70381647D01*
X166779858Y-70381647D01*
X166260000Y-69861789D01*
X165581952Y-70539837D01*
X164948428Y-70539837D01*
X164967836Y-70444000D01*
X164967836Y-69510394D01*
X165043808Y-69510394D01*
X165085257Y-69985981D01*
X165187513Y-70232852D01*
X165364163Y-70322048D01*
X166042211Y-69644000D01*
X166477789Y-69644000D01*
X167155837Y-70322048D01*
X167332487Y-70232852D01*
X167476192Y-69777606D01*
X167434743Y-69302019D01*
X167332487Y-69055148D01*
X167155837Y-68965952D01*
X166477789Y-69644000D01*
X166042211Y-69644000D01*
X165364163Y-68965952D01*
X165187513Y-69055148D01*
X165043808Y-69510394D01*
X164967836Y-69510394D01*
X164967836Y-68844000D01*
X164949803Y-68748163D01*
X165581952Y-68748163D01*
X166260000Y-69426211D01*
X166938048Y-68748163D01*
X166848852Y-68571513D01*
X166393606Y-68427808D01*
X165918019Y-68469257D01*
X165671148Y-68571513D01*
X165581952Y-68748163D01*
X164949803Y-68748163D01*
X164939944Y-68695769D01*
X164852340Y-68559628D01*
X164718671Y-68468296D01*
X164560000Y-68436164D01*
X162960000Y-68436164D01*
X162811769Y-68464056D01*
X162675628Y-68551660D01*
X162584296Y-68685329D01*
X162552164Y-68844000D01*
X162552164Y-70444000D01*
X162580056Y-70592231D01*
X162667660Y-70728372D01*
X162704505Y-70753547D01*
X162623604Y-70807604D01*
X162428508Y-71099585D01*
X162360000Y-71444000D01*
X162360000Y-73503790D01*
X162261263Y-73356020D01*
X161801880Y-73049070D01*
X161260000Y-72941283D01*
X160718120Y-73049070D01*
X160258737Y-73356020D01*
X159951787Y-73815403D01*
X159844000Y-74357283D01*
X157676000Y-74357283D01*
X157568213Y-73815403D01*
X157261263Y-73356020D01*
X156801880Y-73049070D01*
X156260000Y-72941283D01*
X155718120Y-73049070D01*
X155258737Y-73356020D01*
X154951787Y-73815403D01*
X154844000Y-74357283D01*
X132185000Y-74357283D01*
X132185000Y-69794000D01*
X158502164Y-69794000D01*
X158502164Y-71994000D01*
X158530056Y-72142231D01*
X158617660Y-72278372D01*
X158751329Y-72369704D01*
X158910000Y-72401836D01*
X161110000Y-72401836D01*
X161258231Y-72373944D01*
X161394372Y-72286340D01*
X161485704Y-72152671D01*
X161517836Y-71994000D01*
X161517836Y-69794000D01*
X161489944Y-69645769D01*
X161402340Y-69509628D01*
X161268671Y-69418296D01*
X161110000Y-69386164D01*
X158910000Y-69386164D01*
X158761769Y-69414056D01*
X158625628Y-69501660D01*
X158534296Y-69635329D01*
X158502164Y-69794000D01*
X132185000Y-69794000D01*
X132185000Y-65184000D01*
X157450000Y-65184000D01*
X157488906Y-65176121D01*
X157521681Y-65153727D01*
X157543161Y-65120346D01*
X157550000Y-65084000D01*
X157550000Y-60704613D01*
X158510000Y-60704613D01*
X158510000Y-60763387D01*
X158624181Y-61337412D01*
X158949340Y-61824047D01*
X159435975Y-62149206D01*
X160010000Y-62263387D01*
X160584025Y-62149206D01*
X161070660Y-61824047D01*
X161395819Y-61337412D01*
X161510000Y-60763387D01*
X161510000Y-60704613D01*
X161395819Y-60130588D01*
X161070660Y-59643953D01*
X160584025Y-59318794D01*
X160010000Y-59204613D01*
X159435975Y-59318794D01*
X158949340Y-59643953D01*
X158624181Y-60130588D01*
X158510000Y-60704613D01*
X157550000Y-60704613D01*
X157550000Y-53898000D01*
X158760000Y-53898000D01*
X158760000Y-54573565D01*
X158820896Y-54720582D01*
X158933418Y-54833104D01*
X159080435Y-54894000D01*
X159756000Y-54894000D01*
X159856000Y-54794000D01*
X159856000Y-53798000D01*
X160164000Y-53798000D01*
X160164000Y-54794000D01*
X160264000Y-54894000D01*
X160939565Y-54894000D01*
X161086582Y-54833104D01*
X161199104Y-54720582D01*
X161260000Y-54573565D01*
X161260000Y-53898000D01*
X161160000Y-53798000D01*
X160164000Y-53798000D01*
X159856000Y-53798000D01*
X158860000Y-53798000D01*
X158760000Y-53898000D01*
X157550000Y-53898000D01*
X157550000Y-52569000D01*
X158820241Y-52569000D01*
X158760000Y-52714435D01*
M02*
